<svg width="18" height="18" viewBox="0 0 18 18" fill="none" xmlns="http://www.w3.org/2000/svg">
<path d="M10.8295 6.04433V3.64927H15.8739V0H2.13797V3.64927H7.18292V6.0424C3.08284 6.24687 0 7.12852 0 8.18469C0 9.24086 3.08432 10.1225 7.18292 10.3283V18H10.8307V10.3276C14.9234 10.1225 18 9.2415 18 8.1863C18 7.13109 14.9234 6.25009 10.8307 6.04497L10.8295 6.04433ZM10.8307 9.67782V9.67589C10.7278 9.68297 10.199 9.71743 9.02165 9.71743C8.08034 9.71743 7.4181 9.68845 7.1847 9.67524V9.67846C3.56239 9.50426 0.858569 8.81936 0.858569 7.99986C0.858569 7.18036 3.56269 6.49642 7.1847 6.3219V8.99614C7.42195 9.01385 8.1005 9.05732 9.03707 9.05732C10.162 9.05732 10.7275 9.00644 10.8313 8.99614V6.3219C14.4465 6.49674 17.1441 7.18229 17.1441 7.99889C17.1441 8.81549 14.4453 9.50136 10.8313 9.67621" fill="#82CB55"/>
</svg>
