<svg width="24" height="24" viewBox="0 0 24 24" fill="none" xmlns="http://www.w3.org/2000/svg">
<path d="M20 17.0007V11.4527V11.452C20 10.9181 20 10.6511 19.9351 10.4025C19.8775 10.1822 19.7827 9.97324 19.6548 9.78481C19.5104 9.57219 19.3096 9.3963 18.9074 9.04444L14.1074 4.84444C13.3608 4.19115 12.9875 3.86455 12.5674 3.74031C12.1972 3.63083 11.8028 3.63083 11.4326 3.74031C11.0127 3.86448 10.6398 4.1908 9.894 4.84336L9.89278 4.84444L5.09277 9.04444L5.09182 9.04528C4.69032 9.39658 4.48944 9.57236 4.34521 9.78481C4.2173 9.97324 4.12255 10.1822 4.06497 10.4025C4 10.6512 4 10.9184 4 11.4527V17.0007C4 17.9325 4 18.3984 4.15224 18.7659C4.35523 19.256 4.74481 19.6454 5.23486 19.8483C5.60241 20.0006 6.06835 20.0006 7.00023 20.0006C7.93211 20.0006 8.39782 20.0006 8.76537 19.8483C9.25542 19.6454 9.64467 19.256 9.84766 18.7659C9.9999 18.3984 10 17.9324 10 17.0006V16.0006C10 14.896 10.8954 14.0006 12 14.0006C13.1046 14.0006 14 14.896 14 16.0006V17.0006C14 17.9324 14 18.3984 14.1522 18.7659C14.3552 19.256 14.7448 19.6454 15.2349 19.8483C15.6024 20.0006 16.0683 20.0006 17.0002 20.0006C17.9321 20.0006 18.3978 20.0006 18.7654 19.8483C19.2554 19.6454 19.6447 19.256 19.8477 18.7659C19.9999 18.3984 20 17.9325 20 17.0007Z" stroke="white" stroke-width="2" stroke-linecap="round" stroke-linejoin="round"/>
</svg>
