<svg width="15" height="15" viewBox="0 0 15 15" fill="none" xmlns="http://www.w3.org/2000/svg">
<path fill-rule="evenodd" clip-rule="evenodd" d="M7.5 3.09961C7.39391 3.09961 7.29217 3.14175 7.21716 3.21677C7.14214 3.29178 7.1 3.39352 7.1 3.49961C7.1 3.6057 7.14214 3.70744 7.21716 3.78245C7.29217 3.85747 7.39391 3.89961 7.5 3.89961H14.5C14.6061 3.89961 14.7078 3.85747 14.7828 3.78245C14.8579 3.70744 14.9 3.6057 14.9 3.49961C14.9 3.39352 14.8579 3.29178 14.7828 3.21677C14.7078 3.14175 14.6061 3.09961 14.5 3.09961H7.5ZM7.5 5.09961C7.44747 5.09961 7.39546 5.10996 7.34693 5.13006C7.2984 5.15016 7.2543 5.17962 7.21716 5.21677C7.18001 5.25391 7.15055 5.29801 7.13045 5.34654C7.11035 5.39507 7.1 5.44708 7.1 5.49961C7.1 5.55214 7.11035 5.60415 7.13045 5.65268C7.15055 5.70121 7.18001 5.74531 7.21716 5.78245C7.2543 5.8196 7.2984 5.84906 7.34693 5.86916C7.39546 5.88926 7.44747 5.89961 7.5 5.89961H14.5C14.6061 5.89961 14.7078 5.85747 14.7828 5.78245C14.8579 5.70744 14.9 5.6057 14.9 5.49961C14.9 5.39352 14.8579 5.29178 14.7828 5.21677C14.7078 5.14175 14.6061 5.09961 14.5 5.09961H7.5ZM7.1 7.49961C7.1 7.27961 7.28 7.09961 7.5 7.09961H14.5C14.6061 7.09961 14.7078 7.14175 14.7828 7.21677C14.8579 7.29178 14.9 7.39352 14.9 7.49961C14.9 7.6057 14.8579 7.70744 14.7828 7.78245C14.7078 7.85747 14.6061 7.89961 14.5 7.89961H7.5C7.44747 7.89961 7.39546 7.88926 7.34693 7.86916C7.2984 7.84906 7.2543 7.8196 7.21716 7.78245C7.18001 7.74531 7.15055 7.70121 7.13045 7.65268C7.11035 7.60415 7.1 7.55214 7.1 7.49961ZM7.5 9.09961C7.39391 9.09961 7.29217 9.14175 7.21716 9.21677C7.14214 9.29178 7.1 9.39352 7.1 9.49961C7.1 9.6057 7.14214 9.70744 7.21716 9.78245C7.29217 9.85747 7.39391 9.89961 7.5 9.89961H14.5C14.6061 9.89961 14.7078 9.85747 14.7828 9.78245C14.8579 9.70744 14.9 9.6057 14.9 9.49961C14.9 9.39352 14.8579 9.29178 14.7828 9.21677C14.7078 9.14175 14.6061 9.09961 14.5 9.09961H7.5ZM7.1 11.4996C7.1 11.2796 7.28 11.0996 7.5 11.0996H14.5C14.6061 11.0996 14.7078 11.1418 14.7828 11.2168C14.8579 11.2918 14.9 11.3935 14.9 11.4996C14.9 11.6057 14.8579 11.7074 14.7828 11.7825C14.7078 11.8575 14.6061 11.8996 14.5 11.8996H7.5C7.39391 11.8996 7.29217 11.8575 7.21716 11.7825C7.14214 11.7074 7.1 11.6057 7.1 11.4996ZM2.5 9.24961L5 5.99961H0L2.5 9.24961Z" fill="black"/>
</svg>
