<svg width="270" height="270" viewBox="0 0 270 270" fill="none" xmlns="http://www.w3.org/2000/svg">
<path d="M9.31035 0H0V9.31035H9.31035V0Z" fill="black"/>
<path d="M18.6207 0H9.31035V9.31035H18.6207V0Z" fill="black"/>
<path d="M27.931 0H18.6207V9.31035H27.931V0Z" fill="black"/>
<path d="M37.2414 0H27.931V9.31035H37.2414V0Z" fill="black"/>
<path d="M46.5517 0H37.2414V9.31035H46.5517V0Z" fill="black"/>
<path d="M55.8621 0H46.5517V9.31035H55.8621V0Z" fill="black"/>
<path d="M65.1724 0H55.8621V9.31035H65.1724V0Z" fill="black"/>
<path d="M83.7931 0H74.4828V9.31035H83.7931V0Z" fill="black"/>
<path d="M111.724 0H102.414V9.31035H111.724V0Z" fill="black"/>
<path d="M121.034 0H111.724V9.31035H121.034V0Z" fill="black"/>
<path d="M139.655 0H130.345V9.31035H139.655V0Z" fill="black"/>
<path d="M167.586 0H158.276V9.31035H167.586V0Z" fill="black"/>
<path d="M176.897 0H167.586V9.31035H176.897V0Z" fill="black"/>
<path d="M186.207 0H176.897V9.31035H186.207V0Z" fill="black"/>
<path d="M195.517 0H186.207V9.31035H195.517V0Z" fill="black"/>
<path d="M214.138 0H204.828V9.31035H214.138V0Z" fill="black"/>
<path d="M223.448 0H214.138V9.31035H223.448V0Z" fill="black"/>
<path d="M232.759 0H223.448V9.31035H232.759V0Z" fill="black"/>
<path d="M242.069 0H232.759V9.31035H242.069V0Z" fill="black"/>
<path d="M251.379 0H242.069V9.31035H251.379V0Z" fill="black"/>
<path d="M260.69 0H251.379V9.31035H260.69V0Z" fill="black"/>
<path d="M270 0H260.69V9.31035H270V0Z" fill="black"/>
<path d="M9.31035 9.31035H0V18.6207H9.31035V9.31035Z" fill="black"/>
<path d="M65.1724 9.31035H55.8621V18.6207H65.1724V9.31035Z" fill="black"/>
<path d="M93.1035 9.31035H83.7931V18.6207H93.1035V9.31035Z" fill="black"/>
<path d="M130.345 9.31035H121.034V18.6207H130.345V9.31035Z" fill="black"/>
<path d="M139.655 9.31035H130.345V18.6207H139.655V9.31035Z" fill="black"/>
<path d="M158.276 9.31035H148.966V18.6207H158.276V9.31035Z" fill="black"/>
<path d="M167.586 9.31035H158.276V18.6207H167.586V9.31035Z" fill="black"/>
<path d="M176.897 9.31035H167.586V18.6207H176.897V9.31035Z" fill="black"/>
<path d="M186.207 9.31035H176.897V18.6207H186.207V9.31035Z" fill="black"/>
<path d="M195.517 9.31035H186.207V18.6207H195.517V9.31035Z" fill="black"/>
<path d="M214.138 9.31035H204.828V18.6207H214.138V9.31035Z" fill="black"/>
<path d="M270 9.31035H260.69V18.6207H270V9.31035Z" fill="black"/>
<path d="M9.31035 18.6207H0V27.931H9.31035V18.6207Z" fill="black"/>
<path d="M27.931 18.6207H18.6207V27.931H27.931V18.6207Z" fill="black"/>
<path d="M37.2414 18.6207H27.931V27.931H37.2414V18.6207Z" fill="black"/>
<path d="M46.5517 18.6207H37.2414V27.931H46.5517V18.6207Z" fill="black"/>
<path d="M65.1724 18.6207H55.8621V27.931H65.1724V18.6207Z" fill="black"/>
<path d="M121.034 18.6207H111.724V27.931H121.034V18.6207Z" fill="black"/>
<path d="M130.345 18.6207H121.034V27.931H130.345V18.6207Z" fill="black"/>
<path d="M139.655 18.6207H130.345V27.931H139.655V18.6207Z" fill="black"/>
<path d="M167.586 18.6207H158.276V27.931H167.586V18.6207Z" fill="black"/>
<path d="M176.897 18.6207H167.586V27.931H176.897V18.6207Z" fill="black"/>
<path d="M195.517 18.6207H186.207V27.931H195.517V18.6207Z" fill="black"/>
<path d="M214.138 18.6207H204.828V27.931H214.138V18.6207Z" fill="black"/>
<path d="M232.759 18.6207H223.448V27.931H232.759V18.6207Z" fill="black"/>
<path d="M242.069 18.6207H232.759V27.931H242.069V18.6207Z" fill="black"/>
<path d="M251.379 18.6207H242.069V27.931H251.379V18.6207Z" fill="black"/>
<path d="M270 18.6207H260.69V27.931H270V18.6207Z" fill="black"/>
<path d="M9.31035 27.931H0V37.2414H9.31035V27.931Z" fill="black"/>
<path d="M27.931 27.931H18.6207V37.2414H27.931V27.931Z" fill="black"/>
<path d="M37.2414 27.931H27.931V37.2414H37.2414V27.931Z" fill="black"/>
<path d="M46.5517 27.931H37.2414V37.2414H46.5517V27.931Z" fill="black"/>
<path d="M65.1724 27.931H55.8621V37.2414H65.1724V27.931Z" fill="black"/>
<path d="M83.7931 27.931H74.4828V37.2414H83.7931V27.931Z" fill="black"/>
<path d="M148.966 27.931H139.655V37.2414H148.966V27.931Z" fill="black"/>
<path d="M158.276 27.931H148.966V37.2414H158.276V27.931Z" fill="black"/>
<path d="M167.586 27.931H158.276V37.2414H167.586V27.931Z" fill="black"/>
<path d="M214.138 27.931H204.828V37.2414H214.138V27.931Z" fill="black"/>
<path d="M232.759 27.931H223.448V37.2414H232.759V27.931Z" fill="black"/>
<path d="M242.069 27.931H232.759V37.2414H242.069V27.931Z" fill="black"/>
<path d="M251.379 27.931H242.069V37.2414H251.379V27.931Z" fill="black"/>
<path d="M270 27.931H260.69V37.2414H270V27.931Z" fill="black"/>
<path d="M9.31035 37.2414H0V46.5517H9.31035V37.2414Z" fill="black"/>
<path d="M27.931 37.2414H18.6207V46.5517H27.931V37.2414Z" fill="black"/>
<path d="M37.2414 37.2414H27.931V46.5517H37.2414V37.2414Z" fill="black"/>
<path d="M46.5517 37.2414H37.2414V46.5517H46.5517V37.2414Z" fill="black"/>
<path d="M65.1724 37.2414H55.8621V46.5517H65.1724V37.2414Z" fill="black"/>
<path d="M83.7931 37.2414H74.4828V46.5517H83.7931V37.2414Z" fill="black"/>
<path d="M93.1035 37.2414H83.7931V46.5517H93.1035V37.2414Z" fill="black"/>
<path d="M130.345 37.2414H121.034V46.5517H130.345V37.2414Z" fill="black"/>
<path d="M139.655 37.2414H130.345V46.5517H139.655V37.2414Z" fill="black"/>
<path d="M176.897 37.2414H167.586V46.5517H176.897V37.2414Z" fill="black"/>
<path d="M186.207 37.2414H176.897V46.5517H186.207V37.2414Z" fill="black"/>
<path d="M214.138 37.2414H204.828V46.5517H214.138V37.2414Z" fill="black"/>
<path d="M232.759 37.2414H223.448V46.5517H232.759V37.2414Z" fill="black"/>
<path d="M242.069 37.2414H232.759V46.5517H242.069V37.2414Z" fill="black"/>
<path d="M251.379 37.2414H242.069V46.5517H251.379V37.2414Z" fill="black"/>
<path d="M270 37.2414H260.69V46.5517H270V37.2414Z" fill="black"/>
<path d="M9.31035 46.5517H0V55.8621H9.31035V46.5517Z" fill="black"/>
<path d="M65.1724 46.5517H55.8621V55.8621H65.1724V46.5517Z" fill="black"/>
<path d="M83.7931 46.5517H74.4828V55.8621H83.7931V46.5517Z" fill="black"/>
<path d="M111.724 46.5517H102.414V55.8621H111.724V46.5517Z" fill="black"/>
<path d="M121.034 46.5517H111.724V55.8621H121.034V46.5517Z" fill="black"/>
<path d="M148.966 46.5517H139.655V55.8621H148.966V46.5517Z" fill="black"/>
<path d="M158.276 46.5517H148.966V55.8621H158.276V46.5517Z" fill="black"/>
<path d="M176.897 46.5517H167.586V55.8621H176.897V46.5517Z" fill="black"/>
<path d="M186.207 46.5517H176.897V55.8621H186.207V46.5517Z" fill="black"/>
<path d="M214.138 46.5517H204.828V55.8621H214.138V46.5517Z" fill="black"/>
<path d="M270 46.5517H260.69V55.8621H270V46.5517Z" fill="black"/>
<path d="M9.31035 55.8621H0V65.1724H9.31035V55.8621Z" fill="black"/>
<path d="M18.6207 55.8621H9.31035V65.1724H18.6207V55.8621Z" fill="black"/>
<path d="M27.931 55.8621H18.6207V65.1724H27.931V55.8621Z" fill="black"/>
<path d="M37.2414 55.8621H27.931V65.1724H37.2414V55.8621Z" fill="black"/>
<path d="M46.5517 55.8621H37.2414V65.1724H46.5517V55.8621Z" fill="black"/>
<path d="M55.8621 55.8621H46.5517V65.1724H55.8621V55.8621Z" fill="black"/>
<path d="M65.1724 55.8621H55.8621V65.1724H65.1724V55.8621Z" fill="black"/>
<path d="M83.7931 55.8621H74.4828V65.1724H83.7931V55.8621Z" fill="black"/>
<path d="M102.414 55.8621H93.1035V65.1724H102.414V55.8621Z" fill="black"/>
<path d="M121.034 55.8621H111.724V65.1724H121.034V55.8621Z" fill="black"/>
<path d="M139.655 55.8621H130.345V65.1724H139.655V55.8621Z" fill="black"/>
<path d="M158.276 55.8621H148.966V65.1724H158.276V55.8621Z" fill="black"/>
<path d="M176.897 55.8621H167.586V65.1724H176.897V55.8621Z" fill="black"/>
<path d="M195.517 55.8621H186.207V65.1724H195.517V55.8621Z" fill="black"/>
<path d="M214.138 55.8621H204.828V65.1724H214.138V55.8621Z" fill="black"/>
<path d="M223.448 55.8621H214.138V65.1724H223.448V55.8621Z" fill="black"/>
<path d="M232.759 55.8621H223.448V65.1724H232.759V55.8621Z" fill="black"/>
<path d="M242.069 55.8621H232.759V65.1724H242.069V55.8621Z" fill="black"/>
<path d="M251.379 55.8621H242.069V65.1724H251.379V55.8621Z" fill="black"/>
<path d="M260.69 55.8621H251.379V65.1724H260.69V55.8621Z" fill="black"/>
<path d="M270 55.8621H260.69V65.1724H270V55.8621Z" fill="black"/>
<path d="M83.7931 65.1724H74.4828V74.4828H83.7931V65.1724Z" fill="black"/>
<path d="M102.414 65.1724H93.1035V74.4828H102.414V65.1724Z" fill="black"/>
<path d="M139.655 65.1724H130.345V74.4828H139.655V65.1724Z" fill="black"/>
<path d="M158.276 65.1724H148.966V74.4828H158.276V65.1724Z" fill="black"/>
<path d="M195.517 65.1724H186.207V74.4828H195.517V65.1724Z" fill="black"/>
<path d="M9.31035 74.4828H0V83.7931H9.31035V74.4828Z" fill="black"/>
<path d="M18.6207 74.4828H9.31035V83.7931H18.6207V74.4828Z" fill="black"/>
<path d="M27.931 74.4828H18.6207V83.7931H27.931V74.4828Z" fill="black"/>
<path d="M46.5517 74.4828H37.2414V83.7931H46.5517V74.4828Z" fill="black"/>
<path d="M65.1724 74.4828H55.8621V83.7931H65.1724V74.4828Z" fill="black"/>
<path d="M83.7931 74.4828H74.4828V83.7931H83.7931V74.4828Z" fill="black"/>
<path d="M93.1035 74.4828H83.7931V83.7931H93.1035V74.4828Z" fill="black"/>
<path d="M148.966 74.4828H139.655V83.7931H148.966V74.4828Z" fill="black"/>
<path d="M158.276 74.4828H148.966V83.7931H158.276V74.4828Z" fill="black"/>
<path d="M167.586 74.4828H158.276V83.7931H167.586V74.4828Z" fill="black"/>
<path d="M195.517 74.4828H186.207V83.7931H195.517V74.4828Z" fill="black"/>
<path d="M204.828 74.4828H195.517V83.7931H204.828V74.4828Z" fill="black"/>
<path d="M214.138 74.4828H204.828V83.7931H214.138V74.4828Z" fill="black"/>
<path d="M223.448 74.4828H214.138V83.7931H223.448V74.4828Z" fill="black"/>
<path d="M232.759 74.4828H223.448V83.7931H232.759V74.4828Z" fill="black"/>
<path d="M242.069 74.4828H232.759V83.7931H242.069V74.4828Z" fill="black"/>
<path d="M270 74.4828H260.69V83.7931H270V74.4828Z" fill="black"/>
<path d="M18.6207 83.7931H9.31035V93.1035H18.6207V83.7931Z" fill="black"/>
<path d="M46.5517 83.7931H37.2414V93.1035H46.5517V83.7931Z" fill="black"/>
<path d="M55.8621 83.7931H46.5517V93.1035H55.8621V83.7931Z" fill="black"/>
<path d="M93.1035 83.7931H83.7931V93.1035H93.1035V83.7931Z" fill="black"/>
<path d="M102.414 83.7931H93.1035V93.1035H102.414V83.7931Z" fill="black"/>
<path d="M121.034 83.7931H111.724V93.1035H121.034V83.7931Z" fill="black"/>
<path d="M176.897 83.7931H167.586V93.1035H176.897V83.7931Z" fill="black"/>
<path d="M186.207 83.7931H176.897V93.1035H186.207V83.7931Z" fill="black"/>
<path d="M195.517 83.7931H186.207V93.1035H195.517V83.7931Z" fill="black"/>
<path d="M204.828 83.7931H195.517V93.1035H204.828V83.7931Z" fill="black"/>
<path d="M214.138 83.7931H204.828V93.1035H214.138V83.7931Z" fill="black"/>
<path d="M223.448 83.7931H214.138V93.1035H223.448V83.7931Z" fill="black"/>
<path d="M232.759 83.7931H223.448V93.1035H232.759V83.7931Z" fill="black"/>
<path d="M251.379 83.7931H242.069V93.1035H251.379V83.7931Z" fill="black"/>
<path d="M270 83.7931H260.69V93.1035H270V83.7931Z" fill="black"/>
<path d="M9.31035 93.1035H0V102.414H9.31035V93.1035Z" fill="black"/>
<path d="M18.6207 93.1035H9.31035V102.414H18.6207V93.1035Z" fill="black"/>
<path d="M27.931 93.1035H18.6207V102.414H27.931V93.1035Z" fill="black"/>
<path d="M55.8621 93.1035H46.5517V102.414H55.8621V93.1035Z" fill="black"/>
<path d="M65.1724 93.1035H55.8621V102.414H65.1724V93.1035Z" fill="black"/>
<path d="M83.7931 93.1035H74.4828V102.414H83.7931V93.1035Z" fill="black"/>
<path d="M93.1035 93.1035H83.7931V102.414H93.1035V93.1035Z" fill="black"/>
<path d="M121.034 93.1035H111.724V102.414H121.034V93.1035Z" fill="black"/>
<path d="M130.345 93.1035H121.034V102.414H130.345V93.1035Z" fill="black"/>
<path d="M167.586 93.1035H158.276V102.414H167.586V93.1035Z" fill="black"/>
<path d="M176.897 93.1035H167.586V102.414H176.897V93.1035Z" fill="black"/>
<path d="M186.207 93.1035H176.897V102.414H186.207V93.1035Z" fill="black"/>
<path d="M214.138 93.1035H204.828V102.414H214.138V93.1035Z" fill="black"/>
<path d="M232.759 93.1035H223.448V102.414H232.759V93.1035Z" fill="black"/>
<path d="M242.069 93.1035H232.759V102.414H242.069V93.1035Z" fill="black"/>
<path d="M27.931 102.414H18.6207V111.724H27.931V102.414Z" fill="black"/>
<path d="M37.2414 102.414H27.931V111.724H37.2414V102.414Z" fill="black"/>
<path d="M46.5517 102.414H37.2414V111.724H46.5517V102.414Z" fill="black"/>
<path d="M93.1035 102.414H83.7931V111.724H93.1035V102.414Z" fill="black"/>
<path d="M102.414 102.414H93.1035V111.724H102.414V102.414Z" fill="black"/>
<path d="M111.724 102.414H102.414V111.724H111.724V102.414Z" fill="black"/>
<path d="M130.345 102.414H121.034V111.724H130.345V102.414Z" fill="black"/>
<path d="M148.966 102.414H139.655V111.724H148.966V102.414Z" fill="black"/>
<path d="M158.276 102.414H148.966V111.724H158.276V102.414Z" fill="black"/>
<path d="M167.586 102.414H158.276V111.724H167.586V102.414Z" fill="black"/>
<path d="M204.828 102.414H195.517V111.724H204.828V102.414Z" fill="black"/>
<path d="M214.138 102.414H204.828V111.724H214.138V102.414Z" fill="black"/>
<path d="M232.759 102.414H223.448V111.724H232.759V102.414Z" fill="black"/>
<path d="M242.069 102.414H232.759V111.724H242.069V102.414Z" fill="black"/>
<path d="M260.69 102.414H251.379V111.724H260.69V102.414Z" fill="black"/>
<path d="M270 102.414H260.69V111.724H270V102.414Z" fill="black"/>
<path d="M18.6207 111.724H9.31035V121.034H18.6207V111.724Z" fill="black"/>
<path d="M46.5517 111.724H37.2414V121.034H46.5517V111.724Z" fill="black"/>
<path d="M55.8621 111.724H46.5517V121.034H55.8621V111.724Z" fill="black"/>
<path d="M65.1724 111.724H55.8621V121.034H65.1724V111.724Z" fill="black"/>
<path d="M74.4828 111.724H65.1724V121.034H74.4828V111.724Z" fill="black"/>
<path d="M83.7931 111.724H74.4828V121.034H83.7931V111.724Z" fill="black"/>
<path d="M93.1035 111.724H83.7931V121.034H93.1035V111.724Z" fill="black"/>
<path d="M111.724 111.724H102.414V121.034H111.724V111.724Z" fill="black"/>
<path d="M130.345 111.724H121.034V121.034H130.345V111.724Z" fill="black"/>
<path d="M148.966 111.724H139.655V121.034H148.966V111.724Z" fill="black"/>
<path d="M167.586 111.724H158.276V121.034H167.586V111.724Z" fill="black"/>
<path d="M223.448 111.724H214.138V121.034H223.448V111.724Z" fill="black"/>
<path d="M242.069 111.724H232.759V121.034H242.069V111.724Z" fill="black"/>
<path d="M251.379 111.724H242.069V121.034H251.379V111.724Z" fill="black"/>
<path d="M260.69 111.724H251.379V121.034H260.69V111.724Z" fill="black"/>
<path d="M27.931 121.034H18.6207V130.345H27.931V121.034Z" fill="black"/>
<path d="M37.2414 121.034H27.931V130.345H37.2414V121.034Z" fill="black"/>
<path d="M55.8621 121.034H46.5517V130.345H55.8621V121.034Z" fill="black"/>
<path d="M74.4828 121.034H65.1724V130.345H74.4828V121.034Z" fill="black"/>
<path d="M83.7931 121.034H74.4828V130.345H83.7931V121.034Z" fill="black"/>
<path d="M93.1035 121.034H83.7931V130.345H93.1035V121.034Z" fill="black"/>
<path d="M102.414 121.034H93.1035V130.345H102.414V121.034Z" fill="black"/>
<path d="M111.724 121.034H102.414V130.345H111.724V121.034Z" fill="black"/>
<path d="M121.034 121.034H111.724V130.345H121.034V121.034Z" fill="black"/>
<path d="M130.345 121.034H121.034V130.345H130.345V121.034Z" fill="black"/>
<path d="M139.655 121.034H130.345V130.345H139.655V121.034Z" fill="black"/>
<path d="M167.586 121.034H158.276V130.345H167.586V121.034Z" fill="black"/>
<path d="M195.517 121.034H186.207V130.345H195.517V121.034Z" fill="black"/>
<path d="M232.759 121.034H223.448V130.345H232.759V121.034Z" fill="black"/>
<path d="M242.069 121.034H232.759V130.345H242.069V121.034Z" fill="black"/>
<path d="M260.69 121.034H251.379V130.345H260.69V121.034Z" fill="black"/>
<path d="M9.31035 130.345H0V139.655H9.31035V130.345Z" fill="black"/>
<path d="M65.1724 130.345H55.8621V139.655H65.1724V130.345Z" fill="black"/>
<path d="M93.1035 130.345H83.7931V139.655H93.1035V130.345Z" fill="black"/>
<path d="M130.345 130.345H121.034V139.655H130.345V130.345Z" fill="black"/>
<path d="M158.276 130.345H148.966V139.655H158.276V130.345Z" fill="black"/>
<path d="M167.586 130.345H158.276V139.655H167.586V130.345Z" fill="black"/>
<path d="M186.207 130.345H176.897V139.655H186.207V130.345Z" fill="black"/>
<path d="M195.517 130.345H186.207V139.655H195.517V130.345Z" fill="black"/>
<path d="M204.828 130.345H195.517V139.655H204.828V130.345Z" fill="black"/>
<path d="M214.138 130.345H204.828V139.655H214.138V130.345Z" fill="black"/>
<path d="M223.448 130.345H214.138V139.655H223.448V130.345Z" fill="black"/>
<path d="M232.759 130.345H223.448V139.655H232.759V130.345Z" fill="black"/>
<path d="M37.2414 139.655H27.931V148.966H37.2414V139.655Z" fill="black"/>
<path d="M93.1035 139.655H83.7931V148.966H93.1035V139.655Z" fill="black"/>
<path d="M102.414 139.655H93.1035V148.966H102.414V139.655Z" fill="black"/>
<path d="M121.034 139.655H111.724V148.966H121.034V139.655Z" fill="black"/>
<path d="M130.345 139.655H121.034V148.966H130.345V139.655Z" fill="black"/>
<path d="M139.655 139.655H130.345V148.966H139.655V139.655Z" fill="black"/>
<path d="M158.276 139.655H148.966V148.966H158.276V139.655Z" fill="black"/>
<path d="M167.586 139.655H158.276V148.966H167.586V139.655Z" fill="black"/>
<path d="M176.897 139.655H167.586V148.966H176.897V139.655Z" fill="black"/>
<path d="M186.207 139.655H176.897V148.966H186.207V139.655Z" fill="black"/>
<path d="M204.828 139.655H195.517V148.966H204.828V139.655Z" fill="black"/>
<path d="M214.138 139.655H204.828V148.966H214.138V139.655Z" fill="black"/>
<path d="M223.448 139.655H214.138V148.966H223.448V139.655Z" fill="black"/>
<path d="M232.759 139.655H223.448V148.966H232.759V139.655Z" fill="black"/>
<path d="M242.069 139.655H232.759V148.966H242.069V139.655Z" fill="black"/>
<path d="M251.379 139.655H242.069V148.966H251.379V139.655Z" fill="black"/>
<path d="M260.69 139.655H251.379V148.966H260.69V139.655Z" fill="black"/>
<path d="M18.6207 148.966H9.31035V158.276H18.6207V148.966Z" fill="black"/>
<path d="M37.2414 148.966H27.931V158.276H37.2414V148.966Z" fill="black"/>
<path d="M46.5517 148.966H37.2414V158.276H46.5517V148.966Z" fill="black"/>
<path d="M65.1724 148.966H55.8621V158.276H65.1724V148.966Z" fill="black"/>
<path d="M83.7931 148.966H74.4828V158.276H83.7931V148.966Z" fill="black"/>
<path d="M130.345 148.966H121.034V158.276H130.345V148.966Z" fill="black"/>
<path d="M148.966 148.966H139.655V158.276H148.966V148.966Z" fill="black"/>
<path d="M176.897 148.966H167.586V158.276H176.897V148.966Z" fill="black"/>
<path d="M186.207 148.966H176.897V158.276H186.207V148.966Z" fill="black"/>
<path d="M195.517 148.966H186.207V158.276H195.517V148.966Z" fill="black"/>
<path d="M223.448 148.966H214.138V158.276H223.448V148.966Z" fill="black"/>
<path d="M242.069 148.966H232.759V158.276H242.069V148.966Z" fill="black"/>
<path d="M18.6207 158.276H9.31035V167.586H18.6207V158.276Z" fill="black"/>
<path d="M37.2414 158.276H27.931V167.586H37.2414V158.276Z" fill="black"/>
<path d="M55.8621 158.276H46.5517V167.586H55.8621V158.276Z" fill="black"/>
<path d="M83.7931 158.276H74.4828V167.586H83.7931V158.276Z" fill="black"/>
<path d="M93.1035 158.276H83.7931V167.586H93.1035V158.276Z" fill="black"/>
<path d="M111.724 158.276H102.414V167.586H111.724V158.276Z" fill="black"/>
<path d="M130.345 158.276H121.034V167.586H130.345V158.276Z" fill="black"/>
<path d="M167.586 158.276H158.276V167.586H167.586V158.276Z" fill="black"/>
<path d="M176.897 158.276H167.586V167.586H176.897V158.276Z" fill="black"/>
<path d="M195.517 158.276H186.207V167.586H195.517V158.276Z" fill="black"/>
<path d="M204.828 158.276H195.517V167.586H204.828V158.276Z" fill="black"/>
<path d="M223.448 158.276H214.138V167.586H223.448V158.276Z" fill="black"/>
<path d="M9.31035 167.586H0V176.897H9.31035V167.586Z" fill="black"/>
<path d="M46.5517 167.586H37.2414V176.897H46.5517V167.586Z" fill="black"/>
<path d="M65.1724 167.586H55.8621V176.897H65.1724V167.586Z" fill="black"/>
<path d="M83.7931 167.586H74.4828V176.897H83.7931V167.586Z" fill="black"/>
<path d="M93.1035 167.586H83.7931V176.897H93.1035V167.586Z" fill="black"/>
<path d="M130.345 167.586H121.034V176.897H130.345V167.586Z" fill="black"/>
<path d="M167.586 167.586H158.276V176.897H167.586V167.586Z" fill="black"/>
<path d="M204.828 167.586H195.517V176.897H204.828V167.586Z" fill="black"/>
<path d="M223.448 167.586H214.138V176.897H223.448V167.586Z" fill="black"/>
<path d="M260.69 167.586H251.379V176.897H260.69V167.586Z" fill="black"/>
<path d="M18.6207 176.897H9.31035V186.207H18.6207V176.897Z" fill="black"/>
<path d="M46.5517 176.897H37.2414V186.207H46.5517V176.897Z" fill="black"/>
<path d="M93.1035 176.897H83.7931V186.207H93.1035V176.897Z" fill="black"/>
<path d="M111.724 176.897H102.414V186.207H111.724V176.897Z" fill="black"/>
<path d="M139.655 176.897H130.345V186.207H139.655V176.897Z" fill="black"/>
<path d="M148.966 176.897H139.655V186.207H148.966V176.897Z" fill="black"/>
<path d="M158.276 176.897H148.966V186.207H158.276V176.897Z" fill="black"/>
<path d="M167.586 176.897H158.276V186.207H167.586V176.897Z" fill="black"/>
<path d="M176.897 176.897H167.586V186.207H176.897V176.897Z" fill="black"/>
<path d="M214.138 176.897H204.828V186.207H214.138V176.897Z" fill="black"/>
<path d="M223.448 176.897H214.138V186.207H223.448V176.897Z" fill="black"/>
<path d="M232.759 176.897H223.448V186.207H232.759V176.897Z" fill="black"/>
<path d="M242.069 176.897H232.759V186.207H242.069V176.897Z" fill="black"/>
<path d="M251.379 176.897H242.069V186.207H251.379V176.897Z" fill="black"/>
<path d="M270 176.897H260.69V186.207H270V176.897Z" fill="black"/>
<path d="M37.2414 186.207H27.931V195.517H37.2414V186.207Z" fill="black"/>
<path d="M65.1724 186.207H55.8621V195.517H65.1724V186.207Z" fill="black"/>
<path d="M93.1035 186.207H83.7931V195.517H93.1035V186.207Z" fill="black"/>
<path d="M121.034 186.207H111.724V195.517H121.034V186.207Z" fill="black"/>
<path d="M139.655 186.207H130.345V195.517H139.655V186.207Z" fill="black"/>
<path d="M158.276 186.207H148.966V195.517H158.276V186.207Z" fill="black"/>
<path d="M167.586 186.207H158.276V195.517H167.586V186.207Z" fill="black"/>
<path d="M195.517 186.207H186.207V195.517H195.517V186.207Z" fill="black"/>
<path d="M204.828 186.207H195.517V195.517H204.828V186.207Z" fill="black"/>
<path d="M214.138 186.207H204.828V195.517H214.138V186.207Z" fill="black"/>
<path d="M223.448 186.207H214.138V195.517H223.448V186.207Z" fill="black"/>
<path d="M232.759 186.207H223.448V195.517H232.759V186.207Z" fill="black"/>
<path d="M270 186.207H260.69V195.517H270V186.207Z" fill="black"/>
<path d="M83.7931 195.517H74.4828V204.828H83.7931V195.517Z" fill="black"/>
<path d="M139.655 195.517H130.345V204.828H139.655V195.517Z" fill="black"/>
<path d="M148.966 195.517H139.655V204.828H148.966V195.517Z" fill="black"/>
<path d="M176.897 195.517H167.586V204.828H176.897V195.517Z" fill="black"/>
<path d="M186.207 195.517H176.897V204.828H186.207V195.517Z" fill="black"/>
<path d="M195.517 195.517H186.207V204.828H195.517V195.517Z" fill="black"/>
<path d="M232.759 195.517H223.448V204.828H232.759V195.517Z" fill="black"/>
<path d="M242.069 195.517H232.759V204.828H242.069V195.517Z" fill="black"/>
<path d="M251.379 195.517H242.069V204.828H251.379V195.517Z" fill="black"/>
<path d="M260.69 195.517H251.379V204.828H260.69V195.517Z" fill="black"/>
<path d="M9.31035 204.828H0V214.138H9.31035V204.828Z" fill="black"/>
<path d="M18.6207 204.828H9.31035V214.138H18.6207V204.828Z" fill="black"/>
<path d="M27.931 204.828H18.6207V214.138H27.931V204.828Z" fill="black"/>
<path d="M37.2414 204.828H27.931V214.138H37.2414V204.828Z" fill="black"/>
<path d="M46.5517 204.828H37.2414V214.138H46.5517V204.828Z" fill="black"/>
<path d="M55.8621 204.828H46.5517V214.138H55.8621V204.828Z" fill="black"/>
<path d="M65.1724 204.828H55.8621V214.138H65.1724V204.828Z" fill="black"/>
<path d="M121.034 204.828H111.724V214.138H121.034V204.828Z" fill="black"/>
<path d="M130.345 204.828H121.034V214.138H130.345V204.828Z" fill="black"/>
<path d="M139.655 204.828H130.345V214.138H139.655V204.828Z" fill="black"/>
<path d="M148.966 204.828H139.655V214.138H148.966V204.828Z" fill="black"/>
<path d="M176.897 204.828H167.586V214.138H176.897V204.828Z" fill="black"/>
<path d="M186.207 204.828H176.897V214.138H186.207V204.828Z" fill="black"/>
<path d="M195.517 204.828H186.207V214.138H195.517V204.828Z" fill="black"/>
<path d="M214.138 204.828H204.828V214.138H214.138V204.828Z" fill="black"/>
<path d="M232.759 204.828H223.448V214.138H232.759V204.828Z" fill="black"/>
<path d="M260.69 204.828H251.379V214.138H260.69V204.828Z" fill="black"/>
<path d="M9.31035 214.138H0V223.448H9.31035V214.138Z" fill="black"/>
<path d="M65.1724 214.138H55.8621V223.448H65.1724V214.138Z" fill="black"/>
<path d="M93.1035 214.138H83.7931V223.448H93.1035V214.138Z" fill="black"/>
<path d="M102.414 214.138H93.1035V223.448H102.414V214.138Z" fill="black"/>
<path d="M121.034 214.138H111.724V223.448H121.034V214.138Z" fill="black"/>
<path d="M139.655 214.138H130.345V223.448H139.655V214.138Z" fill="black"/>
<path d="M148.966 214.138H139.655V223.448H148.966V214.138Z" fill="black"/>
<path d="M186.207 214.138H176.897V223.448H186.207V214.138Z" fill="black"/>
<path d="M195.517 214.138H186.207V223.448H195.517V214.138Z" fill="black"/>
<path d="M232.759 214.138H223.448V223.448H232.759V214.138Z" fill="black"/>
<path d="M242.069 214.138H232.759V223.448H242.069V214.138Z" fill="black"/>
<path d="M251.379 214.138H242.069V223.448H251.379V214.138Z" fill="black"/>
<path d="M260.69 214.138H251.379V223.448H260.69V214.138Z" fill="black"/>
<path d="M9.31035 223.448H0V232.759H9.31035V223.448Z" fill="black"/>
<path d="M27.931 223.448H18.6207V232.759H27.931V223.448Z" fill="black"/>
<path d="M37.2414 223.448H27.931V232.759H37.2414V223.448Z" fill="black"/>
<path d="M46.5517 223.448H37.2414V232.759H46.5517V223.448Z" fill="black"/>
<path d="M65.1724 223.448H55.8621V232.759H65.1724V223.448Z" fill="black"/>
<path d="M83.7931 223.448H74.4828V232.759H83.7931V223.448Z" fill="black"/>
<path d="M93.1035 223.448H83.7931V232.759H93.1035V223.448Z" fill="black"/>
<path d="M130.345 223.448H121.034V232.759H130.345V223.448Z" fill="black"/>
<path d="M148.966 223.448H139.655V232.759H148.966V223.448Z" fill="black"/>
<path d="M167.586 223.448H158.276V232.759H167.586V223.448Z" fill="black"/>
<path d="M186.207 223.448H176.897V232.759H186.207V223.448Z" fill="black"/>
<path d="M195.517 223.448H186.207V232.759H195.517V223.448Z" fill="black"/>
<path d="M204.828 223.448H195.517V232.759H204.828V223.448Z" fill="black"/>
<path d="M214.138 223.448H204.828V232.759H214.138V223.448Z" fill="black"/>
<path d="M223.448 223.448H214.138V232.759H223.448V223.448Z" fill="black"/>
<path d="M232.759 223.448H223.448V232.759H232.759V223.448Z" fill="black"/>
<path d="M251.379 223.448H242.069V232.759H251.379V223.448Z" fill="black"/>
<path d="M270 223.448H260.69V232.759H270V223.448Z" fill="black"/>
<path d="M9.31035 232.759H0V242.069H9.31035V232.759Z" fill="black"/>
<path d="M27.931 232.759H18.6207V242.069H27.931V232.759Z" fill="black"/>
<path d="M37.2414 232.759H27.931V242.069H37.2414V232.759Z" fill="black"/>
<path d="M46.5517 232.759H37.2414V242.069H46.5517V232.759Z" fill="black"/>
<path d="M65.1724 232.759H55.8621V242.069H65.1724V232.759Z" fill="black"/>
<path d="M111.724 232.759H102.414V242.069H111.724V232.759Z" fill="black"/>
<path d="M130.345 232.759H121.034V242.069H130.345V232.759Z" fill="black"/>
<path d="M158.276 232.759H148.966V242.069H158.276V232.759Z" fill="black"/>
<path d="M176.897 232.759H167.586V242.069H176.897V232.759Z" fill="black"/>
<path d="M186.207 232.759H176.897V242.069H186.207V232.759Z" fill="black"/>
<path d="M195.517 232.759H186.207V242.069H195.517V232.759Z" fill="black"/>
<path d="M204.828 232.759H195.517V242.069H204.828V232.759Z" fill="black"/>
<path d="M214.138 232.759H204.828V242.069H214.138V232.759Z" fill="black"/>
<path d="M232.759 232.759H223.448V242.069H232.759V232.759Z" fill="black"/>
<path d="M260.69 232.759H251.379V242.069H260.69V232.759Z" fill="black"/>
<path d="M270 232.759H260.69V242.069H270V232.759Z" fill="black"/>
<path d="M9.31035 242.069H0V251.379H9.31035V242.069Z" fill="black"/>
<path d="M27.931 242.069H18.6207V251.379H27.931V242.069Z" fill="black"/>
<path d="M37.2414 242.069H27.931V251.379H37.2414V242.069Z" fill="black"/>
<path d="M46.5517 242.069H37.2414V251.379H46.5517V242.069Z" fill="black"/>
<path d="M65.1724 242.069H55.8621V251.379H65.1724V242.069Z" fill="black"/>
<path d="M83.7931 242.069H74.4828V251.379H83.7931V242.069Z" fill="black"/>
<path d="M93.1035 242.069H83.7931V251.379H93.1035V242.069Z" fill="black"/>
<path d="M102.414 242.069H93.1035V251.379H102.414V242.069Z" fill="black"/>
<path d="M130.345 242.069H121.034V251.379H130.345V242.069Z" fill="black"/>
<path d="M139.655 242.069H130.345V251.379H139.655V242.069Z" fill="black"/>
<path d="M148.966 242.069H139.655V251.379H148.966V242.069Z" fill="black"/>
<path d="M167.586 242.069H158.276V251.379H167.586V242.069Z" fill="black"/>
<path d="M186.207 242.069H176.897V251.379H186.207V242.069Z" fill="black"/>
<path d="M195.517 242.069H186.207V251.379H195.517V242.069Z" fill="black"/>
<path d="M251.379 242.069H242.069V251.379H251.379V242.069Z" fill="black"/>
<path d="M260.69 242.069H251.379V251.379H260.69V242.069Z" fill="black"/>
<path d="M9.31035 251.379H0V260.69H9.31035V251.379Z" fill="black"/>
<path d="M65.1724 251.379H55.8621V260.69H65.1724V251.379Z" fill="black"/>
<path d="M83.7931 251.379H74.4828V260.69H83.7931V251.379Z" fill="black"/>
<path d="M93.1035 251.379H83.7931V260.69H93.1035V251.379Z" fill="black"/>
<path d="M130.345 251.379H121.034V260.69H130.345V251.379Z" fill="black"/>
<path d="M167.586 251.379H158.276V260.69H167.586V251.379Z" fill="black"/>
<path d="M195.517 251.379H186.207V260.69H195.517V251.379Z" fill="black"/>
<path d="M251.379 251.379H242.069V260.69H251.379V251.379Z" fill="black"/>
<path d="M9.31035 260.69H0V270H9.31035V260.69Z" fill="black"/>
<path d="M18.6207 260.69H9.31035V270H18.6207V260.69Z" fill="black"/>
<path d="M27.931 260.69H18.6207V270H27.931V260.69Z" fill="black"/>
<path d="M37.2414 260.69H27.931V270H37.2414V260.69Z" fill="black"/>
<path d="M46.5517 260.69H37.2414V270H46.5517V260.69Z" fill="black"/>
<path d="M55.8621 260.69H46.5517V270H55.8621V260.69Z" fill="black"/>
<path d="M65.1724 260.69H55.8621V270H65.1724V260.69Z" fill="black"/>
<path d="M83.7931 260.69H74.4828V270H83.7931V260.69Z" fill="black"/>
<path d="M111.724 260.69H102.414V270H111.724V260.69Z" fill="black"/>
<path d="M121.034 260.69H111.724V270H121.034V260.69Z" fill="black"/>
<path d="M130.345 260.69H121.034V270H130.345V260.69Z" fill="black"/>
<path d="M139.655 260.69H130.345V270H139.655V260.69Z" fill="black"/>
<path d="M148.966 260.69H139.655V270H148.966V260.69Z" fill="black"/>
<path d="M176.897 260.69H167.586V270H176.897V260.69Z" fill="black"/>
<path d="M232.759 260.69H223.448V270H232.759V260.69Z" fill="black"/>
<path d="M242.069 260.69H232.759V270H242.069V260.69Z" fill="black"/>
<path d="M251.379 260.69H242.069V270H251.379V260.69Z" fill="black"/>
<path d="M260.69 260.69H251.379V270H260.69V260.69Z" fill="black"/>
</svg>
