<svg width="55" height="32" viewBox="0 0 55 32" fill="none" xmlns="http://www.w3.org/2000/svg">
<path d="M54.6139 0.823675L54.5996 0.841016C54.4371 1.03747 54.1212 0.973206 54.0484 0.728893V0.728893C53.9682 0.459664 53.6042 0.418304 53.4656 0.662673L53.4162 0.749779C53.3887 0.798381 53.3502 0.839931 53.3039 0.871167L53.0472 1.04426C52.9834 1.08724 52.9339 1.14907 52.9057 1.22055V1.22055C52.7991 1.48997 52.4367 1.54325 52.2545 1.318V1.318C52.2456 1.30696 52.2372 1.29497 52.23 1.28276V1.28276C52.1129 1.08544 51.8217 1.09031 51.7175 1.2947V1.2947C51.6381 1.45049 51.4402 1.50165 51.2953 1.40389L50.8209 1.08408C50.5835 0.923979 50.2768 0.908853 50.0248 1.04481V1.04481C49.9445 1.08808 49.8726 1.14525 49.8124 1.21366L49.3359 1.75479C49.2675 1.83242 49.1758 1.88575 49.0745 1.90676V1.90676C48.8895 1.94515 48.7445 2.08906 48.7047 2.27381L48.5464 3.00927C48.4885 3.27786 48.2788 3.4877 48.0102 3.54564V3.54564C47.7401 3.60393 47.5296 3.81587 47.4732 4.08642L47.2896 4.96651C47.2622 5.09782 47.1894 5.21528 47.084 5.29821V5.29821C46.9223 5.42543 46.7045 5.45564 46.5143 5.37725L46.1677 5.23446C45.7817 5.07539 45.5047 4.72876 45.4348 4.31711L45.2065 2.97386C45.1745 2.78584 45.0911 2.61037 44.9654 2.46695L44.9512 2.45081C44.788 2.26455 44.5601 2.14725 44.3137 2.12264V2.12264C43.9603 2.08733 43.6155 2.24665 43.4134 2.53871L43.2451 2.78182L42.4542 4.34063C42.3745 4.49772 42.2133 4.59669 42.0372 4.59669V4.59669C41.7832 4.59669 41.5757 4.79932 41.5696 5.05318L41.4608 9.60123C41.4465 10.1992 41.2532 10.7792 40.9059 11.2663L40.624 11.6618C40.5774 11.727 40.5445 11.801 40.5271 11.8792L40.2129 13.2914C40.1863 13.4112 40.022 13.427 39.9729 13.3146V13.3146C39.9204 13.1942 39.742 13.2233 39.7305 13.3541L39.5197 15.7343C39.5014 15.9411 39.3966 16.1306 39.2312 16.2561L39.1192 16.341C38.9934 16.4365 38.9057 16.5736 38.8718 16.7278L38.7232 17.404C38.6854 17.5759 38.4798 17.648 38.3429 17.5372V17.5372C38.3063 17.5076 38.2795 17.4681 38.2656 17.4231C37.9999 16.5609 37.5076 14.9817 37.5076 15.0561C37.5076 15.1176 37.1401 15.6789 36.849 16.1113C36.734 16.2821 36.5258 16.3637 36.325 16.3186L36.3011 16.3132C36.2558 16.303 36.2129 16.2845 36.1744 16.2586V16.2586C35.9427 16.1024 35.6278 16.2473 35.5958 16.525L35.5293 17.1029C35.4355 17.9185 34.2726 17.9763 34.0983 17.174L34.0138 16.7849C34.0055 16.7469 33.993 16.7099 33.9763 16.6747L33.8867 16.4847C33.7358 16.1649 33.2799 16.1671 33.132 16.4884V16.4884C33.0071 16.7599 32.6452 16.8151 32.4449 16.5933L32.3186 16.4534C32.0899 16.2001 31.6865 16.2195 31.4832 16.4936L31.1933 16.8846C31.1068 17.0013 31.0485 17.1364 31.0231 17.2794L30.9755 17.5469C30.8937 18.0064 30.6608 18.4254 30.3137 18.7375L29.9419 19.0717C29.8409 19.1625 29.7705 19.2822 29.7401 19.4145L29.48 20.5477C29.4285 20.772 29.124 20.8078 29.022 20.6014V20.6014C28.9253 20.4058 28.6403 20.425 28.5706 20.6317L28.54 20.7226C28.4491 20.9921 28.0626 20.9761 27.9944 20.7L27.8217 20.0014C27.7876 19.8634 27.6957 19.7468 27.5694 19.6813L27.5386 19.6653C27.3919 19.5892 27.2853 19.4532 27.2465 19.2925L26.9451 18.0439C26.8979 17.8487 26.6353 17.8138 26.5388 17.9899V17.9899C26.4361 18.1772 26.1534 18.1226 26.1279 17.9105L25.8597 15.6801C25.8303 15.4354 25.5271 15.3382 25.361 15.5203V15.5203C25.276 15.6135 25.1402 15.6404 25.026 15.5869L24.7501 15.4575C24.534 15.3561 24.3843 15.1519 24.3526 14.9154L23.8722 11.3308L23.4117 8.99059L23.2388 7.43615C23.2163 7.2335 23.045 7.0802 22.8411 7.0802V7.0802C22.6406 7.0802 22.471 7.22857 22.4444 7.42729L22.0305 10.5189L21.8876 20.6161C21.8815 21.0481 21.273 21.1347 21.1467 20.7216L21.1333 20.6779C21.0202 20.3081 20.4862 20.341 20.4193 20.7219V20.7219C20.3884 20.8978 20.2357 21.026 20.0571 21.026H20.0104C19.9644 21.026 19.9187 21.0186 19.8751 21.0039L19.7128 20.9491C19.4978 20.8766 19.3248 20.7144 19.2386 20.5045V20.5045C18.965 19.8374 18.0114 19.8637 17.7749 20.5449L17.6951 20.7748C17.6812 20.8149 17.6708 20.856 17.664 20.8979L17.5949 21.3205C17.4915 21.9536 16.6152 22.0385 16.3922 21.437L16.2867 21.1523C16.1997 20.9177 15.916 20.8265 15.7086 20.9663V20.9663C15.6507 21.0054 15.6044 21.0595 15.5748 21.1228L15.376 21.5472C15.2566 21.8021 15.1902 22.0785 15.1807 22.3598L15.0016 27.6732C14.9907 27.9967 14.7427 28.2626 14.4207 28.2961V28.2961C14.1975 28.3192 14.0022 28.4561 13.9043 28.658L13.4596 29.575V29.575C13.1775 30.1426 12.3881 30.195 12.0335 29.6697L11.5826 29.0019V29.0019C11.2161 28.2798 10.1741 28.3112 9.8519 29.0541L9.59397 29.6488C9.57395 29.6949 9.54767 29.7381 9.51587 29.7771L9.38182 29.9414C9.26671 30.0825 9.05958 30.105 8.9169 29.9918V29.9918C8.74392 29.8546 8.48772 29.9207 8.40271 30.1245L8.16159 30.7025C7.88018 31.3771 6.91855 31.3597 6.66167 30.6754L6.55338 30.387L4.92211 27.2244C4.61912 26.637 3.90063 26.4017 3.30887 26.6961V26.6961C2.74971 26.9743 2.0707 26.7809 1.74206 26.2498L0.42628 24.1236" stroke="#82CB55"/>
</svg>
