<svg width="22" height="22" viewBox="0 0 22 22" fill="none" xmlns="http://www.w3.org/2000/svg">
<g clip-path="url(#clip0_2205_11428)">
<path d="M19.0359 13.5342C18.2996 13.1304 17.4985 12.9434 16.7095 12.9496L16.7162 12.9458C15.6337 12.9582 14.7458 12.1164 14.7331 11.0657C14.7206 10.0291 15.564 9.17721 16.6253 9.1418V9.14131L16.6234 9.14034C17.4262 9.13646 18.2385 8.93225 18.9785 8.50521C21.1913 7.22805 21.9188 4.45138 20.6034 2.30325C19.2876 0.15503 16.4273 -0.551118 14.2145 0.72604C12.0016 2.0031 11.2742 4.77986 12.5898 6.92799C13.1377 7.82312 12.8349 8.97998 11.9129 9.51219C11.004 10.0367 9.83361 9.75801 9.27531 8.89296L9.27482 8.89316V8.89558C8.87252 8.22125 8.28637 7.6387 7.53705 7.22776C5.29579 5.99843 2.452 6.76559 1.1857 8.94166C-0.0805895 11.1172 0.710055 13.8778 2.95141 15.107C5.19286 16.3364 8.03628 15.5691 9.30267 13.3931C9.31033 13.38 9.31712 13.3665 9.32459 13.3533V13.3565L9.32508 13.3567C9.863 12.4783 11.0281 12.174 11.9489 12.679C12.883 13.1914 13.2121 14.3414 12.6846 15.2479C11.4181 17.424 12.2088 20.1843 14.4501 21.4135C16.6915 22.6429 19.5352 21.8755 20.8015 19.6996C22.0676 17.5238 21.2772 14.7635 19.0359 13.5342Z" fill="white"/>
</g>
<defs>
<clipPath id="clip0_2205_11428">
<rect width="22" height="22" fill="white"/>
</clipPath>
</defs>
</svg>
