<svg width="165" height="141" viewBox="0 0 165 141" fill="none" xmlns="http://www.w3.org/2000/svg">
<path d="M150.517 20.7631L115.665 1.04191C113.716 -0.0611852 111.394 -0.299958 109.261 0.383246L6.06555 33.4355L4.45878 34.2673L37.8245 29.8608L150.517 20.7631Z" fill="#595959"/>
<rect x="8.37111" y="34.8705" width="132.424" height="84.27" rx="4" transform="rotate(-12 8.37111 34.8705)" fill="#363537"/>
<path d="M9.20587 38.7977C8.74484 36.6288 10.1294 34.4967 12.2984 34.0357L98.5026 15.7124C100.927 15.197 103.235 16.9805 103.348 19.457L106.864 96.653C106.953 98.6155 105.609 100.354 103.688 100.763L29.8191 116.464C27.6501 116.925 25.5181 115.541 25.0571 113.372L9.20587 38.7977Z" fill="#61FF98"/>
<path d="M0.0795029 42.4165L12.9234 133.805C13.5406 138.197 17.6011 141.257 21.9928 140.64L158.087 121.513C162.479 120.896 165.539 116.835 164.921 112.444L152.077 21.0546C151.46 16.6629 147.4 13.6031 143.008 14.2203L6.91378 33.3471C2.5221 33.9643 -0.537708 38.0248 0.0795029 42.4165Z" fill="#737373"/>
<path d="M130.547 63.4386L157.218 59.6902L159.941 79.0624L133.27 82.8109C132.996 82.8493 132.733 82.9438 132.498 83.0884L124.849 87.7879C123.827 88.4161 122.577 88.554 121.442 88.1639L111.848 84.8656C111.134 84.6201 110.618 83.9945 110.512 83.2466L108.743 70.6552C108.647 69.9754 108.906 69.2939 109.428 68.8484L117.63 61.8529C118.646 60.9863 120.026 60.6816 121.313 61.0399L129.729 63.3845C129.995 63.4586 130.273 63.477 130.547 63.4386Z" fill="#595959"/>
</svg>
