<svg width="80" height="80" viewBox="0 0 80 80" fill="none" xmlns="http://www.w3.org/2000/svg">
<path d="M56.25 62.5C61.0825 62.5 65 58.5825 65 53.75C65 48.9175 61.0825 45 56.25 45C51.4175 45 47.5 48.9175 47.5 53.75C47.5 58.5825 51.4175 62.5 56.25 62.5Z" stroke="white" stroke-width="3" stroke-linecap="round" stroke-linejoin="round"/>
<path d="M16.25 72.5C21.0825 72.5 25 68.5825 25 63.75C25 58.9175 21.0825 55 16.25 55C11.4175 55 7.5 58.9175 7.5 63.75C7.5 68.5825 11.4175 72.5 16.25 72.5Z" stroke="white" stroke-width="3" stroke-linecap="round" stroke-linejoin="round"/>
<path d="M65 25L25 35" stroke="white" stroke-width="3" stroke-linecap="round" stroke-linejoin="round"/>
<path d="M25 63.75V20L65 10V53.75" stroke="white" stroke-width="3" stroke-linecap="round" stroke-linejoin="round"/>
</svg>
