<svg width="67" height="27" viewBox="0 0 67 27" fill="none" xmlns="http://www.w3.org/2000/svg">
<path d="M0.501476 8.38602L5.83576 0.922485C6.37112 0.173434 7.54835 0.481133 7.64871 1.39634L9.33844 16.8055C9.39421 17.3141 9.82382 17.6992 10.3354 17.6992H15.0963C15.6155 17.6992 16.0489 17.3029 16.0952 16.7857L16.5773 11.4085C16.6831 10.2274 18.3901 10.1753 18.5678 11.3476L20.05 21.1211C20.2234 22.265 21.8756 22.2548 22.035 21.1089L23.0099 14.0976C23.1732 12.9236 24.8799 12.9541 25.001 14.1333L26.164 25.4511C26.2798 26.5785 27.8838 26.6786 28.1389 25.5743L29.1117 21.3628C29.1297 21.2848 29.157 21.2091 29.193 21.1376L31.8664 15.8271C32.2853 14.9949 33.5138 15.1339 33.7362 16.0387L35.2543 22.2154C35.3455 22.5864 35.6395 22.8734 36.0126 22.9555L38.5177 23.507C38.8121 23.5718 39.12 23.5008 39.3562 23.3135L41.7032 21.4536C41.8737 21.3184 41.9957 21.1314 42.0506 20.9209L44.197 12.6992C44.4397 11.7698 45.7241 11.6802 46.0933 12.567L47.6141 16.2191C47.8988 16.903 48.8013 17.0528 49.2917 16.4976L50.0191 15.674C50.2095 15.4585 50.4832 15.3351 50.7708 15.3351H54.5569C54.8896 15.3351 55.1991 15.5057 55.3766 15.7871V15.7871C55.8312 16.5077 56.9276 16.3332 57.1361 15.5071L57.8833 12.5464C57.9957 12.101 58.3963 11.7889 58.8557 11.7889H59.6967C60.1481 11.7889 60.5439 11.4874 60.6637 11.0522L62.4609 4.5243C62.6474 3.84683 63.4547 3.5662 64.0212 3.98191L65.2188 4.86075C65.4204 5.00863 65.5594 5.22644 65.6087 5.47148L66.498 9.89045" stroke="#48D49E" stroke-linecap="round"/>
</svg>
