<svg width="24" height="24" viewBox="0 0 24 24" fill="none" xmlns="http://www.w3.org/2000/svg">
<path d="M9 14.625C9.62132 14.625 10.125 14.1213 10.125 13.5C10.125 12.8787 9.62132 12.375 9 12.375C8.37868 12.375 7.875 12.8787 7.875 13.5C7.875 14.1213 8.37868 14.625 9 14.625Z" fill="#858584"/>
<path d="M15 14.625C15.6213 14.625 16.125 14.1213 16.125 13.5C16.125 12.8787 15.6213 12.375 15 12.375C14.3787 12.375 13.875 12.8787 13.875 13.5C13.875 14.1213 14.3787 14.625 15 14.625Z" fill="#858584"/>
<path fill-rule="evenodd" clip-rule="evenodd" d="M11.9943 7.49945C10.3684 7.48743 8.7506 7.72889 7.19911 8.21515C6.80385 8.33902 6.38301 8.11903 6.25914 7.72377C6.13526 7.32852 6.35525 6.90767 6.75051 6.7838C8.44897 6.25148 10.22 5.98687 11.9998 5.99945C13.7797 5.98687 15.5506 6.25148 17.2491 6.7838C17.6444 6.90767 17.8644 7.32852 17.7405 7.72377C17.6166 8.11903 17.1958 8.33902 16.8005 8.21515C15.249 7.72889 13.6312 7.48743 12.0054 7.49945H11.9943Z" fill="#858584"/>
<path fill-rule="evenodd" clip-rule="evenodd" d="M6.25914 16.2759C6.38301 15.8806 6.80385 15.6606 7.19911 15.7845C8.7506 16.2708 10.3684 16.5122 11.9943 16.5002H12.0054C13.6312 16.5122 15.249 16.2708 16.8005 15.7845C17.1958 15.6606 17.6166 15.8806 17.7405 16.2759C17.8644 16.6712 17.6444 17.092 17.2491 17.2159C15.5506 17.7482 13.7797 18.0128 11.9998 18.0002C10.22 18.0128 8.44897 17.7482 6.75051 17.2159C6.35525 17.092 6.13526 16.6712 6.25914 16.2759Z" fill="#858584"/>
<path fill-rule="evenodd" clip-rule="evenodd" d="M15.1656 3.60865C15.4884 3.42663 15.8669 3.36975 16.229 3.44883C17.2171 3.66299 18.1846 3.96342 19.1202 4.34667C19.3308 4.42788 19.52 4.55646 19.6731 4.72253C19.8277 4.89038 19.9412 5.09189 20.0046 5.31111L23.1815 15.9194C23.2644 16.1958 23.2663 16.4901 23.187 16.7675C23.1077 17.0449 22.9506 17.2938 22.7343 17.4847L22.7304 17.4881C21.1798 18.8373 19.0788 19.8585 16.6923 20.4435C16.3608 20.528 16.0103 20.4951 15.7002 20.3504C15.3913 20.2063 15.1417 19.9601 14.9933 19.6536L13.8621 17.4099C13.6757 17.04 13.8243 16.589 14.1942 16.4026C14.5641 16.2161 15.0151 16.3648 15.2015 16.7346L16.3359 18.9846L16.3367 18.9863C18.5402 18.4459 20.4108 17.5181 21.7458 16.3565L22.2381 16.9223L21.7419 16.3599C21.7433 16.3587 21.7442 16.3571 21.7447 16.3554C21.7452 16.3537 21.7452 16.3519 21.7447 16.3501L18.5676 5.74123C18.565 5.74018 18.5623 5.73911 18.5597 5.73802C17.7025 5.38636 16.816 5.11083 15.9105 4.91464L15.9089 4.91428C15.9066 4.91379 15.9043 4.91414 15.9023 4.91527C15.9005 4.91629 15.8991 4.91788 15.8983 4.91977L15.1596 7.15453C15.0296 7.54781 14.6054 7.76125 14.2121 7.63125C13.8188 7.50126 13.6054 7.07705 13.7354 6.68376L14.4781 4.43662C14.5978 4.08555 14.8425 3.79082 15.1656 3.60865Z" fill="#858584"/>
<path fill-rule="evenodd" clip-rule="evenodd" d="M8.09865 4.91527C8.09665 4.91414 8.09429 4.91379 8.09204 4.91428L8.09041 4.91464C7.18491 5.11083 6.29844 5.38636 5.44126 5.73802C5.43862 5.73911 5.43596 5.74018 5.43331 5.74123L2.25632 16.3499C2.2558 16.3517 2.25573 16.3537 2.25622 16.3554C2.25666 16.357 2.2575 16.3584 2.25864 16.3595C3.59341 17.5197 5.4627 18.4464 7.66421 18.9863L7.66502 18.9846L8.79939 16.7346C8.98587 16.3648 9.43687 16.2161 9.80674 16.4026C10.1766 16.589 10.3253 17.04 10.1388 17.4099L9.00761 19.6536C8.8592 19.9602 8.60961 20.2063 8.30078 20.3504C7.99068 20.4951 7.6401 20.528 7.30861 20.4435C4.92216 19.8585 2.82113 18.8373 1.27053 17.4881L1.26664 17.4847C1.05029 17.2938 0.893196 17.0449 0.813934 16.7675C0.734693 16.4902 0.73658 16.1959 0.819369 15.9196C0.819391 15.9195 0.819348 15.9197 0.819369 15.9196L3.99629 5.31112C4.05969 5.0919 4.1732 4.89038 4.32789 4.72253C4.48093 4.55646 4.67009 4.42788 4.8807 4.34667C5.81659 3.96331 6.78433 3.66282 7.77278 3.44865C8.13459 3.36983 8.51277 3.42677 8.83537 3.60865C9.15844 3.79081 9.40314 4.08555 9.52276 4.43663L9.52498 4.44313L10.2656 6.68376C10.3956 7.07705 10.1821 7.50125 9.78885 7.63125C9.39557 7.76125 8.97136 7.54781 8.84136 7.15453L8.10268 4.91977C8.10187 4.91787 8.10046 4.91629 8.09865 4.91527Z" fill="#858584"/>
<path d="M9 14.625C9.62132 14.625 10.125 14.1213 10.125 13.5C10.125 12.8787 9.62132 12.375 9 12.375C8.37868 12.375 7.875 12.8787 7.875 13.5C7.875 14.1213 8.37868 14.625 9 14.625Z" fill="#858584"/>
<path d="M15 14.625C15.6213 14.625 16.125 14.1213 16.125 13.5C16.125 12.8787 15.6213 12.375 15 12.375C14.3787 12.375 13.875 12.8787 13.875 13.5C13.875 14.1213 14.3787 14.625 15 14.625Z" fill="#858584"/>
<path fill-rule="evenodd" clip-rule="evenodd" d="M11.9943 7.49945C10.3684 7.48743 8.7506 7.72889 7.19911 8.21515C6.80385 8.33902 6.38301 8.11903 6.25914 7.72377C6.13526 7.32852 6.35525 6.90767 6.75051 6.7838C8.44897 6.25148 10.22 5.98687 11.9998 5.99945C13.7797 5.98687 15.5506 6.25148 17.2491 6.7838C17.6444 6.90767 17.8644 7.32852 17.7405 7.72377C17.6166 8.11903 17.1958 8.33902 16.8005 8.21515C15.249 7.72889 13.6312 7.48743 12.0054 7.49945H11.9943Z" fill="#858584"/>
<path fill-rule="evenodd" clip-rule="evenodd" d="M6.25914 16.2759C6.38301 15.8806 6.80385 15.6606 7.19911 15.7845C8.7506 16.2708 10.3684 16.5122 11.9943 16.5002H12.0054C13.6312 16.5122 15.249 16.2708 16.8005 15.7845C17.1958 15.6606 17.6166 15.8806 17.7405 16.2759C17.8644 16.6712 17.6444 17.092 17.2491 17.2159C15.5506 17.7482 13.7797 18.0128 11.9998 18.0002C10.22 18.0128 8.44897 17.7482 6.75051 17.2159C6.35525 17.092 6.13526 16.6712 6.25914 16.2759Z" fill="#858584"/>
<path fill-rule="evenodd" clip-rule="evenodd" d="M15.1656 3.60865C15.4884 3.42663 15.8669 3.36975 16.229 3.44883C17.2171 3.66299 18.1846 3.96342 19.1202 4.34667C19.3308 4.42788 19.52 4.55646 19.6731 4.72253C19.8277 4.89038 19.9412 5.09189 20.0046 5.31111L23.1815 15.9194C23.2644 16.1958 23.2663 16.4901 23.187 16.7675C23.1077 17.0449 22.9506 17.2938 22.7343 17.4847L22.7304 17.4881C21.1798 18.8373 19.0788 19.8585 16.6923 20.4435C16.3608 20.528 16.0103 20.4951 15.7002 20.3504C15.3913 20.2063 15.1417 19.9601 14.9933 19.6536L13.8621 17.4099C13.6757 17.04 13.8243 16.589 14.1942 16.4026C14.5641 16.2161 15.0151 16.3648 15.2015 16.7346L16.3359 18.9846L16.3367 18.9863C18.5402 18.4459 20.4108 17.5181 21.7458 16.3565L22.2381 16.9223L21.7419 16.3599C21.7433 16.3587 21.7442 16.3571 21.7447 16.3554C21.7452 16.3537 21.7452 16.3519 21.7447 16.3501L18.5676 5.74123C18.565 5.74018 18.5623 5.73911 18.5597 5.73802C17.7025 5.38636 16.816 5.11083 15.9105 4.91464L15.9089 4.91428C15.9066 4.91379 15.9043 4.91414 15.9023 4.91527C15.9005 4.91629 15.8991 4.91788 15.8983 4.91977L15.1596 7.15453C15.0296 7.54781 14.6054 7.76125 14.2121 7.63125C13.8188 7.50126 13.6054 7.07705 13.7354 6.68376L14.4781 4.43662C14.5978 4.08555 14.8425 3.79082 15.1656 3.60865Z" fill="#858584"/>
<path fill-rule="evenodd" clip-rule="evenodd" d="M8.09865 4.91527C8.09665 4.91414 8.09429 4.91379 8.09204 4.91428L8.09041 4.91464C7.18491 5.11083 6.29844 5.38636 5.44126 5.73802C5.43862 5.73911 5.43596 5.74018 5.43331 5.74123L2.25632 16.3499C2.2558 16.3517 2.25573 16.3537 2.25622 16.3554C2.25666 16.357 2.2575 16.3584 2.25864 16.3595C3.59341 17.5197 5.4627 18.4464 7.66421 18.9863L7.66502 18.9846L8.79939 16.7346C8.98587 16.3648 9.43687 16.2161 9.80674 16.4026C10.1766 16.589 10.3253 17.04 10.1388 17.4099L9.00761 19.6536C8.8592 19.9602 8.60961 20.2063 8.30078 20.3504C7.99068 20.4951 7.6401 20.528 7.30861 20.4435C4.92216 19.8585 2.82113 18.8373 1.27053 17.4881L1.26664 17.4847C1.05029 17.2938 0.893196 17.0449 0.813934 16.7675C0.734693 16.4902 0.73658 16.1959 0.819369 15.9196C0.819391 15.9195 0.819348 15.9197 0.819369 15.9196L3.99629 5.31112C4.05969 5.0919 4.1732 4.89038 4.32789 4.72253C4.48093 4.55646 4.67009 4.42788 4.8807 4.34667C5.81659 3.96331 6.78433 3.66282 7.77278 3.44865C8.13459 3.36983 8.51277 3.42677 8.83537 3.60865C9.15844 3.79081 9.40314 4.08555 9.52276 4.43663L9.52498 4.44313L10.2656 6.68376C10.3956 7.07705 10.1821 7.50125 9.78885 7.63125C9.39557 7.76125 8.97136 7.54781 8.84136 7.15453L8.10268 4.91977C8.10187 4.91787 8.10046 4.91629 8.09865 4.91527Z" fill="#858584"/>
</svg>
