<svg width="44" height="44" viewBox="0 0 44 44" fill="none" xmlns="http://www.w3.org/2000/svg">
<path d="M29.5 16.5H26.5V15.5C26.5 14.7044 26.1839 13.9413 25.6213 13.3787C25.0587 12.8161 24.2956 12.5 23.5 12.5H21.5C20.7044 12.5 19.9413 12.8161 19.3787 13.3787C18.8161 13.9413 18.5 14.7044 18.5 15.5V16.5H15.5C14.7044 16.5 13.9413 16.8161 13.3787 17.3787C12.8161 17.9413 12.5 18.7044 12.5 19.5V28.5C12.5 29.2956 12.8161 30.0587 13.3787 30.6213C13.9413 31.1839 14.7044 31.5 15.5 31.5H29.5C30.2956 31.5 31.0587 31.1839 31.6213 30.6213C32.1839 30.0587 32.5 29.2956 32.5 28.5V19.5C32.5 18.7044 32.1839 17.9413 31.6213 17.3787C31.0587 16.8161 30.2956 16.5 29.5 16.5ZM20.5 15.5C20.5 15.2348 20.6054 14.9804 20.7929 14.7929C20.9804 14.6054 21.2348 14.5 21.5 14.5H23.5C23.7652 14.5 24.0196 14.6054 24.2071 14.7929C24.3946 14.9804 24.5 15.2348 24.5 15.5V16.5H20.5V15.5ZM30.5 28.5C30.5 28.7652 30.3946 29.0196 30.2071 29.2071C30.0196 29.3946 29.7652 29.5 29.5 29.5H15.5C15.2348 29.5 14.9804 29.3946 14.7929 29.2071C14.6054 29.0196 14.5 28.7652 14.5 28.5V23C15.4754 23.3869 16.4782 23.7011 17.5 23.94V24.53C17.5 24.7952 17.6054 25.0496 17.7929 25.2371C17.9804 25.4246 18.2348 25.53 18.5 25.53C18.7652 25.53 19.0196 25.4246 19.2071 25.2371C19.3946 25.0496 19.5 24.7952 19.5 24.53V24.32C20.4943 24.4554 21.4965 24.5255 22.5 24.53C23.5035 24.5255 24.5057 24.4554 25.5 24.32V24.53C25.5 24.7952 25.6054 25.0496 25.7929 25.2371C25.9804 25.4246 26.2348 25.53 26.5 25.53C26.7652 25.53 27.0196 25.4246 27.2071 25.2371C27.3946 25.0496 27.5 24.7952 27.5 24.53V23.94C28.5218 23.7011 29.5246 23.3869 30.5 23V28.5ZM30.5 20.81C29.5274 21.2205 28.5244 21.5548 27.5 21.81V21.5C27.5 21.2348 27.3946 20.9804 27.2071 20.7929C27.0196 20.6054 26.7652 20.5 26.5 20.5C26.2348 20.5 25.9804 20.6054 25.7929 20.7929C25.6054 20.9804 25.5 21.2348 25.5 21.5V22.24C23.5113 22.54 21.4887 22.54 19.5 22.24V21.5C19.5 21.2348 19.3946 20.9804 19.2071 20.7929C19.0196 20.6054 18.7652 20.5 18.5 20.5C18.2348 20.5 17.9804 20.6054 17.7929 20.7929C17.6054 20.9804 17.5 21.2348 17.5 21.5V21.83C16.4756 21.5748 15.4726 21.2405 14.5 20.83V19.5C14.5 19.2348 14.6054 18.9804 14.7929 18.7929C14.9804 18.6054 15.2348 18.5 15.5 18.5H29.5C29.7652 18.5 30.0196 18.6054 30.2071 18.7929C30.3946 18.9804 30.5 19.2348 30.5 19.5V20.81Z" fill="#DCF98C"/>
</svg>
