<svg width="16" height="16" viewBox="0 0 16 16" fill="none" xmlns="http://www.w3.org/2000/svg">
<g clip-path="url(#clip0_2301_12180)">
<path d="M14.2221 5.8749V13.3327H1.77767V3.5549H3.11101V2.66602H1.66656C1.56267 2.66775 1.46013 2.68994 1.36482 2.73131C1.2695 2.77268 1.18326 2.83242 1.11104 2.90712C1.03881 2.98183 0.982007 3.07002 0.943873 3.16668C0.905739 3.26334 0.88702 3.36657 0.888786 3.47046V13.4171C0.88702 13.521 0.905739 13.6242 0.943873 13.7209C0.982007 13.8176 1.03881 13.9058 1.11104 13.9805C1.18326 14.0552 1.2695 14.1149 1.36482 14.1563C1.46013 14.1976 1.56267 14.2198 1.66656 14.2216H14.3332C14.4371 14.2198 14.5397 14.1976 14.635 14.1563C14.7303 14.1149 14.8165 14.0552 14.8888 13.9805C14.961 13.9058 15.0178 13.8176 15.0559 13.7209C15.0941 13.6242 15.1128 13.521 15.111 13.4171V5.48379C14.8355 5.65714 14.536 5.78893 14.2221 5.8749Z" fill="black"/>
<path d="M3.55566 6.22266H4.44455V7.11155H3.55566V6.22266Z" fill="black"/>
<path d="M6.22266 6.22266H7.11155V7.11155H6.22266V6.22266Z" fill="black"/>
<path d="M8.88867 6.22266H9.77756V7.11155H8.88867V6.22266Z" fill="black"/>
<path d="M11.5557 6.22266H12.4446V7.11155H11.5557V6.22266Z" fill="black"/>
<path d="M3.55566 8.44531H4.44455V9.3342H3.55566V8.44531Z" fill="black"/>
<path d="M6.22266 8.44531H7.11155V9.3342H6.22266V8.44531Z" fill="black"/>
<path d="M8.88867 8.44531H9.77756V9.3342H8.88867V8.44531Z" fill="black"/>
<path d="M11.5557 8.44531H12.4446V9.3342H11.5557V8.44531Z" fill="black"/>
<path d="M3.55566 10.666H4.44455V11.5549H3.55566V10.666Z" fill="black"/>
<path d="M6.22266 10.666H7.11155V11.5549H6.22266V10.666Z" fill="black"/>
<path d="M8.88867 10.666H9.77756V11.5549H8.88867V10.666Z" fill="black"/>
<path d="M11.5557 10.666H12.4446V11.5549H11.5557V10.666Z" fill="black"/>
<path d="M4.44444 4.44423C4.56232 4.44423 4.67536 4.3974 4.75871 4.31405C4.84206 4.2307 4.88889 4.11766 4.88889 3.99978V1.33312C4.88889 1.21524 4.84206 1.1022 4.75871 1.01885C4.67536 0.935497 4.56232 0.888672 4.44444 0.888672C4.32657 0.888672 4.21352 0.935497 4.13017 1.01885C4.04683 1.1022 4 1.21524 4 1.33312V3.99978C4 4.11766 4.04683 4.2307 4.13017 4.31405C4.21352 4.3974 4.32657 4.44423 4.44444 4.44423Z" fill="black"/>
<path d="M9.99957 2.66602H5.77734V3.5549H10.124C10.0426 3.26558 10.0007 2.96657 9.99957 2.66602Z" fill="black"/>
<path d="M13.3336 4.88976C14.5609 4.88976 15.5558 3.89483 15.5558 2.66753C15.5558 1.44024 14.5609 0.445312 13.3336 0.445312C12.1063 0.445312 11.1113 1.44024 11.1113 2.66753C11.1113 3.89483 12.1063 4.88976 13.3336 4.88976Z" fill="black"/>
</g>
<defs>
<clipPath id="clip0_2301_12180">
<rect width="16" height="16" fill="white"/>
</clipPath>
</defs>
</svg>
