<svg width="150" height="15" viewBox="0 0 150 15" fill="none" xmlns="http://www.w3.org/2000/svg">
<path d="M5.62648 10.4917H5.92436V0H8.10876V11.5839H3.83925L2.48227 1.0922H2.1844V11.5839H0V0H4.26951L5.62648 10.4917Z" fill="white"/>
<path d="M10.5795 0H17.9932V2.08511H12.7639V4.73287H17.894V6.81798H12.7639V11.5839H10.5795V0Z" fill="white"/>
<path d="M20.1496 0H28.49V2.08511H25.412V11.5839H23.2276V2.08511H20.1496V0Z" fill="white"/>
<path d="M39.8855 0H43.7247L44.3866 8.7045V10.3924H44.7838V8.7045L45.4458 0H49.285V11.5839H47.2992V3.83925L47.4978 1.19149H47.1006L46.2401 11.5839H42.9635L42.0699 1.19149H41.6727L41.8713 3.83925V11.5839H39.8855V0Z" fill="white"/>
<path d="M56.257 10.3924C56.0363 10.911 55.7274 11.2805 55.3302 11.5012C54.9331 11.7108 54.4697 11.8156 53.9402 11.8156C53.4437 11.8156 52.9748 11.7218 52.5335 11.5343C52.1033 11.3467 51.7227 11.0709 51.3917 10.7069C51.0607 10.3428 50.796 9.90151 50.5974 9.38299C50.4098 8.86447 50.316 8.27424 50.316 7.6123V7.34753C50.316 6.69662 50.4098 6.11191 50.5974 5.59339C50.7849 5.07487 51.0387 4.63358 51.3586 4.26951C51.6785 3.90544 52.0481 3.62963 52.4673 3.44209C52.8976 3.2435 53.3555 3.14421 53.8409 3.14421C54.4256 3.14421 54.8945 3.2435 55.2475 3.44209C55.6116 3.64067 55.8984 3.94957 56.108 4.3688H56.4059V3.37589H58.491V9.10167C58.491 9.43264 58.6399 9.59812 58.9378 9.59812H59.2522V11.5839H57.8291C57.454 11.5839 57.1451 11.4736 56.9023 11.253C56.6707 11.0323 56.5548 10.7455 56.5548 10.3924H56.257ZM54.4035 9.8298C55.0103 9.8298 55.4957 9.63122 55.8598 9.23405C56.2239 8.82586 56.4059 8.27424 56.4059 7.57921V7.38062C56.4059 6.68559 56.2239 6.13949 55.8598 5.74232C55.4957 5.33413 55.0103 5.13003 54.4035 5.13003C53.7967 5.13003 53.3113 5.33413 52.9473 5.74232C52.5832 6.13949 52.4012 6.68559 52.4012 7.38062V7.57921C52.4012 8.27424 52.5832 8.82586 52.9473 9.23405C53.3113 9.63122 53.7967 9.8298 54.4035 9.8298Z" fill="white"/>
<path d="M60.6804 3.37589H64.1556V4.56738H64.4535C64.608 4.11506 64.8672 3.76754 65.2313 3.52483C65.6064 3.27108 66.0532 3.14421 66.5717 3.14421C67.3881 3.14421 68.0445 3.40347 68.541 3.92199C69.0374 4.42948 69.2856 5.20726 69.2856 6.25533V6.61939L67.1344 6.81798V6.5863C67.1344 6.13397 67.0185 5.77542 66.7868 5.51065C66.5552 5.23484 66.2076 5.09693 65.7443 5.09693C65.2809 5.09693 64.9169 5.2569 64.6521 5.57684C64.3873 5.89678 64.2549 6.35462 64.2549 6.95036V9.59812H66.1414V11.5839H60.4819V9.59812H62.1698V5.36171H60.6804V3.37589Z" fill="white"/>
<path d="M73.9574 6.38771H74.3545L76.5389 3.37589H78.8226V3.47518L76.1749 7.23169V7.52956L79.0874 11.4846V11.5839H76.7044L74.3545 8.37353H73.9574V11.5839H71.8723V0H73.9574V6.38771Z" fill="white"/>
<path d="M83.1799 8.1584C83.1909 8.40111 83.2461 8.62728 83.3454 8.83689C83.4557 9.03547 83.5991 9.21199 83.7757 9.36644C83.9632 9.50986 84.1728 9.6257 84.4045 9.71396C84.6472 9.79119 84.901 9.8298 85.1657 9.8298C85.6843 9.8298 86.0814 9.74154 86.3572 9.56502C86.633 9.37747 86.8316 9.15683 86.953 8.90309L88.7402 9.89599C88.6409 10.1056 88.503 10.3263 88.3265 10.5579C88.15 10.7786 87.9183 10.9827 87.6315 11.1702C87.3556 11.3578 87.0136 11.5122 86.6054 11.6336C86.2083 11.7549 85.7394 11.8156 85.1988 11.8156C84.581 11.8156 84.0184 11.7163 83.5109 11.5177C83.0034 11.3192 82.5621 11.0323 82.187 10.6572C81.8229 10.2821 81.5361 9.82428 81.3265 9.2837C81.1279 8.74312 81.0286 8.13082 81.0286 7.44682V7.34753C81.0286 6.71868 81.1334 6.145 81.343 5.62648C81.5637 5.10797 81.8615 4.66667 82.2366 4.30261C82.6117 3.93854 83.0475 3.65721 83.544 3.45863C84.0515 3.24902 84.5921 3.14421 85.1657 3.14421C85.8718 3.14421 86.4786 3.27108 86.9861 3.52483C87.4936 3.76754 87.9128 4.08196 88.2437 4.46809C88.5747 4.84319 88.8174 5.26242 88.9719 5.72578C89.1263 6.1781 89.2036 6.61939 89.2036 7.04965V8.1584H83.1799ZM85.1492 5.03074C84.6196 5.03074 84.1894 5.16864 83.8584 5.44445C83.5274 5.70923 83.3123 6.01813 83.213 6.37117H87.0854C87.0192 5.98504 86.8095 5.6651 86.4565 5.41135C86.1145 5.15761 85.6787 5.03074 85.1492 5.03074Z" fill="white"/>
<path d="M91.2441 3.37589H93.6767V0H95.7618V3.37589H98.724V5.36171H95.7618V9.10167C95.7618 9.43264 95.9107 9.59812 96.2086 9.59812H98.4261V11.5839H94.9509C94.5758 11.5839 94.2669 11.4626 94.0242 11.2199C93.7925 10.9772 93.6767 10.6683 93.6767 10.2932V5.36171H91.2441V3.37589Z" fill="white"/>
<path d="M103.263 14.8936H101.178V3.37589H103.263V4.56738H103.561C103.782 4.11506 104.102 3.76754 104.521 3.52483C104.94 3.27108 105.475 3.14421 106.126 3.14421C106.612 3.14421 107.069 3.23799 107.5 3.42554C107.941 3.61309 108.322 3.88889 108.642 4.25296C108.973 4.606 109.232 5.04177 109.419 5.56029C109.618 6.07881 109.717 6.66904 109.717 7.33098V7.62885C109.717 8.30182 109.623 8.89757 109.436 9.41609C109.248 9.93461 108.995 10.3759 108.675 10.74C108.355 11.093 107.974 11.3633 107.533 11.5508C107.103 11.7274 106.634 11.8156 106.126 11.8156C105.751 11.8156 105.426 11.777 105.15 11.6998C104.874 11.6226 104.631 11.5177 104.422 11.3854C104.223 11.253 104.052 11.104 103.909 10.9385C103.776 10.762 103.66 10.58 103.561 10.3924H103.263V14.8936ZM105.448 9.8298C106.099 9.8298 106.623 9.63122 107.02 9.23405C107.428 8.82586 107.632 8.27424 107.632 7.57921V7.38062C107.632 6.68559 107.428 6.13949 107.02 5.74232C106.623 5.33413 106.099 5.13003 105.448 5.13003C104.797 5.13003 104.267 5.33964 103.859 5.75887C103.462 6.16707 103.263 6.70765 103.263 7.38062V7.57921C103.263 8.25218 103.462 8.79828 103.859 9.21751C104.267 9.6257 104.797 9.8298 105.448 9.8298Z" fill="white"/>
<path d="M111.692 9.59812H114.571V1.98582H111.791V0H116.656V9.59812H119.337V11.5839H111.692V9.59812Z" fill="white"/>
<path d="M127.186 10.3924C126.965 10.911 126.656 11.2805 126.259 11.5012C125.862 11.7108 125.399 11.8156 124.869 11.8156C124.373 11.8156 123.904 11.7218 123.463 11.5343C123.032 11.3467 122.652 11.0709 122.321 10.7069C121.99 10.3428 121.725 9.90151 121.526 9.38299C121.339 8.86447 121.245 8.27424 121.245 7.6123V7.34753C121.245 6.69662 121.339 6.11191 121.526 5.59339C121.714 5.07487 121.968 4.63358 122.288 4.26951C122.608 3.90544 122.977 3.62963 123.396 3.44209C123.827 3.2435 124.284 3.14421 124.77 3.14421C125.355 3.14421 125.823 3.2435 126.177 3.44209C126.541 3.64067 126.827 3.94957 127.037 4.3688H127.335V3.37589H129.42V9.10167C129.42 9.43264 129.569 9.59812 129.867 9.59812H130.181V11.5839H128.758C128.383 11.5839 128.074 11.4736 127.831 11.253C127.6 11.0323 127.484 10.7455 127.484 10.3924H127.186ZM125.333 9.8298C125.939 9.8298 126.425 9.63122 126.789 9.23405C127.153 8.82586 127.335 8.27424 127.335 7.57921V7.38062C127.335 6.68559 127.153 6.13949 126.789 5.74232C126.425 5.33413 125.939 5.13003 125.333 5.13003C124.726 5.13003 124.24 5.33413 123.876 5.74232C123.512 6.13949 123.33 6.68559 123.33 7.38062V7.57921C123.33 8.27424 123.512 8.82586 123.876 9.23405C124.24 9.63122 124.726 9.8298 125.333 9.8298Z" fill="white"/>
<path d="M140.016 8.57211C139.829 9.54296 139.382 10.3263 138.676 10.922C137.981 11.5177 137.048 11.8156 135.879 11.8156C135.272 11.8156 134.704 11.7218 134.174 11.5343C133.656 11.3467 133.204 11.0765 132.817 10.7234C132.431 10.3704 132.128 9.93461 131.907 9.41609C131.687 8.89757 131.576 8.30734 131.576 7.6454V7.44682C131.576 6.78488 131.687 6.18913 131.907 5.65958C132.128 5.13003 132.431 4.67771 132.817 4.30261C133.215 3.92751 133.672 3.64067 134.191 3.44209C134.721 3.2435 135.283 3.14421 135.879 3.14421C137.026 3.14421 137.953 3.44208 138.659 4.03783C139.376 4.63358 139.829 5.41687 140.016 6.38771L137.964 6.91727C137.898 6.43184 137.688 6.01262 137.335 5.65958C136.982 5.30655 136.486 5.13003 135.846 5.13003C135.548 5.13003 135.267 5.18519 135.002 5.29551C134.737 5.40584 134.505 5.56581 134.307 5.77542C134.108 5.974 133.948 6.22223 133.827 6.5201C133.717 6.80694 133.661 7.1324 133.661 7.49646V7.59575C133.661 7.95982 133.717 8.28527 133.827 8.57211C133.948 8.84792 134.108 9.0796 134.307 9.26715C134.505 9.4547 134.737 9.59812 135.002 9.69741C135.267 9.78567 135.548 9.8298 135.846 9.8298C136.486 9.8298 136.971 9.66983 137.302 9.34989C137.644 9.02996 137.865 8.5997 137.964 8.05911L140.016 8.57211Z" fill="white"/>
<path d="M143.976 8.1584C143.987 8.40111 144.042 8.62728 144.142 8.83689C144.252 9.03547 144.395 9.21199 144.572 9.36644C144.759 9.50986 144.969 9.6257 145.201 9.71396C145.443 9.79119 145.697 9.8298 145.962 9.8298C146.481 9.8298 146.878 9.74154 147.154 9.56502C147.429 9.37747 147.628 9.15683 147.749 8.90309L149.536 9.89599C149.437 10.1056 149.299 10.3263 149.123 10.5579C148.946 10.7786 148.715 10.9827 148.428 11.1702C148.152 11.3578 147.81 11.5122 147.402 11.6336C147.005 11.7549 146.536 11.8156 145.995 11.8156C145.377 11.8156 144.815 11.7163 144.307 11.5177C143.8 11.3192 143.358 11.0323 142.983 10.6572C142.619 10.2821 142.332 9.82428 142.123 9.2837C141.924 8.74312 141.825 8.13082 141.825 7.44682V7.34753C141.825 6.71868 141.93 6.145 142.139 5.62648C142.36 5.10797 142.658 4.66667 143.033 4.30261C143.408 3.93854 143.844 3.65721 144.34 3.45863C144.848 3.24902 145.388 3.14421 145.962 3.14421C146.668 3.14421 147.275 3.27108 147.782 3.52483C148.29 3.76754 148.709 4.08196 149.04 4.46809C149.371 4.84319 149.614 5.26242 149.768 5.72578C149.923 6.1781 150 6.61939 150 7.04965V8.1584H143.976ZM145.945 5.03074C145.416 5.03074 144.986 5.16864 144.655 5.44445C144.324 5.70923 144.109 6.01813 144.009 6.37117H147.882C147.815 5.98504 147.606 5.6651 147.253 5.41135C146.911 5.15761 146.475 5.03074 145.945 5.03074Z" fill="white"/>
</svg>
