<svg width="16" height="21" viewBox="0 0 16 21" fill="none" xmlns="http://www.w3.org/2000/svg">
<path d="M15.9582 8.4424C16.2911 6.2358 14.5967 5.04958 12.2799 4.25825L13.0314 1.26913L11.1964 0.815687L10.4648 3.72603C9.98236 3.60684 9.48689 3.49439 8.99457 3.38297L9.73149 0.453446L7.89756 0L7.14549 2.98808C6.74619 2.8979 6.35421 2.80878 5.97373 2.71498L5.97582 2.70565L3.44523 2.07911L2.95709 4.02245C2.95709 4.02245 4.31855 4.33183 4.28981 4.35101C5.03299 4.53498 5.1673 5.02262 5.14483 5.40922L4.28875 8.81447C4.33997 8.82743 4.40636 8.84609 4.47953 8.87511C4.41838 8.86008 4.35305 8.84349 4.28563 8.82743L3.08564 13.5977C2.9947 13.8216 2.76423 14.1574 2.24473 14.0299C2.26302 14.0563 0.910962 13.6998 0.910962 13.6998L0 15.7825L2.38793 16.3728C2.83217 16.4832 3.26752 16.5987 3.69608 16.7075L2.9367 19.7309L4.76959 20.1843L5.52166 17.1931C6.02234 17.3279 6.5084 17.4522 6.984 17.5694L6.23454 20.5466L8.06951 21L8.8289 17.9824C11.9579 18.5695 14.3108 18.3327 15.3012 15.5265C16.0993 13.2671 15.2615 11.9637 13.6152 11.1138C14.8141 10.8397 15.7172 10.0577 15.9582 8.4424ZM11.7656 14.2719C11.1985 16.5314 7.36186 15.3099 6.11798 15.0036L7.12563 10.9983C8.3695 11.3061 12.3583 11.9155 11.7656 14.2719ZM12.3332 8.40974C11.8158 10.465 8.62245 9.42079 7.58659 9.16479L8.50017 5.53205C9.53603 5.78805 12.872 6.26585 12.3332 8.40974Z" fill="white"/>
</svg>
