<svg width="24" height="24" viewBox="0 0 24 24" fill="none" xmlns="http://www.w3.org/2000/svg">
<g clip-path="url(#clip0_0_419)">
<path d="M19 14V6C19 4.9 18.1 4 17 4H3C1.9 4 1 4.9 1 6V14C1 15.1 1.9 16 3 16H17C18.1 16 19 15.1 19 14ZM17 13C17 13.5523 16.5523 14 16 14H4C3.44772 14 3 13.5523 3 13V7C3 6.44772 3.44772 6 4 6H16C16.5523 6 17 6.44772 17 7V13ZM10 7C8.34 7 7 8.34 7 10C7 11.66 8.34 13 10 13C11.66 13 13 11.66 13 10C13 8.34 11.66 7 10 7ZM22.0375 7C22.5898 7 23 7.44772 23 8V18C23 19.1 22.1 20 21 20H5C4.44772 20 4 19.5898 4 19.0375C4 18.4852 4.44772 18 5 18H20C20.5523 18 21 17.5523 21 17V8C21 7.44772 21.4852 7 22.0375 7Z" fill="#7E7E7F"/>
</g>
<defs>
<clipPath id="clip0_0_419">
<rect width="24" height="24" fill="white"/>
</clipPath>
</defs>
</svg>
