<svg width="69" height="20" viewBox="0 0 69 20" fill="none" xmlns="http://www.w3.org/2000/svg">
<path d="M0.501802 4.03778L4.9778 14.4772C5.1361 14.8464 5.49917 15.0858 5.90089 15.0858H7.60011H9.20753C9.66756 15.0858 10.0688 14.7732 10.1814 14.3272L10.9296 11.3623C11.1383 10.535 12.2363 10.3603 12.6916 11.0819V11.0819C12.8693 11.3637 13.1792 11.5346 13.5124 11.5346H17.3039C17.5918 11.5346 17.866 11.411 18.0566 11.1952L18.785 10.3705C19.2761 9.81448 20.1798 9.96446 20.465 10.6493L21.9879 14.3066C22.3576 15.1946 23.6439 15.1049 23.8869 14.1742L26.0363 5.94095C26.0913 5.7301 26.2135 5.54286 26.3842 5.40751L28.7345 3.54493C28.9711 3.35743 29.2794 3.28629 29.5742 3.35119L32.0828 3.90343C32.4564 3.98569 32.7509 4.27307 32.8422 4.64459L34.3624 10.83C34.5852 11.7361 35.8153 11.8753 36.2349 11.0419L38.912 5.72395C38.948 5.65228 38.9754 5.57655 38.9935 5.49838L39.9676 1.28101C40.223 0.175172 41.8293 0.275377 41.9453 1.40438L43.1099 12.7381C43.2312 13.9189 44.9403 13.9495 45.1038 12.7738L46.0801 5.75265C46.2397 4.60511 47.8942 4.59491 48.0679 5.7404L49.5521 15.5277C49.7302 16.7017 51.4395 16.6494 51.5455 15.4668L52.0282 10.0819C52.0746 9.56403 52.5086 9.16721 53.0286 9.16721H57.8524C58.3404 9.16721 58.7577 9.51791 58.8418 9.99856L60.0905 17.1392C60.2439 18.0164 61.3783 18.2749 61.8965 17.5508L62.9877 16.0263C63.3431 15.5297 64.0559 15.4626 64.4977 15.8842L68.285 19.4978" stroke="#FF8266" stroke-linecap="round"/>
</svg>
