<svg width="22" height="22" viewBox="0 0 22 22" fill="none" xmlns="http://www.w3.org/2000/svg">
<g clip-path="url(#clip0_2205_11408)">
<path d="M18.3216 11.5418C17.8105 10.8808 17.0392 10.4269 16.0078 10.1802C17.3212 9.51021 17.8984 8.37315 17.74 6.76879C17.687 6.18701 17.5262 5.6828 17.2572 5.25542C16.9881 4.82795 16.6249 4.48429 16.1662 4.22431C15.708 3.96401 15.2096 3.76586 14.6721 3.62925C14.1346 3.49264 13.5174 3.39345 12.8211 3.33181V0H10.7852V3.23924C10.4326 3.23924 9.895 3.24804 9.17231 3.26568V0H7.13612V3.33181C6.84517 3.34065 6.41774 3.34515 5.85365 3.34515L3.05078 3.33181V5.50016H4.51825C5.18815 5.50016 5.58039 5.79992 5.69495 6.3992V10.1938C5.78322 10.1938 5.85365 10.1984 5.90658 10.2072H5.69495V15.5219C5.62452 15.9714 5.36894 16.1963 4.92818 16.1963H3.4608L3.05087 18.6159H5.69519C5.86268 18.6159 6.10492 18.6181 6.42237 18.6221C6.73963 18.6265 6.97752 18.6287 7.13622 18.6287V22.0001H9.17273V18.6684C9.54283 18.6774 10.0805 18.6817 10.7856 18.6817V22.0001H12.8216V18.6287C13.5445 18.5935 14.1857 18.5278 14.7451 18.4305C15.3049 18.3332 15.8405 18.1814 16.3516 17.9741C16.8626 17.7671 17.2901 17.5091 17.6338 17.2006C17.9777 16.8924 18.2617 16.5 18.4868 16.0239C18.7112 15.5479 18.8546 14.997 18.9161 14.371C19.0312 13.1462 18.8328 12.203 18.3216 11.5418ZM9.21191 5.6452C9.27364 5.6452 9.44771 5.64298 9.73417 5.63853C10.0208 5.63399 10.2587 5.62964 10.4482 5.6252C10.6377 5.62084 10.8933 5.63186 11.2152 5.65831C11.5369 5.68475 11.8079 5.72008 12.0282 5.76407C12.2485 5.80807 12.4911 5.88082 12.7553 5.98219C13.0199 6.08347 13.2313 6.20692 13.3898 6.35233C13.5486 6.49774 13.683 6.68293 13.7929 6.90771C13.9032 7.13245 13.9583 7.39025 13.9583 7.68107C13.9583 7.92789 13.9188 8.15272 13.8395 8.35555C13.7604 8.55824 13.6411 8.72796 13.4827 8.86457C13.3242 9.00123 13.1608 9.12034 12.9933 9.22161C12.826 9.32289 12.612 9.40448 12.3521 9.46612C12.0922 9.52785 11.8652 9.57634 11.6714 9.61153C11.4775 9.64682 11.2352 9.67113 10.9443 9.68428C10.6533 9.69743 10.4329 9.70642 10.2831 9.71077C10.1332 9.71512 9.92835 9.71512 9.66823 9.71077C9.40807 9.70642 9.25622 9.7041 9.21204 9.7041V5.64515H9.21191V5.6452ZM14.7717 14.6488C14.6878 14.8517 14.5799 15.0281 14.4478 15.178C14.3155 15.3276 14.1413 15.4599 13.9255 15.5744C13.7097 15.6891 13.5001 15.7815 13.2976 15.852C13.0947 15.9228 12.85 15.9842 12.5639 16.0373C12.277 16.0902 12.026 16.1274 11.8098 16.1496C11.594 16.1717 11.3363 16.1892 11.0365 16.2026C10.7369 16.2155 10.5032 16.2223 10.3358 16.2223C10.1683 16.2223 9.95669 16.2199 9.70106 16.2155C9.4453 16.2114 9.28239 16.2092 9.21181 16.2092V11.7402C9.28225 11.7402 9.49161 11.7359 9.83985 11.7269C10.1881 11.718 10.4722 11.7139 10.6926 11.7139C10.913 11.7139 11.2172 11.7269 11.6051 11.7535C11.9927 11.7798 12.3189 11.8193 12.5835 11.8722C12.8479 11.9252 13.1363 12.0066 13.4495 12.1169C13.7623 12.227 14.0158 12.3614 14.2098 12.52C14.4037 12.679 14.5667 12.8814 14.6989 13.1283C14.8314 13.375 14.8974 13.6571 14.8974 13.9745C14.8974 14.2215 14.8556 14.446 14.7717 14.6488Z" fill="white"/>
</g>
<defs>
<clipPath id="clip0_2205_11408">
<rect width="22" height="22" fill="white"/>
</clipPath>
</defs>
</svg>
