<svg width="25" height="25" viewBox="0 0 25 25" fill="none" xmlns="http://www.w3.org/2000/svg">
<g clip-path="url(#clip0_2301_12103)">
<path fill-rule="evenodd" clip-rule="evenodd" d="M17.1875 23.4375C18.8451 23.4375 20.4348 22.779 21.6069 21.6069C22.779 20.4348 23.4375 18.8451 23.4375 17.1875C23.4375 15.5299 22.779 13.9402 21.6069 12.7681C20.4348 11.596 18.8451 10.9375 17.1875 10.9375C15.5299 10.9375 13.9402 11.596 12.7681 12.7681C11.596 13.9402 10.9375 15.5299 10.9375 17.1875C10.9375 18.8451 11.596 20.4348 12.7681 21.6069C13.9402 22.779 15.5299 23.4375 17.1875 23.4375ZM25 17.1875C25 19.2595 24.1769 21.2466 22.7118 22.7118C21.2466 24.1769 19.2595 25 17.1875 25C15.1155 25 13.1284 24.1769 11.6632 22.7118C10.1981 21.2466 9.375 19.2595 9.375 17.1875C9.375 15.1155 10.1981 13.1284 11.6632 11.6632C13.1284 10.1981 15.1155 9.375 17.1875 9.375C19.2595 9.375 21.2466 10.1981 22.7118 11.6632C24.1769 13.1284 25 15.1155 25 17.1875Z" fill="#003B65"/>
<path d="M14.7467 18.6625C14.8201 19.5938 15.5561 20.3188 16.8764 20.4063V21.0938H17.4623V20.4016C18.8295 20.3063 19.6279 19.575 19.6279 18.5156C19.6279 17.55 19.0186 17.0531 17.9248 16.7969L17.4623 16.6875V14.8125C18.0498 14.8797 18.4217 15.2 18.5107 15.6438H19.5389C19.4654 14.7453 18.6951 14.0438 17.4623 13.9672V13.2812H16.8764V13.9844C15.7092 14.0984 14.9154 14.8 14.9154 15.7937C14.9154 16.6719 15.5061 17.2312 16.4889 17.4594L16.8764 17.5547V19.5422C16.2764 19.4516 15.8779 19.1203 15.7889 18.6625H14.7451H14.7467ZM16.8717 16.5469C16.2951 16.4141 15.9826 16.1406 15.9826 15.7312C15.9826 15.2719 16.3201 14.9281 16.8764 14.8281V16.5469H16.8717ZM17.5467 17.7125C18.2482 17.875 18.5701 18.1375 18.5701 18.6016C18.5701 19.1312 18.1686 19.4938 17.4623 19.5609V17.6938L17.5467 17.7125Z" fill="#003B65"/>
<path d="M1.5625 0C1.1481 0 0.750671 0.16462 0.457646 0.457646C0.16462 0.750671 0 1.1481 0 1.5625L0 14.0625C0 14.4769 0.16462 14.8743 0.457646 15.1674C0.750671 15.4604 1.1481 15.625 1.5625 15.625H7.94219C8.03281 15.0875 8.16875 14.5656 8.34531 14.0625H4.6875C4.6875 13.2337 4.35826 12.4388 3.77221 11.8528C3.18616 11.2667 2.3913 10.9375 1.5625 10.9375V4.6875C2.3913 4.6875 3.18616 4.35826 3.77221 3.77221C4.35826 3.18616 4.6875 2.3913 4.6875 1.5625H20.3125C20.3125 2.3913 20.6417 3.18616 21.2278 3.77221C21.8138 4.35826 22.6087 4.6875 23.4375 4.6875V10.2C24.0312 10.7312 24.5578 11.3375 25 12.0031V1.5625C25 1.1481 24.8354 0.750671 24.5424 0.457646C24.2493 0.16462 23.8519 0 23.4375 0L1.5625 0Z" fill="#003B65"/>
<path d="M15.6219 7.94228L15.625 7.81259C15.6247 7.27446 15.4854 6.74552 15.2206 6.27701C14.9559 5.80851 14.5746 5.41631 14.1138 5.1384C13.653 4.8605 13.1282 4.70631 12.5903 4.69076C12.0524 4.67521 11.5196 4.79883 11.0435 5.04966C10.5673 5.30048 10.1641 5.67 9.8727 6.12244C9.58133 6.57487 9.41173 7.09488 9.38033 7.6321C9.34892 8.16932 9.45678 8.70555 9.69346 9.18885C9.93014 9.67214 10.2876 10.0861 10.7313 10.3907C12.0809 9.10521 13.784 8.25255 15.6219 7.94228Z" fill="#003B65"/>
</g>
<defs>
<clipPath id="clip0_2301_12103">
<rect width="25" height="25" fill="white"/>
</clipPath>
</defs>
</svg>
