<svg width="55" height="32" viewBox="0 0 55 32" fill="none" xmlns="http://www.w3.org/2000/svg">
<path d="M0.5 0.820823L0.51429 0.838104C0.676188 1.03388 0.990996 0.969836 1.06354 0.726369V0.726369C1.14348 0.458072 1.50621 0.416856 1.64431 0.660379L1.69353 0.747183C1.721 0.795617 1.75932 0.837023 1.80549 0.86815L2.06132 1.04065C2.12483 1.08347 2.17413 1.14509 2.2023 1.21633V1.21633C2.30849 1.48481 2.66963 1.53791 2.85122 1.31344V1.31344C2.86012 1.30244 2.86843 1.29048 2.87565 1.27832V1.27832C2.9923 1.08169 3.28253 1.08654 3.38637 1.29022V1.29022C3.46552 1.44547 3.66267 1.49645 3.80715 1.39903L4.27983 1.08033C4.51646 0.92078 4.82207 0.905706 5.07325 1.04119V1.04119C5.15319 1.08431 5.22485 1.14129 5.28488 1.20946L5.75975 1.74871C5.82787 1.82607 5.91928 1.87922 6.02021 1.90016V1.90016C6.2046 1.93842 6.34909 2.08182 6.38873 2.26593L6.54652 2.99885C6.60415 3.26651 6.81316 3.47562 7.0808 3.53337V3.53337C7.35002 3.59145 7.55977 3.80266 7.616 4.07227L7.79892 4.94931C7.82621 5.08017 7.89878 5.19722 8.00384 5.27987V5.27987C8.16501 5.40665 8.38199 5.43675 8.57158 5.35863L8.91691 5.21634C9.30163 5.05781 9.57763 4.71238 9.64735 4.30216L9.87483 2.96356C9.90667 2.7762 9.98984 2.60134 10.1151 2.45841L10.1292 2.44232C10.2919 2.25671 10.519 2.13982 10.7645 2.11529V2.11529C11.1167 2.08011 11.4603 2.23888 11.6617 2.52992L11.8294 2.77219L12.6176 4.3256C12.697 4.48215 12.8577 4.58078 13.0332 4.58078V4.58078C13.2863 4.58078 13.4931 4.78271 13.4991 5.03568L13.6075 9.56799C13.6218 10.1639 13.8144 10.7419 14.1605 11.2273L14.4415 11.6214C14.4879 11.6864 14.5207 11.7601 14.538 11.8381L14.8511 13.2454C14.8777 13.3647 15.0414 13.3805 15.0903 13.2685V13.2685C15.1426 13.1485 15.3204 13.1775 15.3319 13.3078L15.5419 15.6798C15.5602 15.8859 15.6646 16.0747 15.8295 16.1998L15.941 16.2844C16.0664 16.3795 16.1538 16.5162 16.1876 16.6699L16.3357 17.3437C16.3733 17.5151 16.5782 17.5869 16.7146 17.4765V17.4765C16.7511 17.447 16.7779 17.4076 16.7917 17.3628C17.0565 16.5036 17.5471 14.9298 17.5471 15.0039C17.5471 15.0653 17.9133 15.6247 18.2034 16.0555C18.318 16.2257 18.5254 16.3071 18.7256 16.2621L18.7494 16.2567C18.7945 16.2466 18.8373 16.2281 18.8756 16.2023V16.2023C19.1066 16.0466 19.4204 16.1911 19.4522 16.4678L19.5185 17.0437C19.612 17.8564 20.7709 17.914 20.9446 17.1145L21.0288 16.7268C21.037 16.6889 21.0495 16.652 21.0661 16.6169L21.1554 16.4277C21.3058 16.1089 21.7601 16.1111 21.9075 16.4313V16.4313C22.032 16.7019 22.3927 16.7569 22.5923 16.5358L22.7181 16.3964C22.946 16.144 23.348 16.1633 23.5506 16.4365L23.8395 16.8261C23.9257 16.9424 23.9838 17.0771 24.0092 17.2196L24.0566 17.4862C24.1381 17.9441 24.3702 18.3616 24.7161 18.6726L25.0866 19.0057C25.1872 19.0961 25.2574 19.2154 25.2877 19.3473L25.5469 20.4766C25.5982 20.7001 25.9017 20.7357 26.0033 20.5301V20.5301C26.0997 20.3352 26.3837 20.3542 26.4531 20.5603L26.4836 20.6508C26.5742 20.9195 26.9594 20.9035 27.0274 20.6283L27.1994 19.9322C27.2334 19.7946 27.325 19.6784 27.4508 19.6132L27.4815 19.5972C27.6278 19.5214 27.734 19.3859 27.7726 19.2257L28.073 17.9814C28.12 17.7869 28.3817 17.7521 28.4779 17.9276V17.9276C28.5803 18.1143 28.8619 18.0599 28.8873 17.8485L29.1546 15.6258C29.184 15.3819 29.4861 15.2851 29.6516 15.4665V15.4665C29.7364 15.5594 29.8717 15.5863 29.9855 15.5329L30.2604 15.404C30.4757 15.303 30.625 15.0994 30.6566 14.8637L31.1353 11.2916L31.5941 8.95946L31.7664 7.41041C31.7889 7.20846 31.9596 7.05569 32.1628 7.05569V7.05569C32.3626 7.05569 32.5316 7.20354 32.5581 7.40157L32.9706 10.4825L33.113 20.5448C33.1191 20.9752 33.7254 21.0615 33.8513 20.6498L33.8647 20.6063C33.9774 20.2378 34.5095 20.2705 34.5762 20.6501V20.6501C34.607 20.8254 34.7592 20.9532 34.9372 20.9532H34.9837C35.0296 20.9532 35.0751 20.9458 35.1185 20.9311L35.2803 20.8766C35.4946 20.8044 35.6669 20.6427 35.7528 20.4335V20.4335C36.0255 19.7687 36.9758 19.7949 37.2114 20.4737L37.291 20.7029C37.3048 20.7428 37.3152 20.7838 37.322 20.8255L37.3908 21.2466C37.4939 21.8776 38.3671 21.9622 38.5893 21.3627L38.6945 21.0791C38.7812 20.8453 39.0639 20.7544 39.2706 20.8937V20.8937C39.3283 20.9327 39.3744 20.9866 39.404 21.0496L39.6021 21.4726C39.721 21.7266 39.7872 22.0021 39.7967 22.2824L39.9752 27.5773C39.986 27.8998 40.2332 28.1648 40.5541 28.1981V28.1981C40.7765 28.2212 40.9711 28.3576 41.0687 28.5588L41.5118 29.4726V29.4726C41.7929 30.0382 42.5796 30.0905 42.933 29.567L43.3824 28.9015V28.9015C43.7475 28.1818 44.7859 28.2131 45.107 28.9535L45.3641 29.5461C45.384 29.5921 45.4102 29.6351 45.4419 29.674L45.5755 29.8377C45.6902 29.9784 45.8966 30.0007 46.0388 29.888V29.888C46.2112 29.7512 46.4665 29.8171 46.5512 30.0202L46.7915 30.5962C47.0719 31.2684 48.0302 31.2511 48.2862 30.5692L48.3941 30.2817L50.0197 27.1302C50.3217 26.5448 51.0377 26.3103 51.6274 26.6037V26.6037C52.1846 26.8809 52.8613 26.6882 53.1888 26.1589L54.5 24.0401" stroke="#FB406E" stroke-linecap="round"/>
</svg>
