<svg width="24" height="22" viewBox="0 0 24 22" fill="none" xmlns="http://www.w3.org/2000/svg">
<path d="M22.8112 10.8237L12.8831 0.90064L12.2176 0.235165C12.066 0.0845378 11.8609 0 11.6472 0C11.4335 0 11.2284 0.0845378 11.0768 0.235165L0.483154 10.8237C0.327785 10.9784 0.204994 11.1627 0.12203 11.3657C0.0390657 11.5687 -0.00239116 11.7863 0.000106501 12.0056C0.0103841 12.91 0.763219 13.632 1.66765 13.632H2.75964V22.0006H20.5348V13.632H21.6499C22.0892 13.632 22.5029 13.4599 22.8138 13.149C22.9669 12.9964 23.0882 12.8149 23.1707 12.6151C23.2531 12.4153 23.2952 12.2012 23.2943 11.985C23.2943 11.5482 23.1221 11.1346 22.8112 10.8237ZM13.0861 20.1506H10.2083V14.909H13.0861V20.1506ZM18.6848 11.7821V20.1506H14.7305V14.2924C14.7305 13.7245 14.2706 13.2646 13.7027 13.2646H9.59168C9.02384 13.2646 8.56392 13.7245 8.56392 14.2924V20.1506H4.60961V11.7821H2.14299L11.6498 2.28298L12.2433 2.87651L21.154 11.7821H18.6848Z" fill="white"/>
</svg>
