<svg width="25" height="25" viewBox="0 0 25 25" fill="none" xmlns="http://www.w3.org/2000/svg">
<path d="M21.0935 13.094V11.8987L22.5935 10.5862C22.87 10.3425 23.0514 10.0089 23.1058 9.64435C23.1601 9.2798 23.0838 8.90778 22.8904 8.59404L21.0466 5.46904C20.9096 5.23174 20.7126 5.03465 20.4754 4.89752C20.2382 4.7604 19.9691 4.68807 19.6951 4.68779C19.5252 4.68649 19.3564 4.71287 19.1951 4.76591L17.2966 5.40654C16.9688 5.18873 16.6269 4.99299 16.2732 4.8206L15.8747 2.85185C15.8033 2.49217 15.6076 2.16907 15.322 1.93912C15.0363 1.70917 14.6789 1.58701 14.3122 1.59404H10.656C10.2893 1.58701 9.93191 1.70917 9.64626 1.93912C9.36061 2.16907 9.16493 2.49217 9.09349 2.85185L8.69505 4.8206C8.33875 4.99294 7.99425 5.18868 7.6638 5.40654L5.80443 4.73466C5.64138 4.69218 5.47253 4.67635 5.30443 4.68779C5.03042 4.68807 4.76131 4.7604 4.52409 4.89752C4.28686 5.03465 4.08987 5.23174 3.95286 5.46904L2.10911 8.59404C1.92676 8.90731 1.859 9.27424 1.91743 9.63198C1.97587 9.98972 2.15687 10.316 2.42943 10.555L3.90599 11.9065V13.1018L2.42943 14.4143C2.14917 14.655 1.96322 14.9871 1.90458 15.3518C1.84594 15.7165 1.91841 16.0902 2.10911 16.4065L3.95286 19.5315C4.08987 19.7688 4.28686 19.9659 4.52409 20.1031C4.76131 20.2402 5.03042 20.3125 5.30443 20.3128C5.47423 20.3141 5.64311 20.2877 5.80443 20.2347L7.70286 19.594C8.03063 19.8118 8.37253 20.0076 8.7263 20.18L9.12474 22.1487C9.19618 22.5084 9.39186 22.8315 9.67751 23.0615C9.96316 23.2914 10.3206 23.4136 10.6872 23.4065H14.3747C14.7414 23.4136 15.0988 23.2914 15.3845 23.0615C15.6701 22.8315 15.8658 22.5084 15.9372 22.1487L16.3357 20.18C16.692 20.0076 17.0365 19.8119 17.3669 19.594L19.2576 20.2347C19.4189 20.2877 19.5877 20.3141 19.7576 20.3128C20.0316 20.3125 20.3007 20.2402 20.5379 20.1031C20.7751 19.9659 20.9721 19.7688 21.1091 19.5315L22.8904 16.4065C23.0727 16.0933 23.1405 15.7263 23.082 15.3686C23.0236 15.0109 22.8426 14.6846 22.5701 14.4456L21.0935 13.094ZM19.6951 18.7503L17.0154 17.844C16.3881 18.3754 15.6711 18.7907 14.8982 19.0706L14.3435 21.8753H10.656L10.1013 19.1019C9.33444 18.814 8.62139 18.3994 7.99193 17.8753L5.30443 18.7503L3.46068 15.6253L5.58568 13.7503C5.44122 12.9416 5.44122 12.1137 5.58568 11.305L3.46068 9.37529L5.30443 6.25029L7.98411 7.15654C8.61141 6.6252 9.32834 6.20986 10.1013 5.92998L10.656 3.12529H14.3435L14.8982 5.89873C15.665 6.18655 16.3781 6.60118 17.0076 7.12529L19.6951 6.25029L21.5388 9.37529L19.4138 11.2503C19.5583 12.059 19.5583 12.8869 19.4138 13.6956L21.5388 15.6253L19.6951 18.7503Z" fill="white"/>
<path d="M12.5 17.1875C11.5729 17.1875 10.6666 16.9126 9.89577 16.3975C9.12491 15.8824 8.5241 15.1504 8.16932 14.2938C7.81453 13.4373 7.7217 12.4948 7.90257 11.5855C8.08344 10.6762 8.52988 9.841 9.18544 9.18544C9.841 8.52988 10.6762 8.08344 11.5855 7.90257C12.4948 7.7217 13.4373 7.81453 14.2938 8.16932C15.1504 8.5241 15.8824 9.12491 16.3975 9.89577C16.9126 10.6666 17.1875 11.5729 17.1875 12.5C17.1938 13.1173 17.0768 13.7297 16.8435 14.3012C16.6101 14.8728 16.2651 15.392 15.8285 15.8285C15.392 16.2651 14.8728 16.6101 14.3012 16.8435C13.7297 17.0768 13.1173 17.1938 12.5 17.1875ZM12.5 9.375C12.087 9.36538 11.6763 9.43964 11.2928 9.59328C10.9093 9.74692 10.561 9.97675 10.2689 10.2689C9.97675 10.561 9.74692 10.9093 9.59328 11.2928C9.43964 11.6763 9.36538 12.087 9.375 12.5C9.36538 12.913 9.43964 13.3237 9.59328 13.7072C9.74692 14.0907 9.97675 14.439 10.2689 14.7311C10.561 15.0233 10.9093 15.2531 11.2928 15.4067C11.6763 15.5604 12.087 15.6346 12.5 15.625C12.913 15.6346 13.3237 15.5604 13.7072 15.4067C14.0907 15.2531 14.439 15.0233 14.7311 14.7311C15.0233 14.439 15.2531 14.0907 15.4067 13.7072C15.5604 13.3237 15.6346 12.913 15.625 12.5C15.6346 12.087 15.5604 11.6763 15.4067 11.2928C15.2531 10.9093 15.0233 10.561 14.7311 10.2689C14.439 9.97675 14.0907 9.74692 13.7072 9.59328C13.3237 9.43964 12.913 9.36538 12.5 9.375Z" fill="white"/>
</svg>
