<svg width="169" height="169" viewBox="0 0 169 169" fill="none" xmlns="http://www.w3.org/2000/svg">
<path d="M84.5016 126.199C107.531 126.199 126.201 107.529 126.201 84.4997C126.201 61.47 107.531 42.8007 84.5016 42.8007C61.4719 42.8007 42.8027 61.47 42.8027 84.4997C42.8027 107.529 61.4719 126.199 84.5016 126.199Z" fill="url(#paint0_linear_0_1024)"/>
<g filter="url(#filter0_f_0_1024)">
<path d="M84.5002 114.959C101.322 114.959 114.959 101.322 114.959 84.5002C114.959 67.6785 101.322 54.0418 84.5002 54.0418C67.6785 54.0418 54.0418 67.6785 54.0418 84.5002C54.0418 101.322 67.6785 114.959 84.5002 114.959Z" fill="url(#paint1_linear_0_1024)"/>
</g>
<path fill-rule="evenodd" clip-rule="evenodd" d="M81.6352 50.6265C82.3328 50.6265 82.8985 50.0609 82.8985 49.3633C82.8985 48.6657 82.3328 48.1001 81.6352 48.1001C80.9375 48.1001 80.3723 48.6657 80.3723 49.3633C80.3723 50.0609 80.9375 50.6265 81.6352 50.6265ZM81.6352 51.5739C82.8561 51.5739 83.846 50.5841 83.846 49.3633C83.846 48.1424 82.8561 47.1527 81.6352 47.1527C80.4143 47.1527 79.4248 48.1424 79.4248 49.3633C79.4248 50.5841 80.4143 51.5739 81.6352 51.5739Z" fill="white"/>
<path fill-rule="evenodd" clip-rule="evenodd" d="M51.5398 108.642C52.2374 108.642 52.803 108.076 52.803 107.379C52.803 106.681 52.2374 106.116 51.5398 106.116C50.8422 106.116 50.2766 106.681 50.2766 107.379C50.2766 108.076 50.8422 108.642 51.5398 108.642ZM51.5398 109.59C52.7606 109.59 53.7504 108.6 53.7504 107.379C53.7504 106.158 52.7606 105.168 51.5398 105.168C50.3189 105.168 49.3292 106.158 49.3292 107.379C49.3292 108.6 50.3189 109.59 51.5398 109.59Z" fill="white"/>
<path fill-rule="evenodd" clip-rule="evenodd" d="M120.796 105.741C121.494 105.741 122.06 105.176 122.06 104.478C122.06 103.78 121.494 103.215 120.796 103.215C120.099 103.215 119.533 103.78 119.533 104.478C119.533 105.176 120.099 105.741 120.796 105.741ZM120.796 106.689C122.017 106.689 123.007 105.699 123.007 104.478C123.007 103.257 122.017 102.268 120.796 102.268C119.576 102.268 118.586 103.257 118.586 104.478C118.586 105.699 119.576 106.689 120.796 106.689Z" fill="white"/>
<path d="M61.0741 56.2861C61.167 55.9012 61.7145 55.9012 61.8074 56.2861L62.1201 57.5816C62.1533 57.7191 62.2607 57.8265 62.3982 57.8597L63.6936 58.1724C64.0785 58.2653 64.0785 58.8128 63.6936 58.9057L62.3982 59.2184C62.2607 59.2516 62.1533 59.359 62.1201 59.4966L61.8074 60.792C61.7145 61.1769 61.167 61.1769 61.0741 60.792L60.7614 59.4966C60.7282 59.359 60.6208 59.2516 60.4832 59.2184L59.1878 58.9057C58.8029 58.8128 58.8029 58.2653 59.1878 58.1724L60.4832 57.8597C60.6208 57.8265 60.7282 57.7191 60.7614 57.5816L61.0741 56.2861Z" fill="white"/>
<path d="M114.703 112.997C114.805 112.576 115.405 112.576 115.507 112.997L115.85 114.417C115.886 114.568 116.004 114.686 116.155 114.722L117.575 115.065C117.997 115.167 117.997 115.767 117.575 115.869L116.155 116.212C116.004 116.248 115.886 116.366 115.85 116.516L115.507 117.936C115.405 118.358 114.805 118.358 114.703 117.936L114.36 116.516C114.324 116.366 114.206 116.248 114.056 116.212L112.636 115.869C112.214 115.767 112.214 115.167 112.636 115.065L114.056 114.722C114.206 114.686 114.324 114.568 114.36 114.417L114.703 112.997Z" fill="url(#paint2_linear_0_1024)"/>
<path d="M55.1408 118.308C55.6209 118.231 56.0042 118.702 55.8307 119.157L54.6599 122.223C54.4864 122.677 53.8863 122.773 53.5797 122.395L51.51 119.849C51.2034 119.471 51.4202 118.904 51.9003 118.827L55.1408 118.308Z" fill="url(#paint3_linear_0_1024)"/>
<path d="M116.765 59.4832C116.645 59.0121 117.08 58.5876 117.548 58.7191L120.707 59.607C121.175 59.7385 121.326 60.3274 120.978 60.667L118.629 62.9593C118.281 63.2988 117.696 63.1344 117.576 62.6633L116.765 59.4832Z" fill="url(#paint4_linear_0_1024)"/>
<path d="M106.245 81.494L99.3948 82.8259C97.4454 83.2044 96.1727 85.0918 96.5516 87.0407C96.9305 88.9897 98.8175 90.2624 100.766 89.8839L107.617 88.552C109.566 88.1731 110.839 86.2862 110.46 84.3372C110.082 82.3882 108.194 81.1151 106.245 81.494Z" fill="url(#paint5_linear_0_1024)"/>
<path d="M108.937 85.0093C108.972 84.122 108.28 83.3747 107.393 83.3402C106.506 83.3054 105.758 83.9969 105.724 84.8842C105.689 85.7714 106.38 86.5188 107.268 86.5536C108.155 86.588 108.903 85.8965 108.937 85.0093Z" fill="#EBEBEB"/>
<path d="M107.498 85.8101C107.975 85.7173 108.286 85.2553 108.194 84.7785C108.101 84.3013 107.639 83.9899 107.162 84.0823C106.685 84.1751 106.373 84.6371 106.466 85.1143C106.559 85.5911 107.021 85.9029 107.498 85.8101Z" fill="#DBDBDB"/>
<path d="M95.3829 70.6669L60.4031 77.4664C58.4373 77.8482 57.1535 79.7519 57.5356 81.7175L62.2618 106.031C62.6439 107.997 64.5472 109.281 66.513 108.899L101.493 102.1C103.459 101.717 104.742 99.8141 104.361 97.8481L99.634 73.5344C99.2522 71.5687 97.3489 70.2848 95.3829 70.6669Z" fill="url(#paint6_linear_0_1024)"/>
<path d="M94.7427 59.6105L101.888 78.0798C102.288 79.1121 101.774 80.2732 100.743 80.6724L71.4515 92.0047C70.4209 92.4043 69.2599 91.8901 68.8598 90.8578L61.7146 72.3884C61.3437 71.4275 61.8201 70.3479 62.7813 69.977L92.3304 58.5461C93.2916 58.1752 94.3711 58.6517 94.742 59.6128L94.7427 59.6105Z" fill="url(#paint7_linear_0_1024)"/>
<path d="M96.1205 77.3186C96.4867 78.2682 96.0157 79.3361 95.0661 79.7023C94.1168 80.0689 93.0486 79.5975 92.6823 78.6479C92.3157 77.6986 92.7871 76.6307 93.7368 76.2642C94.6861 75.8979 95.7543 76.3693 96.1205 77.3186Z" fill="url(#paint8_linear_0_1024)"/>
<path d="M98.2352 76.4985C98.6018 77.4481 98.1304 78.516 97.1812 78.8826C96.2315 79.2488 95.1636 78.7774 94.7971 77.8281C94.4308 76.8785 94.9022 75.8106 95.8515 75.4444C96.8011 75.0778 97.869 75.5492 98.2352 76.4985Z" fill="url(#paint9_linear_0_1024)"/>
<path d="M70.5449 70.6201L65.7457 72.4766C65.3588 72.6263 65.1665 73.0615 65.3162 73.4484L66.432 76.3325C66.5816 76.7194 67.0167 76.9119 67.4036 76.7622L72.2026 74.9053C72.5898 74.7559 72.782 74.3208 72.6322 73.9339L71.5165 71.0498C71.3668 70.6627 70.9316 70.4704 70.5449 70.6201Z" fill="url(#paint10_linear_0_1024)"/>
<path d="M92.3868 64.8699L89.5807 65.9547C88.9312 66.2041 88.2024 65.8823 87.9511 65.2334C87.702 64.5839 88.0237 63.855 88.6727 63.6039L91.4785 62.5191C92.1276 62.2681 92.8571 62.5916 93.108 63.2405C93.3575 63.89 93.0355 64.619 92.3868 64.8699Z" fill="white"/>
<path d="M67.9849 81.0248L67.7888 81.2725C67.7888 81.2725 67.7726 81.2903 67.7609 81.2946C67.7376 81.3037 67.7124 81.2979 67.696 81.2852C67.6648 81.2587 67.6607 81.2181 67.6866 81.1909L67.9526 80.8457C67.9752 80.8196 68.0208 80.8138 68.0467 80.8363C68.0608 80.8483 68.0683 80.8624 68.073 80.8798L68.7126 82.5311C68.7254 82.5644 68.7112 82.6025 68.6745 82.6167C68.6411 82.6294 68.6018 82.6119 68.589 82.5786L67.9883 81.0234L67.9849 81.0248Z" fill="#F8F8F8"/>
<path d="M69.1324 82.312L69.6783 81.2285C69.7426 81.0965 69.7486 80.9526 69.6993 80.8239C69.6569 80.7136 69.5729 80.6197 69.4588 80.5617C69.3302 80.4964 69.1834 80.4932 69.0588 80.5428C68.9452 80.5867 68.8498 80.6672 68.7904 80.7822L68.7343 80.8957C68.7189 80.9301 68.6765 80.9446 68.6469 80.9272C68.6122 80.9116 68.5978 80.8695 68.6152 80.8398L68.6706 80.7245C68.7457 80.5809 68.8694 80.4739 69.0114 80.4196C69.1683 80.359 69.35 80.3583 69.5176 80.4453C69.6663 80.5185 69.7703 80.6397 69.8234 80.7782C69.8844 80.937 69.8824 81.1216 69.7994 81.2894L69.332 82.2181L70.1836 81.891C70.2163 81.8765 70.255 81.8924 70.2691 81.9291C70.2819 81.9624 70.2644 82.0019 70.231 82.0146L69.2288 82.403L69.2187 82.407C69.2004 82.4142 69.1801 82.416 69.1649 82.4066C69.1307 82.387 69.1159 82.3486 69.1314 82.3141L69.1324 82.312Z" fill="#F8F8F8"/>
<path d="M71.1287 79.7292L70.8488 80.3866C70.971 80.3667 71.1001 80.3783 71.2204 80.432C71.3843 80.5048 71.5047 80.6386 71.5649 80.7956C71.6251 80.9526 71.6269 81.1321 71.5522 81.2968C71.4793 81.461 71.3459 81.5828 71.1896 81.6448C71.0362 81.7036 70.8567 81.7054 70.692 81.6307C70.658 81.6169 70.641 81.5778 70.6574 81.5408C70.6706 81.5049 70.7106 81.4897 70.7476 81.506C70.8781 81.5615 71.0177 81.5615 71.1414 81.514C71.265 81.4665 71.3705 81.3722 71.43 81.2424C71.4884 81.1104 71.4862 80.9697 71.4387 80.846C71.3912 80.7224 71.2973 80.6169 71.1668 80.5618C71.0366 80.5023 70.8959 80.5048 70.7723 80.552C70.7523 80.56 70.7298 80.5567 70.7108 80.5469L70.7075 80.5483C70.6712 80.5335 70.6551 80.4918 70.6723 80.4562L70.9412 79.8242L70.2516 80.0889C70.2155 80.1049 70.1762 80.0875 70.1627 80.0523C70.1486 80.0157 70.1661 79.9762 70.2012 79.9627L71.0428 79.6397C71.0787 79.6241 71.1182 79.6415 71.1316 79.6767C71.1356 79.6864 71.136 79.6981 71.1341 79.7082C71.1341 79.7176 71.1316 79.7263 71.1283 79.7332L71.1287 79.7292Z" fill="#F8F8F8"/>
<path d="M73.1469 80.4611L72.1734 80.8385L72.165 80.8418C72.1516 80.8469 72.1353 80.8494 72.1215 80.8433C72.0853 80.8342 72.066 80.7936 72.0798 80.7595L72.6197 79.0618L72.6215 79.0571C72.6342 79.0197 72.668 79.0031 72.7053 79.0154C72.7184 79.0201 72.7281 79.0299 72.7368 79.0379C72.7387 79.0429 72.7434 79.0448 72.7441 79.0466L72.7474 79.0549L73.2242 80.2878L73.3446 80.2413C73.3812 80.2276 73.4207 80.245 73.4334 80.2783C73.4461 80.3117 73.4287 80.3508 73.3935 80.3643L73.2735 80.4107L73.3921 80.7196C73.4048 80.753 73.3873 80.7921 73.3522 80.8055C73.3188 80.8186 73.2797 80.8008 73.2666 80.7675L73.148 80.4585L73.1469 80.4611ZM73.0998 80.3374L72.6919 79.2852L72.2495 80.6678L73.1009 80.3407L73.0998 80.3374Z" fill="#F8F8F8"/>
<path d="M75.4741 79.7819C75.4378 79.767 75.4218 79.7253 75.4396 79.6916C75.4552 79.6571 75.4962 79.6394 75.5313 79.6564C75.6619 79.7119 75.8018 79.7119 75.9251 79.6644C76.0488 79.6169 76.151 79.5241 76.2098 79.3924C76.2685 79.2605 76.2667 79.1212 76.2192 78.9979C76.1713 78.8725 76.0771 78.767 75.9476 78.7093C75.8189 78.6535 75.6775 78.6542 75.5538 78.7013C75.4284 78.7496 75.3247 78.8431 75.2659 78.9747C75.2503 79.0095 75.2086 79.0255 75.1756 79.0095C75.1655 79.0077 75.1571 79.0012 75.1532 78.995L75.1517 78.9918C75.1517 78.9918 75.1466 78.9881 75.1452 78.9849C75.1401 78.9809 75.1368 78.9726 75.1343 78.966C75.1328 78.9628 75.1325 78.957 75.1307 78.9519L74.937 78.193C74.9294 78.173 74.9331 78.1524 74.9443 78.1368C74.9505 78.1226 74.9635 78.1121 74.9802 78.1056L75.8185 77.784C75.8544 77.768 75.8936 77.7854 75.9074 77.8206C75.9219 77.859 75.9037 77.8967 75.8689 77.9101L75.0839 78.2115L75.2268 78.7735C75.2975 78.6828 75.3917 78.6143 75.5005 78.5726C75.6575 78.5124 75.8323 78.5084 75.9991 78.5842C76.1666 78.656 76.2823 78.7876 76.3439 78.9479C76.4027 79.1016 76.4092 79.2833 76.3327 79.4487C76.2591 79.6107 76.1242 79.7337 75.969 79.7931C75.812 79.8533 75.6325 79.8551 75.4686 79.7822L75.4741 79.7819Z" fill="#F8F8F8"/>
<path d="M76.7126 77.8914C76.7525 77.6253 76.8971 77.3838 77.1916 77.2572C77.2238 77.2413 77.263 77.2587 77.2793 77.2909C77.2931 77.3276 77.2757 77.3667 77.2431 77.3812C76.9947 77.4882 76.8863 77.6793 76.8442 77.9099C76.8228 78.0386 76.8315 78.1811 76.8558 78.3193C76.9171 78.1539 77.0447 78.0129 77.222 77.9451C77.5542 77.8174 77.9215 77.981 78.0473 78.3084C78.1735 78.6373 78.0114 79.0039 77.6814 79.1326C77.3594 79.2562 76.9998 79.1032 76.8656 78.7888C76.846 78.7522 76.8311 78.7138 76.8152 78.6721C76.7253 78.4328 76.673 78.1518 76.7144 77.8907L76.7126 77.8914ZM76.9871 78.7305C76.9921 78.7439 76.9994 78.7526 77.0048 78.762C77.0081 78.7704 77.0099 78.7754 77.0085 78.7816C77.1281 78.9984 77.3946 79.0989 77.6303 79.0086C77.8925 78.9081 78.0212 78.6152 77.9226 78.3581C77.8239 78.101 77.531 77.9719 77.2688 78.0727C77.0117 78.1713 76.8826 78.464 76.9816 78.7214L76.9852 78.7312L76.9871 78.7305Z" fill="#F8F8F8"/>
<path d="M78.8962 78.5628L78.9506 76.7277L78.0803 77.0616C78.0477 77.0758 78.0089 77.0602 77.9962 77.0268C77.9835 76.9935 78.0009 76.9539 78.0343 76.9412L78.9861 76.5757C78.9973 76.5656 79.0093 76.5612 79.0245 76.5612C79.0427 76.5638 79.0619 76.5736 79.0727 76.5866C79.0793 76.5939 79.0829 76.5982 79.0854 76.6047C79.0905 76.6182 79.0909 76.6294 79.088 76.6421L79.0318 78.5661C79.0307 78.5932 79.0129 78.6175 78.9897 78.6262C78.9796 78.6302 78.9745 78.632 78.9625 78.631C78.9259 78.6299 78.8962 78.5972 78.8944 78.5631L78.8962 78.5628Z" fill="#F8F8F8"/>
<path d="M80.0098 76.1627C80.2154 76.084 80.4496 76.1856 80.5287 76.3908C80.5765 76.5163 80.5566 76.6482 80.4917 76.7538C80.7386 76.7585 80.9696 76.9111 81.0628 77.1533C81.1872 77.4771 81.0283 77.8372 80.7049 77.963C80.3826 78.087 80.021 77.9286 79.8952 77.6055C79.802 77.3633 79.8702 77.0957 80.0464 76.9267C79.93 76.8926 79.8281 76.8074 79.7803 76.682C79.7012 76.4767 79.8002 76.245 80.0091 76.1649L80.0098 76.1627ZM80.6585 77.8372C80.9156 77.7386 81.0381 77.4539 80.941 77.2001C80.8441 76.9481 80.561 76.819 80.3035 76.918C80.0497 77.0152 79.9246 77.3027 80.0214 77.5551C80.1193 77.8104 80.4047 77.9347 80.6585 77.8372ZM80.2527 76.79C80.3898 76.7335 80.4598 76.5764 80.4069 76.4376C80.3535 76.2991 80.1976 76.2323 80.0591 76.2856C79.9206 76.3389 79.8532 76.4931 79.9065 76.6316C79.9598 76.7701 80.115 76.8408 80.2542 76.7893L80.2527 76.79Z" fill="#F8F8F8"/>
<path d="M83.2056 74.9268C83.5145 74.8082 83.8521 74.9395 83.9989 75.222C84.004 75.2259 84.0055 75.2292 84.0091 75.2336C84.0308 75.2807 84.0526 75.3318 84.0729 75.3851C84.1647 75.6241 84.2165 75.9087 84.1784 76.1687C84.1367 76.4298 83.9906 76.6774 83.6994 76.8025L83.6962 76.804C83.6595 76.8181 83.6215 76.804 83.6084 76.7706C83.5946 76.7336 83.6091 76.6974 83.6447 76.68C83.8891 76.5726 84.0051 76.3808 84.0435 76.1513C84.0635 76.0193 84.0595 75.879 84.0319 75.7419C83.9707 75.9073 83.8408 76.0432 83.6606 76.1125C83.3332 76.238 82.9663 76.0802 82.8368 75.7485C82.7113 75.4214 82.8749 75.0537 83.2023 74.9283L83.2056 74.9268ZM83.9043 75.3351C83.8057 75.078 83.5156 74.9515 83.2534 75.0523C82.9964 75.1509 82.8669 75.4421 82.9648 75.6977C83.0656 75.9598 83.3564 76.0835 83.6135 75.9849C83.8757 75.8844 84.0051 75.5973 83.9025 75.3355L83.9043 75.3351Z" fill="#F8F8F8"/>
<path d="M84.6088 75.4195C84.516 75.1776 84.4913 74.9339 84.537 74.7229C84.5856 74.5206 84.7002 74.3502 84.8822 74.2802C85.0642 74.2102 85.2651 74.2595 85.4362 74.3759C85.6088 74.5014 85.7604 74.6961 85.855 74.9376C85.9479 75.1794 85.9674 75.4249 85.9221 75.6319C85.8743 75.8361 85.76 76.0083 85.578 76.0783C85.396 76.1479 85.1951 76.0986 85.0229 75.979C84.8499 75.8578 84.7012 75.6602 84.6081 75.418L84.6088 75.4195ZM84.7339 75.3716C84.8187 75.5921 84.9551 75.7676 85.1019 75.8702C85.2477 75.9713 85.4014 76.0025 85.5302 75.9528C85.6585 75.9035 85.7481 75.7773 85.7909 75.604C85.8293 75.43 85.8148 75.2077 85.7303 74.9872C85.6458 74.7668 85.5059 74.5924 85.3608 74.489C85.2114 74.3839 85.0613 74.357 84.9326 74.4064C84.8039 74.4557 84.7092 74.5782 84.6719 74.7555C84.6334 74.9292 84.6512 75.1504 84.7364 75.3727L84.7339 75.3716Z" fill="#F8F8F8"/>
<path d="M86.4073 73.899L86.2115 74.1471C86.2115 74.1471 86.1952 74.1645 86.1836 74.1692C86.16 74.1782 86.135 74.1724 86.1183 74.1597C86.0872 74.1333 86.0832 74.0927 86.1093 74.0655L86.3751 73.7199C86.3979 73.6942 86.4432 73.688 86.4693 73.7108C86.4835 73.7224 86.4907 73.737 86.4955 73.7544L87.1351 75.4053C87.1478 75.439 87.1336 75.4767 87.097 75.4908C87.0636 75.5039 87.0245 75.4861 87.0114 75.4528L86.411 73.8979L86.4073 73.899Z" fill="#F8F8F8"/>
<path d="M87.5551 75.1849L88.1008 74.1018C88.1653 73.9698 88.1711 73.8255 88.1218 73.6972C88.0794 73.5869 87.9956 73.4927 87.8814 73.435C87.7527 73.3694 87.6058 73.3665 87.4815 73.4161C87.368 73.4597 87.273 73.542 87.2128 73.6551L87.1569 73.7686C87.1414 73.8034 87.0989 73.8175 87.0696 73.8001C87.0348 73.7849 87.0202 73.7425 87.0377 73.7128L87.0931 73.5978C87.1682 73.4539 87.2918 73.3469 87.4333 73.2907C87.5903 73.2305 87.7719 73.2298 87.9394 73.3168C88.0881 73.39 88.1922 73.5112 88.2455 73.6497C88.3064 73.8081 88.3042 73.993 88.2212 74.1609L87.7538 75.0895L88.6055 74.7625C88.6382 74.748 88.6777 74.7654 88.6911 74.8006C88.7038 74.8339 88.6864 74.8731 88.653 74.8861L87.6508 75.2745L87.6407 75.2785C87.6222 75.2853 87.6019 75.2875 87.587 75.2781C87.5525 75.2585 87.5377 75.2201 87.5533 75.1856L87.5551 75.1849Z" fill="#F8F8F8"/>
<path d="M91.0897 72.0074L90.8094 72.6652C90.9319 72.6449 91.061 72.6565 91.181 72.7102C91.3453 72.783 91.4657 72.9168 91.5259 73.0738C91.5861 73.2308 91.5879 73.4103 91.5132 73.575C91.4399 73.7392 91.3069 73.861 91.152 73.9223C90.9987 73.9814 90.8174 73.984 90.6527 73.9093C90.6186 73.8955 90.6016 73.856 90.6183 73.819C90.6321 73.7849 90.6712 73.7679 90.7082 73.7842C90.8387 73.8396 90.9787 73.8397 91.1024 73.7921C91.2256 73.7446 91.3315 73.6504 91.3906 73.5206C91.4494 73.3889 91.4468 73.2479 91.3997 73.1242C91.3522 73.001 91.2579 72.8951 91.1274 72.84C90.9976 72.7805 90.8565 72.783 90.7329 72.8305C90.7129 72.8382 90.6908 72.8352 90.6716 72.8251L90.6683 72.8265C90.6321 72.8117 90.6157 72.77 90.6332 72.7344L90.9018 72.1028L90.2122 72.3675C90.1763 72.3831 90.1371 72.3657 90.1233 72.3305C90.1096 72.2939 90.127 72.2544 90.1618 72.2409L91.0034 71.9179C91.0396 71.9023 91.0788 71.9197 91.0922 71.9549C91.0962 71.965 91.0966 71.9762 91.0947 71.9864C91.0947 71.9962 91.0922 72.0045 91.0893 72.0114L91.0897 72.0074Z" fill="#F8F8F8"/>
<path d="M93.1084 72.7386L92.1334 73.1132L92.1305 73.1161L92.1258 73.1179C92.1124 73.123 92.0968 73.1273 92.0823 73.1193C92.046 73.1103 92.0268 73.0697 92.0406 73.0356L92.5805 71.3379L92.5823 71.3332C92.595 71.2958 92.6287 71.2791 92.6661 71.2918C92.6791 71.2962 92.6889 71.306 92.6976 71.3139C92.6994 71.319 92.7027 71.3216 92.7049 71.3226L92.7081 71.331L93.1849 72.5638L93.3053 72.5178C93.3419 72.5036 93.3815 72.521 93.3942 72.5544C93.4068 72.5878 93.3895 72.6273 93.3543 72.6407L93.2343 72.6867L93.3528 72.9957C93.3655 73.029 93.3481 73.0682 93.3129 73.0816C93.2796 73.0947 93.2404 73.0773 93.2274 73.0435L93.1088 72.7346L93.1084 72.7386ZM93.0609 72.6153L92.6534 71.5627L92.2106 72.9453L93.0624 72.6186L93.0609 72.6153Z" fill="#F8F8F8"/>
<path d="M93.8965 72.6544C93.8603 72.6396 93.8443 72.5979 93.8621 72.5641C93.8773 72.5297 93.9194 72.5134 93.9538 72.529C94.0844 72.5841 94.224 72.5841 94.3476 72.5369C94.4712 72.4894 94.5735 72.3966 94.6322 72.2646C94.691 72.133 94.6892 71.9938 94.6417 71.8701C94.5934 71.745 94.4995 71.6395 94.3701 71.5819C94.2406 71.5242 94.0996 71.5264 93.9763 71.5739C93.8508 71.6221 93.7471 71.7157 93.6884 71.8473C93.6728 71.8821 93.6318 71.8995 93.5981 71.8817C93.588 71.8799 93.5796 71.8738 93.5756 71.8676L93.5742 71.8643C93.5742 71.8643 93.5691 71.8607 93.5676 71.8571C93.5622 71.8534 93.5593 71.8451 93.5568 71.8386C93.5553 71.835 93.555 71.8295 93.5531 71.8244L93.3595 71.0655C93.3519 71.0452 93.3555 71.0249 93.3668 71.009C93.3729 70.9952 93.386 70.9843 93.4027 70.9781L94.2406 70.6562C94.2769 70.6405 94.3161 70.658 94.3295 70.693C94.3443 70.7316 94.3262 70.7689 94.291 70.7823L93.5064 71.0836L93.6492 71.6457C93.7207 71.5572 93.8142 71.4865 93.923 71.4452C94.0796 71.3846 94.2544 71.381 94.4216 71.4568C94.5891 71.5286 94.7048 71.6602 94.7664 71.8204C94.8251 71.9742 94.8317 72.1555 94.7552 72.3208C94.6816 72.4833 94.5467 72.6058 94.3915 72.6657C94.2345 72.7259 94.055 72.7277 93.8911 72.6548L93.8965 72.6544Z" fill="#F8F8F8"/>
<path d="M95.1333 70.7639C95.1732 70.4976 95.3171 70.2545 95.6123 70.1297C95.6445 70.1136 95.6837 70.1311 95.6997 70.1632C95.7138 70.1999 95.6964 70.2392 95.6638 70.2537C95.4161 70.3622 95.3066 70.5517 95.2649 70.7824C95.2435 70.9111 95.2522 71.0533 95.2765 71.1918C95.3378 71.0264 95.4654 70.8854 95.6424 70.8176C95.9749 70.6899 96.3422 70.8535 96.468 71.1805C96.5942 71.5098 96.4321 71.8764 96.1021 72.0051C95.7798 72.1287 95.4205 71.9757 95.2863 71.661C95.2664 71.6247 95.2519 71.5863 95.2359 71.5446C95.1456 71.3049 95.0934 71.0243 95.1351 70.7632L95.1333 70.7639ZM95.4078 71.603C95.4128 71.6164 95.4201 71.6251 95.4255 71.6345C95.4288 71.6429 95.4306 71.6479 95.4292 71.6541C95.5488 71.8706 95.8153 71.9714 96.0507 71.8811C96.3128 71.7803 96.4419 71.4877 96.3433 71.2306C96.2447 70.9731 95.9517 70.8444 95.6895 70.9449C95.4324 71.0438 95.3033 71.3365 95.402 71.5935L95.406 71.6037L95.4078 71.603Z" fill="#F8F8F8"/>
<path d="M85.7159 79.5704L70.0308 85.6385L70.329 86.409L86.0139 80.3409L85.7159 79.5704Z" fill="url(#paint11_linear_0_1024)"/>
<path d="M81.798 83.0555L70.6934 87.3516L70.9914 88.1225L82.096 83.8264L81.798 83.0555Z" fill="url(#paint12_linear_0_1024)"/>
<path d="M86.0326 64.6258L78.9815 67.3537C78.7687 67.436 78.6628 67.6752 78.7451 67.8881C78.8274 68.1009 79.0667 68.2067 79.2796 68.1243L86.3307 65.3965C86.5435 65.3141 86.6491 65.0749 86.5668 64.8621C86.4844 64.6493 86.2451 64.5435 86.0326 64.6258Z" fill="#3B3B3B"/>
<path d="M98.9549 84.3133L62.2044 91.4573L65.0643 106.17L101.815 99.0265L98.9549 84.3133Z" fill="url(#paint13_linear_0_1024)"/>
<path opacity="0.2" d="M98.9549 84.3133L62.2044 91.4573L65.0643 106.17L101.815 99.0265L98.9549 84.3133Z" fill="black"/>
<path d="M102.349 107.833L66.1411 109.665C64.3383 109.756 62.7429 108.507 62.3985 106.735L57.1863 79.921C57.0634 79.2883 57.7135 78.7854 58.2951 79.0635C58.97 79.3858 59.7199 79.5225 60.4674 79.4595L92.994 76.6772C94.8407 76.5191 96.509 77.7788 96.8625 79.598L102.35 107.83C102.35 107.831 102.35 107.832 102.349 107.833Z" fill="url(#paint14_linear_0_1024)"/>
<path d="M94.6581 94.6268C95.5008 94.4633 96.0327 93.5521 95.846 92.5923C95.6596 91.6325 94.8253 90.987 93.9826 91.1506C93.1399 91.3145 92.608 92.2253 92.7947 93.1855C92.9814 94.1453 93.8158 94.7907 94.6581 94.6268Z" fill="#EBEBEB"/>
<path d="M95.0297 92.7509C95.1164 93.1969 94.8691 93.6204 94.4775 93.6962C94.0859 93.7723 93.6979 93.4724 93.6113 93.0265C93.5246 92.5808 93.7719 92.1573 94.1635 92.0812C94.5551 92.005 94.9431 92.3049 95.0297 92.7509Z" fill="#DBDBDB"/>
<defs>
<filter id="filter0_f_0_1024" x="0" y="0" width="169" height="169" filterUnits="userSpaceOnUse" color-interpolation-filters="sRGB">
<feFlood flood-opacity="0" result="BackgroundImageFix"/>
<feBlend mode="normal" in="SourceGraphic" in2="BackgroundImageFix" result="shape"/>
<feGaussianBlur stdDeviation="27" result="effect1_foregroundBlur_0_1024"/>
</filter>
<linearGradient id="paint0_linear_0_1024" x1="54.4361" y1="42.8007" x2="118.087" y2="56.0505" gradientUnits="userSpaceOnUse">
<stop stop-color="#A259FF"/>
<stop offset="1" stop-color="#3B3B3B"/>
</linearGradient>
<linearGradient id="paint1_linear_0_1024" x1="63.9046" y1="54.0418" x2="122.812" y2="65.4025" gradientUnits="userSpaceOnUse">
<stop stop-color="#A259FF" stop-opacity="0"/>
<stop offset="1" stop-color="#FF6250"/>
</linearGradient>
<linearGradient id="paint2_linear_0_1024" x1="116.296" y1="113.919" x2="121.637" y2="118.114" gradientUnits="userSpaceOnUse">
<stop stop-color="#A259FF"/>
<stop offset="1" stop-color="#377DF7"/>
</linearGradient>
<linearGradient id="paint3_linear_0_1024" x1="55.6359" y1="119.863" x2="55.4575" y2="125.177" gradientUnits="userSpaceOnUse">
<stop stop-color="#A259FF"/>
<stop offset="1" stop-color="#377DF7"/>
</linearGradient>
<linearGradient id="paint4_linear_0_1024" x1="118.269" y1="58.849" x2="123.577" y2="58.5446" gradientUnits="userSpaceOnUse">
<stop stop-color="#A259FF"/>
<stop offset="1" stop-color="#377DF7"/>
</linearGradient>
<linearGradient id="paint5_linear_0_1024" x1="98.1173" y1="83.0739" x2="111.208" y2="85.3372" gradientUnits="userSpaceOnUse">
<stop stop-color="#A259FF"/>
<stop offset="1" stop-color="#3B3B3B"/>
</linearGradient>
<linearGradient id="paint6_linear_0_1024" x1="89.5041" y1="116.009" x2="75.3631" y2="88.2389" gradientUnits="userSpaceOnUse">
<stop stop-color="#A259FF"/>
<stop offset="1" stop-color="#3B3B3B"/>
</linearGradient>
<linearGradient id="paint7_linear_0_1024" x1="66.3759" y1="68.509" x2="100.432" y2="65.5675" gradientUnits="userSpaceOnUse">
<stop stop-color="#A259FF"/>
<stop offset="1" stop-color="#FF6250"/>
</linearGradient>
<linearGradient id="paint8_linear_0_1024" x1="92.5772" y1="76.7094" x2="96.1517" y2="76.0738" gradientUnits="userSpaceOnUse">
<stop stop-color="#A259FF"/>
<stop offset="1" stop-color="#FF6250"/>
</linearGradient>
<linearGradient id="paint9_linear_0_1024" x1="94.6923" y1="75.8893" x2="98.2664" y2="75.2537" gradientUnits="userSpaceOnUse">
<stop stop-color="#A259FF"/>
<stop offset="1" stop-color="#3B3B3B"/>
</linearGradient>
<linearGradient id="paint10_linear_0_1024" x1="66.049" y1="72.3595" x2="72.4415" y2="71.7373" gradientUnits="userSpaceOnUse">
<stop stop-color="#A259FF"/>
<stop offset="1" stop-color="#3B3B3B"/>
</linearGradient>
<linearGradient id="paint11_linear_0_1024" x1="72.5702" y1="84.6559" x2="74.9851" y2="88.0487" gradientUnits="userSpaceOnUse">
<stop stop-color="#A259FF"/>
<stop offset="1" stop-color="#FF6250"/>
</linearGradient>
<linearGradient id="paint12_linear_0_1024" x1="72.4911" y1="86.6561" x2="75.141" y2="89.7107" gradientUnits="userSpaceOnUse">
<stop stop-color="#A259FF"/>
<stop offset="1" stop-color="#FF6250"/>
</linearGradient>
<linearGradient id="paint13_linear_0_1024" x1="68.1545" y1="90.3006" x2="100.873" y2="98.8971" gradientUnits="userSpaceOnUse">
<stop stop-color="#A259FF"/>
<stop offset="1" stop-color="#3B3B3B"/>
</linearGradient>
<linearGradient id="paint14_linear_0_1024" x1="92.585" y1="98.9013" x2="35.9056" y2="71.6991" gradientUnits="userSpaceOnUse">
<stop stop-color="#A259FF"/>
<stop offset="0.666667" stop-color="white"/>
</linearGradient>
</defs>
</svg>
