<svg width="24" height="24" viewBox="0 0 24 24" fill="none" xmlns="http://www.w3.org/2000/svg">
<g clip-path="url(#clip0_2205_11433)">
<path d="M3.33933 16.9998C2.9166 16.2688 2.58799 15.4873 2.36133 14.6738C2.85464 14.4229 3.26892 14.0404 3.55836 13.5687C3.84779 13.097 4.00109 12.5544 4.0013 12.0009C4.00151 11.4475 3.84861 10.9048 3.55953 10.4328C3.27045 9.96088 2.85645 9.57809 2.36333 9.32682C2.81536 7.69231 3.67606 6.19977 4.86433 4.98982C5.32842 5.29155 5.86695 5.45898 6.42031 5.4736C6.97367 5.48822 7.52028 5.34945 7.99966 5.07265C8.47904 4.79586 8.87248 4.39182 9.13646 3.90526C9.40043 3.41871 9.52463 2.8686 9.49533 2.31582C11.1374 1.89145 12.8606 1.89213 14.5023 2.31782C14.4733 2.87059 14.5977 3.42061 14.8619 3.90703C15.1261 4.39345 15.5197 4.7973 15.9992 5.07388C16.4786 5.35047 17.0253 5.48901 17.5786 5.47417C18.1319 5.45934 18.6704 5.2917 19.1343 4.98982C19.7133 5.57982 20.2273 6.25082 20.6593 6.99982C21.0923 7.74882 21.4163 8.52982 21.6373 9.32582C21.144 9.57672 20.7297 9.9592 20.4403 10.4309C20.1509 10.9027 19.9976 11.4453 19.9974 11.9987C19.9971 12.5522 20.15 13.0949 20.4391 13.5668C20.7282 14.0388 21.1422 14.4216 21.6353 14.6728C21.1833 16.3073 20.3226 17.7999 19.1343 19.0098C18.6702 18.7081 18.1317 18.5407 17.5784 18.526C17.025 18.5114 16.4784 18.6502 15.999 18.927C15.5196 19.2038 15.1262 19.6078 14.8622 20.0944C14.5982 20.5809 14.474 21.131 14.5033 21.6838C12.8612 22.1082 11.1381 22.1075 9.49633 21.6818C9.52537 21.1291 9.40093 20.579 9.13675 20.0926C8.87257 19.6062 8.47897 19.2023 7.9995 18.9258C7.52003 18.6492 6.97338 18.5106 6.42005 18.5255C5.86673 18.5403 5.32829 18.7079 4.86433 19.0098C4.27332 18.4068 3.76092 17.7314 3.33933 16.9998ZM8.99933 17.1958C10.065 17.8105 10.8662 18.7968 11.2493 19.9658C11.7483 20.0128 12.2493 20.0138 12.7483 19.9668C13.1317 18.7977 13.9333 17.8113 14.9993 17.1968C16.0645 16.5805 17.3199 16.3793 18.5243 16.6318C18.8143 16.2238 19.0643 15.7888 19.2723 15.3338C18.4518 14.4173 17.9984 13.23 17.9993 11.9998C17.9993 10.7398 18.4693 9.56282 19.2723 8.66582C19.0629 8.21097 18.8118 7.77646 18.5223 7.36782C17.3186 7.62013 16.0641 7.4193 14.9993 6.80382C13.9337 6.18919 13.1325 5.20281 12.7493 4.03382C12.2503 3.98682 11.7493 3.98582 11.2503 4.03282C10.8669 5.20197 10.0653 6.18838 8.99933 6.80282C7.93411 7.41914 6.67881 7.62034 5.47433 7.36782C5.18489 7.77611 4.93446 8.21069 4.72633 8.66582C5.5469 9.58238 6.00021 10.7696 5.99933 11.9998C5.99933 13.2598 5.52933 14.4368 4.72633 15.3338C4.9358 15.7887 5.18687 16.2232 5.47633 16.6318C6.68005 16.3795 7.93454 16.5803 8.99933 17.1958ZM11.9993 14.9998C11.2037 14.9998 10.4406 14.6838 9.87801 14.1211C9.3154 13.5585 8.99933 12.7955 8.99933 11.9998C8.99933 11.2042 9.3154 10.4411 9.87801 9.8785C10.4406 9.31589 11.2037 8.99982 11.9993 8.99982C12.795 8.99982 13.558 9.31589 14.1206 9.8785C14.6833 10.4411 14.9993 11.2042 14.9993 11.9998C14.9993 12.7955 14.6833 13.5585 14.1206 14.1211C13.558 14.6838 12.795 14.9998 11.9993 14.9998ZM11.9993 12.9998C12.2645 12.9998 12.5189 12.8945 12.7064 12.7069C12.894 12.5194 12.9993 12.265 12.9993 11.9998C12.9993 11.7346 12.894 11.4803 12.7064 11.2927C12.5189 11.1052 12.2645 10.9998 11.9993 10.9998C11.7341 10.9998 11.4798 11.1052 11.2922 11.2927C11.1047 11.4803 10.9993 11.7346 10.9993 11.9998C10.9993 12.265 11.1047 12.5194 11.2922 12.7069C11.4798 12.8945 11.7341 12.9998 11.9993 12.9998Z" fill="white"/>
</g>
<defs>
<clipPath id="clip0_2205_11433">
<rect width="24" height="24" fill="white"/>
</clipPath>
</defs>
</svg>
