<svg width="24" height="24" viewBox="0 0 24 24" fill="none" xmlns="http://www.w3.org/2000/svg">
<path d="M21.7104 20.2894L18.0004 16.6094C19.4405 14.8138 20.1379 12.5347 19.9492 10.2407C19.7605 7.94672 18.7001 5.8122 16.9859 4.27606C15.2718 2.73992 13.0342 1.91893 10.7333 1.98189C8.43243 2.04485 6.24311 2.98698 4.61553 4.61456C2.98795 6.24214 2.04582 8.43145 1.98286 10.7323C1.9199 13.0332 2.7409 15.2708 4.27704 16.9849C5.81318 18.6991 7.94769 19.7595 10.2417 19.9482C12.5357 20.1369 14.8148 19.4395 16.6104 17.9994L20.2904 21.6794C20.3834 21.7731 20.494 21.8475 20.6158 21.8983C20.7377 21.9491 20.8684 21.9752 21.0004 21.9752C21.1324 21.9752 21.2631 21.9491 21.385 21.8983C21.5068 21.8475 21.6174 21.7731 21.7104 21.6794C21.8906 21.493 21.9914 21.2438 21.9914 20.9844C21.9914 20.7251 21.8906 20.4759 21.7104 20.2894ZM11.0004 17.9994C9.61592 17.9994 8.26255 17.5889 7.1114 16.8197C5.96026 16.0505 5.06305 14.9573 4.53324 13.6782C4.00342 12.3991 3.8648 10.9917 4.1349 9.63378C4.40499 8.27592 5.07168 7.02864 6.05065 6.04967C7.02961 5.0707 8.27689 4.40402 9.63476 4.13392C10.9926 3.86382 12.4001 4.00245 13.6792 4.53226C14.9583 5.06207 16.0515 5.95928 16.8207 7.11042C17.5899 8.26157 18.0004 9.61495 18.0004 10.9994C18.0004 12.8559 17.2629 14.6364 15.9501 15.9492C14.6374 17.2619 12.8569 17.9994 11.0004 17.9994Z" fill="white"/>
</svg>
