<svg width="80" height="80" viewBox="0 0 80 80" fill="none" xmlns="http://www.w3.org/2000/svg">
<path d="M7.5 18.75H47.5C50.1522 18.75 52.6957 19.8036 54.5711 21.6789C56.4464 23.5543 57.5 26.0978 57.5 28.75V58.75C57.5 59.413 57.2366 60.0489 56.7678 60.5178C56.2989 60.9866 55.663 61.25 55 61.25H15C12.3478 61.25 9.8043 60.1964 7.92893 58.3211C6.05357 56.4457 5 53.9022 5 51.25V21.25C5 20.587 5.26339 19.9511 5.73223 19.4822C6.20107 19.0134 6.83696 18.75 7.5 18.75V18.75Z" stroke="white" stroke-width="3" stroke-linecap="round" stroke-linejoin="round"/>
<path d="M57.5 35L75 25V55L57.5 45" stroke="white" stroke-width="3" stroke-linecap="round" stroke-linejoin="round"/>
</svg>
