<svg width="24" height="24" viewBox="0 0 24 24" fill="none" xmlns="http://www.w3.org/2000/svg">
<path d="M20.0001 8.00049L14.0001 2.74049C13.4501 2.24854 12.738 1.97656 12.0001 1.97656C11.2622 1.97656 10.5501 2.24854 10.0001 2.74049L4.00009 8.00049C3.68246 8.28457 3.42899 8.63305 3.25657 9.02274C3.08414 9.41243 2.99671 9.83438 3.00009 10.2605V19.0005C3.00009 19.7961 3.31617 20.5592 3.87877 21.1218C4.44138 21.6844 5.20445 22.0005 6.00009 22.0005H18.0001C18.7957 22.0005 19.5588 21.6844 20.1214 21.1218C20.684 20.5592 21.0001 19.7961 21.0001 19.0005V10.2505C21.0021 9.82606 20.9139 9.40603 20.7416 9.01818C20.5692 8.63032 20.3165 8.28345 20.0001 8.00049ZM14.0001 20.0005H10.0001V15.0005C10.0001 14.7353 10.1055 14.4809 10.293 14.2934C10.4805 14.1059 10.7349 14.0005 11.0001 14.0005H13.0001C13.2653 14.0005 13.5197 14.1059 13.7072 14.2934C13.8947 14.4809 14.0001 14.7353 14.0001 15.0005V20.0005ZM19.0001 19.0005C19.0001 19.2657 18.8947 19.5201 18.7072 19.7076C18.5197 19.8951 18.2653 20.0005 18.0001 20.0005H16.0001V15.0005C16.0001 14.2048 15.684 13.4418 15.1214 12.8792C14.5588 12.3166 13.7957 12.0005 13.0001 12.0005H11.0001C10.2044 12.0005 9.44138 12.3166 8.87877 12.8792C8.31616 13.4418 8.00009 14.2048 8.00009 15.0005V20.0005H6.00009C5.73488 20.0005 5.48052 19.8951 5.29299 19.7076C5.10545 19.5201 5.00009 19.2657 5.00009 19.0005V10.2505C5.00027 10.1085 5.03069 9.96819 5.08931 9.83887C5.14794 9.70956 5.23343 9.5942 5.3401 9.50049L11.3401 4.25049C11.5226 4.09018 11.7572 4.00176 12.0001 4.00176C12.243 4.00176 12.4776 4.09018 12.6601 4.25049L18.6601 9.50049C18.7668 9.5942 18.8523 9.70956 18.9109 9.83887C18.9695 9.96819 18.9999 10.1085 19.0001 10.2505V19.0005Z" fill="#363537"/>
</svg>
