<svg width="21" height="21" viewBox="0 0 21 21" fill="none" xmlns="http://www.w3.org/2000/svg">
<g clip-path="url(#clip0_2301_12241)">
<path fill-rule="evenodd" clip-rule="evenodd" d="M14.4375 19.6875C15.8299 19.6875 17.1652 19.1344 18.1498 18.1498C19.1344 17.1652 19.6875 15.8299 19.6875 14.4375C19.6875 13.0451 19.1344 11.7098 18.1498 10.7252C17.1652 9.74062 15.8299 9.1875 14.4375 9.1875C13.0451 9.1875 11.7098 9.74062 10.7252 10.7252C9.74062 11.7098 9.1875 13.0451 9.1875 14.4375C9.1875 15.8299 9.74062 17.1652 10.7252 18.1498C11.7098 19.1344 13.0451 19.6875 14.4375 19.6875ZM21 14.4375C21 16.178 20.3086 17.8472 19.0779 19.0779C17.8472 20.3086 16.178 21 14.4375 21C12.697 21 11.0278 20.3086 9.79711 19.0779C8.5664 17.8472 7.875 16.178 7.875 14.4375C7.875 12.697 8.5664 11.0278 9.79711 9.79711C11.0278 8.5664 12.697 7.875 14.4375 7.875C16.178 7.875 17.8472 8.5664 19.0779 9.79711C20.3086 11.0278 21 12.697 21 14.4375Z" fill="#00AA93"/>
<path d="M12.3871 15.6765C12.4487 16.4588 13.0669 17.0678 14.176 17.1413V17.7188H14.6682V17.1373C15.8166 17.0573 16.4873 16.443 16.4873 15.5531C16.4873 14.742 15.9754 14.3246 15.0567 14.1094L14.6682 14.0175V12.4425C15.1617 12.4989 15.4741 12.768 15.5489 13.1408H16.4125C16.3508 12.3861 15.7037 11.7968 14.6682 11.7324V11.1562H14.176V11.7469C13.1956 11.8427 12.5288 12.432 12.5288 13.2667C12.5288 14.0044 13.0249 14.4742 13.8505 14.6659L14.176 14.7459V16.4154C13.672 16.3393 13.3373 16.0611 13.2625 15.6765H12.3857H12.3871ZM14.1721 13.8994C13.6877 13.7878 13.4252 13.5581 13.4252 13.2142C13.4252 12.8284 13.7087 12.5396 14.176 12.4556V13.8994H14.1721ZM14.7391 14.8785C15.3284 15.015 15.5987 15.2355 15.5987 15.6253C15.5987 16.0702 15.2614 16.3748 14.6682 16.4312V14.8628L14.7391 14.8785Z" fill="#00AA93"/>
<path d="M1.3125 0C0.964403 0 0.630564 0.138281 0.384422 0.384422C0.138281 0.630564 0 0.964403 0 1.3125L0 11.8125C0 12.1606 0.138281 12.4944 0.384422 12.7406C0.630564 12.9867 0.964403 13.125 1.3125 13.125H6.67144C6.74756 12.6735 6.86175 12.2351 7.01006 11.8125H3.9375C3.9375 11.1163 3.66094 10.4486 3.16866 9.95634C2.67637 9.46406 2.00869 9.1875 1.3125 9.1875V3.9375C2.00869 3.9375 2.67637 3.66094 3.16866 3.16866C3.66094 2.67637 3.9375 2.00869 3.9375 1.3125H17.0625C17.0625 2.00869 17.3391 2.67637 17.8313 3.16866C18.3236 3.66094 18.9913 3.9375 19.6875 3.9375V8.568C20.1863 9.01425 20.6286 9.5235 21 10.0826V1.3125C21 0.964403 20.8617 0.630564 20.6156 0.384422C20.3694 0.138281 20.0356 0 19.6875 0L1.3125 0Z" fill="#00AA93"/>
<path d="M13.1224 6.67183L13.125 6.56289C13.1247 6.11086 13.0077 5.66655 12.7853 5.273C12.5629 4.87946 12.2427 4.55001 11.8556 4.31657C11.4685 4.08313 11.0277 3.95361 10.5758 3.94055C10.124 3.92749 9.67643 4.03133 9.2765 4.24203C8.87657 4.45272 8.53782 4.76312 8.29307 5.14316C8.04832 5.5232 7.90585 5.96001 7.87947 6.41128C7.8531 6.86254 7.9437 7.31297 8.14251 7.71894C8.34131 8.12491 8.64159 8.47266 9.01425 8.72852C10.1479 7.64869 11.5786 6.93245 13.1224 6.67183Z" fill="#00AA93"/>
</g>
<defs>
<clipPath id="clip0_2301_12241">
<rect width="21" height="21" fill="white"/>
</clipPath>
</defs>
</svg>
