<svg width="24" height="24" viewBox="0 0 24 24" fill="none" xmlns="http://www.w3.org/2000/svg">
<path d="M10.7487 24V21.4917C9.61497 21.2583 8.63658 20.8111 7.81348 20.15C6.98952 19.4889 6.38503 18.5556 6 17.35L8.37433 16.475C8.69519 17.4083 9.17134 18.1181 9.80278 18.6042C10.4334 19.0903 11.262 19.3333 12.2888 19.3333C13.1658 19.3333 13.9093 19.1537 14.5194 18.7943C15.1286 18.4342 15.4332 17.875 15.4332 17.1167C15.4332 16.4361 15.1979 15.8963 14.7273 15.4973C14.2567 15.0991 13.1658 14.6472 11.4545 14.1417C9.61497 13.6167 8.35294 12.9898 7.66845 12.261C6.98396 11.5314 6.64171 10.6417 6.64171 9.59167C6.64171 8.32778 7.09091 7.34583 7.98931 6.64583C8.8877 5.94583 9.80749 5.54722 10.7487 5.45V3H13.3155V5.45C14.385 5.60556 15.2676 5.96022 15.9632 6.514C16.658 7.06856 17.1658 7.74444 17.4866 8.54167L15.1123 9.475C14.8556 8.85278 14.492 8.38611 14.0214 8.075C13.5508 7.76389 12.9091 7.60833 12.0963 7.60833C11.1551 7.60833 10.4385 7.79811 9.94652 8.17767C9.45455 8.55644 9.20856 9.02778 9.20856 9.59167C9.20856 10.2333 9.52941 10.7389 10.1711 11.1083C10.8128 11.4778 11.9251 11.8667 13.508 12.275C14.984 12.6639 16.1018 13.2811 16.8616 14.1265C17.6205 14.9727 18 15.95 18 17.0583C18 18.4389 17.5508 19.4889 16.6524 20.2083C15.754 20.9278 14.6417 21.375 13.3155 21.55V24H10.7487Z" fill="white"/>
</svg>
