<svg width="24" height="24" viewBox="0 0 24 24" fill="none" xmlns="http://www.w3.org/2000/svg">
<path fill-rule="evenodd" clip-rule="evenodd" d="M2 7C2 6.44772 2.44772 6 3 6H20.5C21.0523 6 21.5 6.44772 21.5 7C21.5 7.55228 21.0523 8 20.5 8H3C2.44772 8 2 7.55228 2 7Z" fill="white"/>
<path fill-rule="evenodd" clip-rule="evenodd" d="M16.2929 2.29289C16.6834 1.90237 17.3166 1.90237 17.7071 2.29289L21.7071 6.29289C22.0976 6.68342 22.0976 7.31658 21.7071 7.70711L17.7071 11.7071C17.3166 12.0976 16.6834 12.0976 16.2929 11.7071C15.9024 11.3166 15.9024 10.6834 16.2929 10.2929L19.5858 7L16.2929 3.70711C15.9024 3.31658 15.9024 2.68342 16.2929 2.29289Z" fill="white"/>
<path fill-rule="evenodd" clip-rule="evenodd" d="M2.5 17C2.5 16.4477 2.94772 16 3.5 16H21C21.5523 16 22 16.4477 22 17C22 17.5523 21.5523 18 21 18H3.5C2.94772 18 2.5 17.5523 2.5 17Z" fill="white"/>
<path fill-rule="evenodd" clip-rule="evenodd" d="M7.70711 12.2929C8.09763 12.6834 8.09763 13.3166 7.70711 13.7071L4.41421 17L7.70711 20.2929C8.09763 20.6834 8.09763 21.3166 7.70711 21.7071C7.31658 22.0976 6.68342 22.0976 6.29289 21.7071L2.29289 17.7071C1.90237 17.3166 1.90237 16.6834 2.29289 16.2929L6.29289 12.2929C6.68342 11.9024 7.31658 11.9024 7.70711 12.2929Z" fill="white"/>
</svg>
