<svg width="23" height="32" viewBox="0 0 23 32" fill="none" xmlns="http://www.w3.org/2000/svg">
<g clip-path="url(#clip0_2301_12200)">
<path d="M32.0003 13.22V30H4.00026V8H7.00026V6H3.75026C3.51649 6.00391 3.28579 6.05383 3.07132 6.14691C2.85686 6.23999 2.66283 6.37441 2.50032 6.54249C2.33781 6.71057 2.21 6.90902 2.1242 7.1265C2.0384 7.34398 1.99628 7.57624 2.00026 7.81V30.19C1.99628 30.4238 2.0384 30.656 2.1242 30.8735C2.21 31.091 2.33781 31.2894 2.50032 31.4575C2.66283 31.6256 2.85686 31.76 3.07132 31.8531C3.28579 31.9462 3.51649 31.9961 3.75026 32H32.2503C32.484 31.9961 32.7147 31.9462 32.9292 31.8531C33.1437 31.76 33.3377 31.6256 33.5002 31.4575C33.6627 31.2894 33.7905 31.091 33.8763 30.8735C33.9621 30.656 34.0042 30.4238 34.0003 30.19V12.34C33.3805 12.73 32.7066 13.0266 32.0003 13.22Z" fill="black"/>
<path d="M8 14H10V16H8V14Z" fill="black"/>
<path d="M14 14H16V16H14V14Z" fill="black"/>
<path d="M20 14H22V16H20V14Z" fill="black"/>
<path d="M8 19H10V21H8V19Z" fill="black"/>
<path d="M14 19H16V21H14V19Z" fill="black"/>
<path d="M20 19H22V21H20V19Z" fill="black"/>
<path d="M8 24H10V26H8V24Z" fill="black"/>
<path d="M14 24H16V26H14V24Z" fill="black"/>
<path d="M20 24H22V26H20V24Z" fill="black"/>
<path d="M10 10C10.2652 10 10.5196 9.89464 10.7071 9.70711C10.8946 9.51957 11 9.26522 11 9V3C11 2.73478 10.8946 2.48043 10.7071 2.29289C10.5196 2.10536 10.2652 2 10 2C9.73478 2 9.48043 2.10536 9.29289 2.29289C9.10536 2.48043 9 2.73478 9 3V9C9 9.26522 9.10536 9.51957 9.29289 9.70711C9.48043 9.89464 9.73478 10 10 10Z" fill="black"/>
<path d="M22.5 6H13V8H22.78C22.5968 7.34903 22.5026 6.67625 22.5 6Z" fill="black"/>
</g>
<defs>
<clipPath id="clip0_2301_12200">
<rect width="23" height="32" fill="white"/>
</clipPath>
</defs>
</svg>
