<svg width="26" height="26" viewBox="0 0 26 26" fill="none" xmlns="http://www.w3.org/2000/svg">
<path d="M24.0321 12.8228L14.2212 3.01696L13.5636 2.35934C13.4137 2.21049 13.2111 2.12695 12.9999 2.12695C12.7887 2.12695 12.5861 2.21049 12.4362 2.35934L1.96768 12.8228C1.81415 12.9758 1.69281 13.1579 1.61082 13.3585C1.52884 13.5591 1.48787 13.7741 1.49034 13.9908C1.5005 14.8845 2.24444 15.598 3.13819 15.598H4.21729V23.8677H21.7825V15.598H22.8845C23.3187 15.598 23.7274 15.4279 24.0347 15.1207C24.186 14.9699 24.3058 14.7906 24.3873 14.5931C24.4688 14.3957 24.5103 14.1841 24.5095 13.9705C24.5095 13.5388 24.3394 13.13 24.0321 12.8228ZM14.4218 22.0396H11.578V16.8599H14.4218V22.0396ZM19.9544 13.7699V22.0396H16.0468V16.2506C16.0468 15.6894 15.5923 15.2349 15.0312 15.2349H10.9687C10.4075 15.2349 9.95303 15.6894 9.95303 16.2506V22.0396H6.04542V13.7699H3.60792L13.0024 4.38297L13.589 4.9695L22.3944 13.7699H19.9544Z" fill="#00AA93"/>
</svg>
