<svg width="40" height="40" viewBox="0 0 40 40" fill="none" xmlns="http://www.w3.org/2000/svg">
<path d="M19.7697 7.50001C17.1638 7.54697 14.6378 8.4073 12.545 9.96065C10.4522 11.514 8.89724 13.6827 8.09769 16.1633C7.29814 18.6439 7.29398 21.3124 8.08578 23.7955C8.87758 26.2786 10.4257 28.4521 12.5137 30.012C12.832 30.2507 13.0424 30.6061 13.0986 30.9999C13.1549 31.3937 13.0524 31.7937 12.8137 32.112C12.575 32.4303 12.2197 32.6407 11.8258 32.6969C11.432 32.7532 11.032 32.6507 10.7137 32.412C8.1954 30.5295 6.30915 27.9256 5.30533 24.946C4.3015 21.9664 4.22757 18.7519 5.09335 15.7293C5.95912 12.7067 7.72366 10.0188 10.1528 8.0225C12.5819 6.02618 15.5606 4.8158 18.6937 4.55201L17.5257 3.38001C17.2607 3.09566 17.1165 2.71956 17.1234 2.33096C17.1302 1.94236 17.2876 1.57159 17.5625 1.29676C17.8373 1.02194 18.2081 0.864512 18.5967 0.857656C18.9853 0.850799 19.3614 0.995046 19.6457 1.26001L23.8897 5.50201C24.1706 5.78326 24.3284 6.16451 24.3284 6.56201C24.3284 6.95951 24.1706 7.34076 23.8897 7.62201L19.6457 11.868C19.3614 12.133 18.9853 12.2772 18.5967 12.2704C18.2081 12.2635 17.8373 12.1061 17.5625 11.8313C17.2876 11.5564 17.1302 11.1857 17.1234 10.7971C17.1165 10.4084 17.2607 10.0324 17.5257 9.74801L19.7697 7.50001ZM20.2297 32.496C22.8356 32.449 25.3616 31.5887 27.4544 30.0354C29.5472 28.482 31.1022 26.3134 31.9017 23.8327C32.7013 21.3521 32.7054 18.6836 31.9136 16.2005C31.1218 13.7174 29.5737 11.5439 27.4857 9.98401C27.1674 9.74531 26.957 9.38997 26.9008 8.99614C26.8445 8.60231 26.947 8.20227 27.1857 7.88401C27.4244 7.56575 27.7798 7.35534 28.1736 7.29908C28.5674 7.24282 28.9674 7.34531 29.2857 7.58401C31.804 9.46654 33.6903 12.0704 34.6941 15.05C35.6979 18.0297 35.7718 21.2441 34.9061 24.2667C34.0403 27.2893 32.2758 29.9772 29.8467 31.9735C27.4176 33.9698 24.4388 35.1802 21.3057 35.444L22.4737 36.614C22.617 36.7523 22.7314 36.9178 22.8101 37.1007C22.8888 37.2837 22.9303 37.4805 22.9321 37.6797C22.9339 37.8789 22.896 38.0764 22.8207 38.2608C22.7454 38.4451 22.6341 38.6127 22.4933 38.7536C22.3525 38.8945 22.1851 39.0059 22.0008 39.0815C21.8165 39.157 21.619 39.195 21.4198 39.1934C21.2207 39.1917 21.0238 39.1505 20.8408 39.0719C20.6577 38.9934 20.4921 38.8792 20.3537 38.736L16.1097 34.494C15.8288 34.2128 15.671 33.8315 15.671 33.434C15.671 33.0365 15.8288 32.6553 16.1097 32.374L20.3537 28.13C20.491 27.9826 20.6566 27.8644 20.8406 27.7824C21.0246 27.7005 21.2233 27.6564 21.4247 27.6528C21.6261 27.6493 21.8261 27.6863 22.0129 27.7618C22.1997 27.8372 22.3693 27.9495 22.5118 28.0919C22.6542 28.2344 22.7665 28.404 22.842 28.5908C22.9174 28.7776 22.9544 28.9776 22.9509 29.1791C22.9473 29.3805 22.9033 29.5791 22.8213 29.7631C22.7393 29.9471 22.6211 30.1127 22.4737 30.25L20.2297 32.496Z" fill="white"/>
</svg>
