<svg width="16" height="16" viewBox="0 0 16 16" fill="none" xmlns="http://www.w3.org/2000/svg">
<path d="M12.6667 6.66602H3.33333C2.59695 6.66602 2 7.26297 2 7.99935V13.3327C2 14.0691 2.59695 14.666 3.33333 14.666H12.6667C13.403 14.666 14 14.0691 14 13.3327V7.99935C14 7.26297 13.403 6.66602 12.6667 6.66602Z" stroke="black" stroke-width="2" stroke-linecap="round" stroke-linejoin="round"/>
<path d="M4 4C4 3.46957 4.21071 2.96086 4.58579 2.58579C4.96086 2.21071 5.46957 2 6 2H10C10.5304 2 11.0391 2.21071 11.4142 2.58579C11.7893 2.96086 12 3.46957 12 4V6.66667H4V4Z" stroke="black" stroke-width="2" stroke-linecap="round" stroke-linejoin="round"/>
</svg>
