<svg width="17" height="21" viewBox="0 0 17 21" fill="none" xmlns="http://www.w3.org/2000/svg">
<path d="M8.5 10.5C7.33125 10.5 6.33073 9.98594 5.49844 8.95781C4.66615 7.92969 4.25 6.69375 4.25 5.25C4.25 3.80625 4.66615 2.57031 5.49844 1.54219C6.33073 0.514063 7.33125 0 8.5 0C9.66875 0 10.6693 0.514063 11.5016 1.54219C12.3339 2.57031 12.75 3.80625 12.75 5.25C12.75 6.69375 12.3339 7.92969 11.5016 8.95781C10.6693 9.98594 9.66875 10.5 8.5 10.5ZM0 21V17.325C0 16.5813 0.155125 15.8974 0.465375 15.2736C0.774917 14.6506 1.18646 14.175 1.7 13.8469C2.79792 13.1687 3.91354 12.6599 5.04688 12.3204C6.18021 11.9818 7.33125 11.8125 8.5 11.8125C9.66875 11.8125 10.8198 11.9818 11.9531 12.3204C13.0865 12.6599 14.2021 13.1687 15.3 13.8469C15.8135 14.175 16.2251 14.6506 16.5346 15.2736C16.8449 15.8974 17 16.5813 17 17.325V21H0Z" fill="white"/>
</svg>
