<svg width="71" height="30" viewBox="0 0 71 30" fill="none" xmlns="http://www.w3.org/2000/svg">
<path d="M0.5 27.2692H2.39582C2.70512 27.2692 2.99701 27.1261 3.18641 26.8816L3.91394 25.9423C4.28452 25.4639 4.99181 25.4217 5.41666 25.8526L7.77607 28.246C7.964 28.4366 8.22052 28.544 8.48821 28.544H11.1966C11.4103 28.544 11.6184 28.4755 11.7903 28.3487L12.5116 27.8166C12.9307 27.5074 13.517 27.5716 13.8592 27.9643L14.5574 28.7656C14.9135 29.1743 15.5304 29.2248 15.9483 28.8795L19.8461 25.6589C20.2639 25.3137 20.8808 25.3642 21.2369 25.7729L21.7263 26.3344C22.1452 26.8151 22.9009 26.7864 23.2819 26.2752L24.7119 24.3571C24.8446 24.1791 25.0329 24.0503 25.247 23.991L27.862 23.2676C28.1813 23.1793 28.4361 22.9385 28.5425 22.6247L29.7312 19.1169C29.8281 18.831 30.049 18.6041 30.3322 18.4996L32.1085 17.8444C32.3449 17.7572 32.5396 17.584 32.6538 17.3594L32.916 16.8435C33.2798 16.1278 34.2962 16.111 34.6835 16.8143L36.1498 19.4772C36.3949 19.9223 36.9349 20.1128 37.405 19.9201L40.0212 18.8478C40.3033 18.7322 40.5172 18.4942 40.6023 18.2015L42.7919 10.663C42.9415 10.1481 43.4704 9.84281 43.991 9.97083L44.9148 10.198C45.3503 10.3051 45.8038 10.1092 46.0243 9.71871L47.2949 7.46905C47.5693 6.98319 48.207 6.84693 48.656 7.17819L49.0436 7.46413C49.303 7.65547 49.6721 7.56809 49.8181 7.28078V7.28078C49.9905 6.9417 50.4561 6.89526 50.6921 7.19363L52.0218 8.87539C52.5232 9.50944 53.5306 9.31754 53.7638 8.54357L55.4709 2.87602C55.6462 2.29427 56.2954 2.00192 56.8472 2.25632L58.6183 3.07296C59.0022 3.24996 59.4559 3.16647 59.7516 2.8644L61.7721 0.800448C61.9602 0.608296 62.2178 0.5 62.4867 0.5H65.4109C65.8596 0.5 66.2534 0.798953 66.3741 1.2312L67.1031 3.84339C67.3318 4.66299 68.4145 4.8406 68.8931 4.13703L70.5 1.77473" stroke="#FB406E" stroke-linecap="round"/>
</svg>
