<svg width="80" height="80" viewBox="0 0 80 80" fill="none" xmlns="http://www.w3.org/2000/svg">
<path d="M6.25 67.5H28.75C31.9639 67.5 35.1057 66.547 37.778 64.7614C40.4503 62.9758 42.5331 60.4379 43.763 57.4686C44.993 54.4993 45.3148 51.232 44.6878 48.0798C44.0608 44.9276 42.5131 42.0321 40.2405 39.7595C37.9679 37.4869 35.0724 35.9393 31.9202 35.3122C28.768 34.6852 25.5007 35.007 22.5314 36.237C19.5621 37.4669 17.0242 39.5497 15.2386 42.222C13.453 44.8943 12.5 48.0361 12.5 51.25C12.5 62.5 6.25 67.5 6.25 67.5Z" stroke="white" stroke-width="3" stroke-linecap="round" stroke-linejoin="round"/>
<path d="M35.125 36.3125C41.125 28.2188 56.375 9.6875 70.3125 9.6875C70.3125 23.625 51.7813 38.875 43.6875 44.875" stroke="white" stroke-width="3" stroke-linecap="round" stroke-linejoin="round"/>
<path d="M41.5625 28.3125C45.7968 30.7022 49.2978 34.2032 51.6875 38.4375" stroke="white" stroke-width="3" stroke-linecap="round" stroke-linejoin="round"/>
</svg>
