<svg width="20" height="13" viewBox="0 0 20 13" fill="none" xmlns="http://www.w3.org/2000/svg">
<path d="M4.09689 2.38695C7.35541 -0.79565 12.645 -0.79565 15.9035 2.38695L16.2958 2.77291C16.4603 2.93109 16.4603 3.19051 16.2958 3.34869L14.9544 4.65843C14.8722 4.74068 14.7393 4.74068 14.657 4.65843L14.1192 4.13327C11.8414 1.91241 8.15897 1.91241 5.88117 4.13327L5.30539 4.69639C5.22313 4.77865 5.09026 4.77865 5.00801 4.69639L3.66663 3.38665C3.50213 3.22847 3.50213 2.96906 3.66663 2.81087L4.09689 2.38695ZM18.6812 5.09501L19.877 6.25922C20.0415 6.4174 20.0415 6.67682 19.877 6.835L14.4925 12.0929C14.328 12.2511 14.0623 12.2511 13.9041 12.0929L10.0825 8.35986C10.0445 8.3219 9.97489 8.3219 9.93693 8.35986L6.11527 12.0929C5.95077 12.2511 5.68502 12.2511 5.52684 12.0929L0.123381 6.835C-0.041127 6.67682 -0.041127 6.4174 0.123381 6.25922L1.31923 5.09501C1.48374 4.93683 1.74948 4.93683 1.90766 5.09501L5.72931 8.82808C5.76728 8.86604 5.83688 8.86604 5.87484 8.82808L9.69649 5.09501C9.861 4.93683 10.1267 4.93683 10.2849 5.09501L14.1066 8.82808C14.1445 8.86604 14.2141 8.86604 14.2521 8.82808L18.0738 5.09501C18.2509 4.93683 18.5167 4.93683 18.6812 5.09501Z" fill="white"/>
</svg>
