<svg width="32" height="32" viewBox="0 0 32 32" fill="none" xmlns="http://www.w3.org/2000/svg">
<g clip-path="url(#clip0_0_912)">
<path d="M30.4062 1.25L17.9199 10.5237L20.2289 5.05235L30.4062 1.25Z" fill="#E2761B" stroke="#E2761B" stroke-width="0.3125" stroke-linecap="round" stroke-linejoin="round"/>
<path d="M1.58203 1.25L13.9679 10.6116L11.7718 5.05235L1.58203 1.25Z" fill="#E4761B" stroke="#E4761B" stroke-width="0.3125" stroke-linecap="round" stroke-linejoin="round"/>
<path d="M25.9134 22.7461L22.5879 27.841L29.7032 29.7986L31.7487 22.859L25.9134 22.7461Z" fill="#E4761B" stroke="#E4761B" stroke-width="0.3125" stroke-linecap="round" stroke-linejoin="round"/>
<path d="M0.263672 22.859L2.29661 29.7986L9.41191 27.841L6.08642 22.7461L0.263672 22.859Z" fill="#E4761B" stroke="#E4761B" stroke-width="0.3125" stroke-linecap="round" stroke-linejoin="round"/>
<path d="M9.01009 14.1376L7.02734 17.1368L14.0924 17.4506L13.8415 9.8584L9.01009 14.1376Z" fill="#E4761B" stroke="#E4761B" stroke-width="0.3125" stroke-linecap="round" stroke-linejoin="round"/>
<path d="M22.9772 14.1376L18.0831 9.77051L17.9199 17.4505L24.9725 17.1368L22.9772 14.1376Z" fill="#E4761B" stroke="#E4761B" stroke-width="0.3125" stroke-linecap="round" stroke-linejoin="round"/>
<path d="M9.41211 27.8409L13.6537 25.7704L9.98936 22.9092L9.41211 27.8409Z" fill="#E4761B" stroke="#E4761B" stroke-width="0.3125" stroke-linecap="round" stroke-linejoin="round"/>
<path d="M18.334 25.7704L22.5881 27.8409L21.9983 22.9092L18.334 25.7704Z" fill="#E4761B" stroke="#E4761B" stroke-width="0.3125" stroke-linecap="round" stroke-linejoin="round"/>
<path d="M22.5881 27.8411L18.334 25.7705L18.6728 28.5438L18.6352 29.7109L22.5881 27.8411Z" fill="#D7C1B3" stroke="#D7C1B3" stroke-width="0.3125" stroke-linecap="round" stroke-linejoin="round"/>
<path d="M9.41211 27.8411L13.3651 29.7109L13.34 28.5438L13.6537 25.7705L9.41211 27.8411Z" fill="#D7C1B3" stroke="#D7C1B3" stroke-width="0.3125" stroke-linecap="round" stroke-linejoin="round"/>
<path d="M13.4275 21.0771L9.88867 20.0355L12.3859 18.8936L13.4275 21.0771Z" fill="#233447" stroke="#233447" stroke-width="0.3125" stroke-linecap="round" stroke-linejoin="round"/>
<path d="M18.5605 21.0771L19.6021 18.8936L22.1119 20.0355L18.5605 21.0771Z" fill="#233447" stroke="#233447" stroke-width="0.3125" stroke-linecap="round" stroke-linejoin="round"/>
<path d="M9.41143 27.841L10.0138 22.7461L6.08594 22.859L9.41143 27.841Z" fill="#CD6116" stroke="#CD6116" stroke-width="0.3125" stroke-linecap="round" stroke-linejoin="round"/>
<path d="M21.9863 22.7461L22.5887 27.841L25.9142 22.859L21.9863 22.7461Z" fill="#CD6116" stroke="#CD6116" stroke-width="0.3125" stroke-linecap="round" stroke-linejoin="round"/>
<path d="M24.9725 17.1367L17.9199 17.4504L18.5725 21.0771L19.614 18.8936L22.1238 20.0355L24.9725 17.1367Z" fill="#CD6116" stroke="#CD6116" stroke-width="0.3125" stroke-linecap="round" stroke-linejoin="round"/>
<path d="M9.88852 20.0355L12.3983 18.8936L13.4273 21.0771L14.0924 17.4504L7.02734 17.1367L9.88852 20.0355Z" fill="#CD6116" stroke="#CD6116" stroke-width="0.3125" stroke-linecap="round" stroke-linejoin="round"/>
<path d="M7.02734 17.1367L9.98891 22.9093L9.88852 20.0355L7.02734 17.1367Z" fill="#E4751F" stroke="#E4751F" stroke-width="0.3125" stroke-linecap="round" stroke-linejoin="round"/>
<path d="M22.1235 20.0355L21.998 22.9093L24.9722 17.1367L22.1235 20.0355Z" fill="#E4751F" stroke="#E4751F" stroke-width="0.3125" stroke-linecap="round" stroke-linejoin="round"/>
<path d="M14.0928 17.4502L13.4277 21.0769L14.256 25.3561L14.4442 19.7216L14.0928 17.4502Z" fill="#E4751F" stroke="#E4751F" stroke-width="0.3125" stroke-linecap="round" stroke-linejoin="round"/>
<path d="M17.9209 17.4502L17.582 19.709L17.7326 25.3561L18.5734 21.0769L17.9209 17.4502Z" fill="#E4751F" stroke="#E4751F" stroke-width="0.3125" stroke-linecap="round" stroke-linejoin="round"/>
<path d="M18.5732 21.0777L17.7324 25.3569L18.3348 25.771L21.9991 22.9099L22.1246 20.0361L18.5732 21.0777Z" fill="#F6851B" stroke="#F6851B" stroke-width="0.3125" stroke-linecap="round" stroke-linejoin="round"/>
<path d="M9.88867 20.0361L9.98906 22.9099L13.6534 25.771L14.2557 25.3569L13.4275 21.0777L9.88867 20.0361Z" fill="#F6851B" stroke="#F6851B" stroke-width="0.3125" stroke-linecap="round" stroke-linejoin="round"/>
<path d="M18.6356 29.7116L18.6733 28.5445L18.3596 28.2685H13.6286L13.34 28.5445L13.3651 29.7116L9.41211 27.8418L10.7925 28.9712L13.5909 30.9163H18.3972L21.2082 28.9712L22.5886 27.8418L18.6356 29.7116Z" fill="#C0AD9E" stroke="#C0AD9E" stroke-width="0.3125" stroke-linecap="round" stroke-linejoin="round"/>
<path d="M18.3344 25.7706L17.732 25.3564H14.2559L13.6536 25.7706L13.3398 28.5439L13.6285 28.2678H18.3595L18.6732 28.5439L18.3344 25.7706Z" fill="#161616" stroke="#161616" stroke-width="0.3125" stroke-linecap="round" stroke-linejoin="round"/>
<path d="M30.9332 11.1261L31.9999 6.00608L30.4061 1.25L18.334 10.21L22.9771 14.1378L29.5403 16.0578L30.9959 14.3637L30.3685 13.912L31.3724 12.9959L30.5944 12.3935L31.5983 11.628L30.9332 11.1261Z" fill="#763D16" stroke="#763D16" stroke-width="0.3125" stroke-linecap="round" stroke-linejoin="round"/>
<path d="M0 6.00608L1.06667 11.1261L0.38902 11.628L1.39294 12.3935L0.627451 12.9959L1.63137 13.912L1.00392 14.3637L2.44706 16.0578L9.0102 14.1378L13.6533 10.21L1.58118 1.25L0 6.00608Z" fill="#763D16" stroke="#763D16" stroke-width="0.3125" stroke-linecap="round" stroke-linejoin="round"/>
<path d="M29.54 16.0577L22.9769 14.1377L24.9722 17.1369L21.998 22.9095L25.9133 22.8593H31.7486L29.54 16.0577Z" fill="#F6851B" stroke="#F6851B" stroke-width="0.3125" stroke-linecap="round" stroke-linejoin="round"/>
<path d="M9.01034 14.1377L2.4472 16.0577L0.263672 22.8593H6.08642L9.98916 22.9095L7.02759 17.1369L9.01034 14.1377Z" fill="#F6851B" stroke="#F6851B" stroke-width="0.3125" stroke-linecap="round" stroke-linejoin="round"/>
<path d="M17.9205 17.4512L18.3346 10.2104L20.2421 5.05273H11.7715L13.6538 10.2104L14.0931 17.4512L14.2436 19.7351L14.2562 25.357H17.7323L17.7574 19.7351L17.9205 17.4512Z" fill="#F6851B" stroke="#F6851B" stroke-width="0.3125" stroke-linecap="round" stroke-linejoin="round"/>
</g>
<defs>
<clipPath id="clip0_0_912">
<rect width="32" height="32" fill="white"/>
</clipPath>
</defs>
</svg>
