<svg width="24" height="24" viewBox="0 0 24 24" fill="none" xmlns="http://www.w3.org/2000/svg">
<path fill-rule="evenodd" clip-rule="evenodd" d="M12 3.75C7.44365 3.75 3.75 7.44365 3.75 12C3.75 16.5563 7.44365 20.25 12 20.25C16.5563 20.25 20.25 16.5563 20.25 12C20.25 7.44365 16.5563 3.75 12 3.75ZM2.25 12C2.25 6.61522 6.61522 2.25 12 2.25C17.3848 2.25 21.75 6.61522 21.75 12C21.75 17.3848 17.3848 21.75 12 21.75C6.61522 21.75 2.25 17.3848 2.25 12Z" fill="#858584"/>
<path fill-rule="evenodd" clip-rule="evenodd" d="M2.76562 9C2.76562 8.58579 3.10141 8.25 3.51562 8.25H20.4844C20.8986 8.25 21.2344 8.58579 21.2344 9C21.2344 9.41421 20.8986 9.75 20.4844 9.75H3.51562C3.10141 9.75 2.76562 9.41421 2.76562 9Z" fill="#858584"/>
<path fill-rule="evenodd" clip-rule="evenodd" d="M2.76562 15C2.76562 14.5858 3.10141 14.25 3.51562 14.25H20.4844C20.8986 14.25 21.2344 14.5858 21.2344 15C21.2344 15.4142 20.8986 15.75 20.4844 15.75H3.51562C3.10141 15.75 2.76562 15.4142 2.76562 15Z" fill="#858584"/>
<path fill-rule="evenodd" clip-rule="evenodd" d="M10.0378 6.10405C9.4079 7.57484 9 9.659 9 12.0004C9 14.3418 9.4079 16.4259 10.0378 17.8967C10.3533 18.6335 10.7097 19.1817 11.0673 19.5349C11.4217 19.8849 11.736 20.0066 12 20.0066C12.264 20.0066 12.5783 19.8849 12.9327 19.5349C13.2903 19.1817 13.6467 18.6335 13.9622 17.8967C14.5921 16.4259 15 14.3418 15 12.0004C15 9.659 14.5921 7.57484 13.9622 6.10405C13.6467 5.36731 13.2903 4.81904 12.9327 4.46587C12.5783 4.11587 12.264 3.99414 12 3.99414C11.736 3.99414 11.4217 4.11587 11.0673 4.46587C10.7097 4.81904 10.3533 5.36731 10.0378 6.10405ZM10.0133 3.39863C10.5562 2.86245 11.2284 2.49414 12 2.49414C12.7716 2.49414 13.4438 2.86245 13.9867 3.39863C14.5264 3.93164 14.978 4.66569 15.3411 5.51353C16.0684 7.21187 16.5 9.50584 16.5 12.0004C16.5 14.4949 16.0684 16.7889 15.3411 18.4873C14.978 19.3351 14.5264 20.0691 13.9867 20.6022C13.4438 21.1383 12.7716 21.5066 12 21.5066C11.2284 21.5066 10.5562 21.1383 10.0133 20.6022C9.47362 20.0691 9.02201 19.3351 8.65891 18.4873C7.93157 16.7889 7.5 14.4949 7.5 12.0004C7.5 9.50584 7.93157 7.21187 8.65891 5.51353C9.02201 4.66569 9.47362 3.93164 10.0133 3.39863Z" fill="#858584"/>
</svg>
