<svg width="169" height="169" viewBox="0 0 169 169" fill="none" xmlns="http://www.w3.org/2000/svg">
<path d="M84.5016 126.199C107.531 126.199 126.201 107.529 126.201 84.4997C126.201 61.47 107.531 42.8007 84.5016 42.8007C61.4719 42.8007 42.8027 61.47 42.8027 84.4997C42.8027 107.529 61.4719 126.199 84.5016 126.199Z" fill="url(#paint0_linear_0_1072)"/>
<g filter="url(#filter0_f_0_1072)">
<path d="M84.5002 114.959C101.322 114.959 114.959 101.322 114.959 84.5002C114.959 67.6785 101.322 54.0418 84.5002 54.0418C67.6785 54.0418 54.0418 67.6785 54.0418 84.5002C54.0418 101.322 67.6785 114.959 84.5002 114.959Z" fill="url(#paint1_linear_0_1072)"/>
</g>
<path fill-rule="evenodd" clip-rule="evenodd" d="M64.5928 53.1646C65.2905 53.1646 65.856 52.599 65.856 51.9014C65.856 51.2038 65.2905 50.6382 64.5928 50.6382C63.8952 50.6382 63.3297 51.2038 63.3297 51.9014C63.3297 52.599 63.8952 53.1646 64.5928 53.1646ZM64.5928 54.112C65.8137 54.112 66.8034 53.1222 66.8034 51.9014C66.8034 50.6805 65.8137 49.6908 64.5928 49.6908C63.372 49.6908 62.3823 50.6805 62.3823 51.9014C62.3823 53.1222 63.372 54.112 64.5928 54.112Z" fill="white"/>
<path fill-rule="evenodd" clip-rule="evenodd" d="M52.9901 106.467C53.6877 106.467 54.2533 105.901 54.2533 105.203C54.2533 104.506 53.6877 103.94 52.9901 103.94C52.2925 103.94 51.727 104.506 51.727 105.203C51.727 105.901 52.2925 106.467 52.9901 106.467ZM52.9901 107.414C54.211 107.414 55.2007 106.424 55.2007 105.203C55.2007 103.982 54.211 102.993 52.9901 102.993C51.7693 102.993 50.7796 103.982 50.7796 105.203C50.7796 106.424 51.7693 107.414 52.9901 107.414Z" fill="white"/>
<path fill-rule="evenodd" clip-rule="evenodd" d="M116.445 70.9312C117.143 70.9312 117.709 70.3657 117.709 69.6681C117.709 68.9705 117.143 68.4049 116.445 68.4049C115.748 68.4049 115.182 68.9705 115.182 69.6681C115.182 70.3657 115.748 70.9312 116.445 70.9312ZM116.445 71.8787C117.666 71.8787 118.656 70.8888 118.656 69.6681C118.656 68.4472 117.666 67.4575 116.445 67.4575C115.224 67.4575 114.235 68.4472 114.235 69.6681C114.235 70.8888 115.224 71.8787 116.445 71.8787Z" fill="white"/>
<path d="M50.1965 53.3845C50.2894 52.9996 50.8369 52.9996 50.9298 53.3845L51.2425 54.6799C51.2757 54.8174 51.3831 54.9248 51.5207 54.958L52.8161 55.2708C53.201 55.3637 53.201 55.9111 52.8161 56.004L51.5207 56.3167C51.3831 56.35 51.2757 56.4573 51.2425 56.5949L50.9298 57.8903C50.8369 58.2752 50.2894 58.2752 50.1965 57.8903L49.8838 56.5949C49.8506 56.4573 49.7432 56.35 49.6057 56.3167L48.3102 56.004C47.9253 55.9111 47.9253 55.3637 48.3102 55.2708L49.6057 54.958C49.7432 54.9248 49.8506 54.8174 49.8838 54.6799L50.1965 53.3845Z" fill="white"/>
<path d="M117.604 53.1679C117.706 52.746 118.306 52.746 118.408 53.1679L118.751 54.5878C118.787 54.7386 118.905 54.8563 119.055 54.8927L120.475 55.2355C120.897 55.3373 120.897 55.9374 120.475 56.0393L119.055 56.382C118.905 56.4184 118.787 56.5361 118.751 56.6869L118.408 58.1069C118.306 58.5288 117.706 58.5288 117.604 58.1069L117.261 56.6869C117.225 56.5361 117.107 56.4184 116.956 56.382L115.536 56.0393C115.115 55.9374 115.115 55.3373 115.536 55.2355L116.956 54.8927C117.107 54.8563 117.225 54.7386 117.261 54.5878L117.604 53.1679Z" fill="url(#paint2_linear_0_1072)"/>
<path d="M54.4157 114.682C54.8957 114.605 55.279 115.077 55.1055 115.531L53.9347 118.597C53.7612 119.051 53.1611 119.147 52.8545 118.77L50.7848 116.223C50.4782 115.846 50.695 115.278 51.1751 115.201L54.4157 114.682Z" fill="url(#paint3_linear_0_1072)"/>
<path d="M112.05 106.259C111.93 105.787 112.365 105.363 112.833 105.495L115.993 106.383C116.461 106.514 116.611 107.103 116.263 107.442L113.914 109.735C113.566 110.075 112.981 109.91 112.861 109.439L112.05 106.259Z" fill="url(#paint4_linear_0_1072)"/>
<path d="M100.641 90.2518L72.4859 80.004C70.3277 79.2186 67.9414 80.3315 67.1559 82.4897L60.5095 100.75C59.724 102.908 60.8368 105.295 62.9949 106.08L91.15 116.328C93.3082 117.113 95.6944 116 96.4798 113.842L103.126 95.5817C103.912 93.4235 102.799 91.0372 100.641 90.2518Z" fill="url(#paint5_linear_0_1072)"/>
<path d="M99.4973 95.9081L107.814 83.9282C109.124 82.0416 108.657 79.4505 106.77 78.1408L94.7901 69.8237C92.9035 68.514 90.3123 68.9816 89.0026 70.8681L80.6857 82.848C79.376 84.7346 79.8434 87.3258 81.73 88.6355L93.7099 96.9524C95.5965 98.2621 98.1876 97.7944 99.4973 95.9081Z" fill="url(#paint6_linear_0_1072)"/>
<path d="M90.0289 86.3734C89.5202 87.0747 88.5426 87.2299 87.8413 86.7208C87.14 86.2121 86.9852 85.2345 87.4939 84.5332C88.003 83.832 88.9806 83.6768 89.6819 84.1859C90.3828 84.695 90.538 85.6725 90.0289 86.3734Z" fill="url(#paint7_linear_0_1072)"/>
<path d="M94.6561 79.987L93.6883 79.285L89.067 85.6577L90.0348 86.3597L94.6561 79.987Z" fill="url(#paint8_linear_0_1072)"/>
<path d="M95.4668 87.5052C94.9578 88.2064 93.9802 88.3616 93.2793 87.8525C92.578 87.3438 92.4228 86.3663 92.9319 85.665C93.4406 84.9637 94.4182 84.8085 95.1195 85.3176C95.8207 85.8267 95.9759 86.8043 95.4668 87.5052Z" fill="url(#paint9_linear_0_1072)"/>
<path d="M100.105 81.1145L99.1371 80.4129L94.5165 86.7863L95.4847 87.4879L100.105 81.1145Z" fill="url(#paint10_linear_0_1072)"/>
<path d="M100.092 81.1308L93.074 80.1372L93.6904 79.284L100.707 80.2808L100.092 81.1308Z" fill="url(#paint11_linear_0_1072)"/>
<path d="M98.9272 82.7365L91.9091 81.743L92.5255 80.8898L99.5454 81.8877L98.9272 82.7365Z" fill="url(#paint12_linear_0_1072)"/>
<path d="M93.339 69.3907L90.9034 58.1067C90.419 55.8617 88.206 54.4346 85.9612 54.9192L71.2055 58.104C68.9607 58.5886 67.5336 60.8013 68.0182 63.0462L70.4538 74.3303C70.9383 76.5752 73.1509 78.0024 75.3961 77.5179L90.1514 74.3328C92.3966 73.8484 93.8234 71.6358 93.339 69.3907Z" fill="url(#paint13_linear_0_1072)"/>
<path d="M93.1459 68.2308L84.8746 61.5897L81.6769 67.8939L78.3083 65.9519L73.6511 72.4349L70.1578 73.1876L70.3242 73.9694C70.8855 76.5645 73.443 78.2155 76.0381 77.6538L89.6236 74.7222C92.2187 74.1609 93.8696 71.6034 93.308 69.0084L93.1419 68.2308H93.1459Z" fill="url(#paint14_linear_0_1072)"/>
<path opacity="0.9" d="M73.5678 65.1995C74.8612 65.1662 75.697 63.8687 75.1937 62.6794C74.9109 62.0141 74.2332 61.5774 73.5094 61.594C72.2164 61.6273 71.3803 62.9248 71.8835 64.1141C72.1664 64.7794 72.8441 65.2161 73.5678 65.1995Z" fill="white"/>
<path d="M96.0431 113.174C95.4676 115.593 92.9117 116.97 90.5751 116.119L62.4725 105.891C60.4886 105.169 59.3606 103.075 59.8492 101.02L63.84 84.2451C64.4155 81.8259 66.9712 80.4491 69.3079 81.2997L97.4104 91.5283C99.3942 92.2502 100.522 94.3443 100.034 96.3984L96.0431 113.174Z" fill="url(#paint15_linear_0_1072)"/>
<defs>
<filter id="filter0_f_0_1072" x="0" y="0" width="169" height="169" filterUnits="userSpaceOnUse" color-interpolation-filters="sRGB">
<feFlood flood-opacity="0" result="BackgroundImageFix"/>
<feBlend mode="normal" in="SourceGraphic" in2="BackgroundImageFix" result="shape"/>
<feGaussianBlur stdDeviation="27" result="effect1_foregroundBlur_0_1072"/>
</filter>
<linearGradient id="paint0_linear_0_1072" x1="54.4361" y1="42.8007" x2="118.087" y2="56.0505" gradientUnits="userSpaceOnUse">
<stop stop-color="#A259FF"/>
<stop offset="1" stop-color="#3B3B3B"/>
</linearGradient>
<linearGradient id="paint1_linear_0_1072" x1="119.672" y1="89.5766" x2="97.0077" y2="128.644" gradientUnits="userSpaceOnUse">
<stop stop-color="#A259FF" stop-opacity="0"/>
<stop offset="1" stop-color="#FF6250"/>
</linearGradient>
<linearGradient id="paint2_linear_0_1072" x1="119.197" y1="54.0896" x2="124.538" y2="58.2848" gradientUnits="userSpaceOnUse">
<stop stop-color="#A259FF"/>
<stop offset="1" stop-color="#377DF7"/>
</linearGradient>
<linearGradient id="paint3_linear_0_1072" x1="54.9107" y1="116.237" x2="54.7323" y2="121.551" gradientUnits="userSpaceOnUse">
<stop stop-color="#A259FF"/>
<stop offset="1" stop-color="#377DF7"/>
</linearGradient>
<linearGradient id="paint4_linear_0_1072" x1="113.554" y1="105.625" x2="118.862" y2="105.32" gradientUnits="userSpaceOnUse">
<stop stop-color="#A259FF"/>
<stop offset="1" stop-color="#377DF7"/>
</linearGradient>
<linearGradient id="paint5_linear_0_1072" x1="92.1446" y1="93.7215" x2="107.677" y2="130.843" gradientUnits="userSpaceOnUse">
<stop stop-color="#A259FF"/>
<stop offset="0.416667" stop-color="#A259FF" stop-opacity="0"/>
</linearGradient>
<linearGradient id="paint6_linear_0_1072" x1="96.6832" y1="91.0377" x2="70.0008" y2="99.2372" gradientUnits="userSpaceOnUse">
<stop stop-color="#FF7262"/>
<stop offset="0.317708" stop-color="#A259FF"/>
</linearGradient>
<linearGradient id="paint7_linear_0_1072" x1="92.4888" y1="79.1164" x2="95.4461" y2="85.3455" gradientUnits="userSpaceOnUse">
<stop stop-color="#3B3B3B"/>
<stop offset="1" stop-color="#A259FF"/>
</linearGradient>
<linearGradient id="paint8_linear_0_1072" x1="102.935" y1="68.4205" x2="105.542" y2="70.98" gradientUnits="userSpaceOnUse">
<stop stop-color="#3B3B3B"/>
<stop offset="1" stop-color="#A259FF"/>
</linearGradient>
<linearGradient id="paint9_linear_0_1072" x1="97.9267" y1="80.2485" x2="100.884" y2="86.4772" gradientUnits="userSpaceOnUse">
<stop stop-color="#3B3B3B"/>
<stop offset="1" stop-color="#A259FF"/>
</linearGradient>
<linearGradient id="paint10_linear_0_1072" x1="108.382" y1="69.5464" x2="110.99" y2="72.1057" gradientUnits="userSpaceOnUse">
<stop stop-color="#3B3B3B"/>
<stop offset="1" stop-color="#A259FF"/>
</linearGradient>
<linearGradient id="paint11_linear_0_1072" x1="101.735" y1="75.8941" x2="101.629" y2="83.2215" gradientUnits="userSpaceOnUse">
<stop stop-color="#3B3B3B"/>
<stop offset="1" stop-color="#A259FF"/>
</linearGradient>
<linearGradient id="paint12_linear_0_1072" x1="100.573" y1="77.5009" x2="100.466" y2="84.8283" gradientUnits="userSpaceOnUse">
<stop stop-color="#3B3B3B"/>
<stop offset="1" stop-color="#A259FF"/>
</linearGradient>
<linearGradient id="paint13_linear_0_1072" x1="83.9828" y1="57.9923" x2="88.6915" y2="73.3828" gradientUnits="userSpaceOnUse">
<stop stop-color="#FF7262"/>
<stop offset="1" stop-color="#A259FF"/>
</linearGradient>
<linearGradient id="paint14_linear_0_1072" x1="80.6551" y1="83.7752" x2="75.5402" y2="64.8822" gradientUnits="userSpaceOnUse">
<stop stop-color="#A259FF"/>
<stop offset="1" stop-color="white"/>
</linearGradient>
<linearGradient id="paint15_linear_0_1072" x1="89.3103" y1="107.998" x2="69.751" y2="58.2334" gradientUnits="userSpaceOnUse">
<stop stop-color="#A259FF"/>
<stop offset="0.666667" stop-color="white"/>
</linearGradient>
</defs>
</svg>
