<svg width="49" height="48" viewBox="0 0 49 48" fill="none" xmlns="http://www.w3.org/2000/svg">
<path d="M9.62818 32.5975C9.8865 32.858 10.2153 33 10.6027 33C11.3777 33 12 32.3844 12 31.6032C12 31.2125 11.8356 30.8574 11.5656 30.5851L3.34638 22.4882L11.5656 14.4149C11.8356 14.1426 12 13.7756 12 13.3968C12 12.6156 11.3777 12 10.6027 12C10.2153 12 9.8865 12.1421 9.62818 12.4025L0.493151 21.3991C0.164384 21.7069 0.0117417 22.0857 0 22.5C0 22.9143 0.164384 23.2694 0.493151 23.5891L9.62818 32.5975Z" fill="white"/>
</svg>
