<svg width="26" height="26" viewBox="0 0 26 26" fill="none" xmlns="http://www.w3.org/2000/svg">
<path d="M3.25 11.9167V3.25H11.9167V11.9167H3.25ZM6.5 6.5V8.66667H8.66667V6.5H6.5ZM14.0833 11.9167V3.25H22.75V11.9167H14.0833ZM17.3333 6.5V8.66667H19.5V6.5H17.3333ZM3.25 14.0833V22.75H11.9167V14.0833H3.25ZM8.66667 17.3333V19.5H6.5V17.3333H8.66667ZM17.3333 14.0833H14.0833V16.25H17.3333V20.5833H16.25V18.4167H14.0833V22.75H18.4167V20.5833H20.5833V22.75H22.75V19.5H20.5833V18.4167H19.5V17.3333H22.75V14.0833H19.5V16.25H17.3333V14.0833Z" fill="black"/>
</svg>
