<svg width="251" height="46" viewBox="0 0 251 46" fill="none" xmlns="http://www.w3.org/2000/svg">
<path d="M12.565 39.4373C27.66 39.4373 35.9175 26.6171 35.9175 15.5189C35.9175 15.1602 35.9175 14.7963 35.9025 14.4376C37.5101 13.2447 38.8977 11.7678 40 10.0762C38.4983 10.7549 36.9069 11.2022 35.2775 11.4036C36.9938 10.352 38.2793 8.69749 38.895 6.74751C37.2825 7.7267 35.5175 8.41409 33.6775 8.77957C32.4405 7.4292 30.8035 6.53461 29.0202 6.23439C27.2369 5.93417 25.4068 6.24506 23.8133 7.11891C22.2199 7.99277 20.952 9.38081 20.2061 11.068C19.4602 12.7553 19.2779 14.6475 19.6875 16.4517C16.4244 16.284 13.232 15.4151 10.3176 13.9014C7.40317 12.3876 4.83171 10.2629 2.77 7.66489C1.72335 9.51779 1.40393 11.7095 1.87662 13.7951C2.3493 15.8806 3.57864 17.7036 5.315 18.8938C4.01385 18.8484 2.7413 18.4903 1.6 17.8483V17.9636C1.60224 19.9046 2.25827 21.7853 3.45718 23.2878C4.6561 24.7903 6.32437 25.8224 8.18 26.2097C7.47566 26.4086 6.74807 26.5077 6.0175 26.5044C5.50246 26.506 4.98845 26.4571 4.4825 26.3583C5.00697 28.0292 6.02818 29.4901 7.40312 30.5364C8.77805 31.5827 10.4378 32.162 12.15 32.1931C9.24139 34.5347 5.6485 35.8047 1.95 35.7986C1.2983 35.8014 0.647058 35.7629 0 35.6833C3.75379 38.1362 8.11324 39.4387 12.565 39.4373Z" fill="white"/>
<g clip-path="url(#clip0_2306_12778)">
<path d="M211 4.93663C211 3.31456 212.315 2 213.938 2H248.062C249.685 2 251 3.31456 251 4.93663V40.0634C251 41.6854 249.685 43 248.062 43H213.938C212.315 43 211 41.6854 211 40.0634V4.93663ZM223.358 36.3221V17.8081H217.355V36.3221H223.358ZM220.358 15.2789C222.45 15.2789 223.752 13.8593 223.752 12.0809C223.715 10.2641 222.453 8.88288 220.398 8.88288C218.343 8.88288 217 10.2666 217 12.0809C217 13.8593 218.302 15.2789 220.318 15.2789H220.358ZM232.628 36.3221V25.9824C232.628 25.4289 232.667 24.8754 232.827 24.4808C233.26 23.3764 234.248 22.2309 235.908 22.2309C238.08 22.2309 238.948 23.9273 238.948 26.4181V36.3221H244.95V25.7031C244.95 20.0144 241.99 17.3699 238.04 17.3699C234.855 17.3699 233.427 19.1636 232.628 20.4269V20.491H232.588C232.601 20.4696 232.614 20.4483 232.628 20.4269V17.8081H226.627C226.702 19.5454 226.627 36.3221 226.627 36.3221H232.628Z" fill="black"/>
</g>
<path d="M152.625 3.83301H168.375C174.375 3.83301 179.25 8.81634 179.25 14.9497V31.0497C179.25 33.998 178.104 36.8256 176.065 38.9103C174.025 40.9951 171.259 42.1663 168.375 42.1663H152.625C146.625 42.1663 141.75 37.183 141.75 31.0497V14.9497C141.75 12.0014 142.896 9.17378 144.935 7.089C146.975 5.00422 149.741 3.83301 152.625 3.83301ZM152.25 7.66634C150.46 7.66634 148.743 8.3933 147.477 9.6873C146.211 10.9813 145.5 12.7363 145.5 14.5663V31.433C145.5 35.2472 148.519 38.333 152.25 38.333H168.75C170.54 38.333 172.257 37.606 173.523 36.312C174.789 35.018 175.5 33.263 175.5 31.433V14.5663C175.5 10.7522 172.481 7.66634 168.75 7.66634H152.25ZM170.344 10.5413C170.965 10.5413 171.561 10.7938 172.001 11.2431C172.441 11.6924 172.688 12.3018 172.688 12.9372C172.688 13.5726 172.441 14.182 172.001 14.6313C171.561 15.0806 170.965 15.333 170.344 15.333C169.722 15.333 169.126 15.0806 168.686 14.6313C168.247 14.182 168 13.5726 168 12.9372C168 12.3018 168.247 11.6924 168.686 11.2431C169.126 10.7938 169.722 10.5413 170.344 10.5413ZM160.5 13.4163C162.986 13.4163 165.371 14.426 167.129 16.2232C168.887 18.0205 169.875 20.458 169.875 22.9997C169.875 25.5413 168.887 27.9789 167.129 29.7761C165.371 31.5733 162.986 32.583 160.5 32.583C158.014 32.583 155.629 31.5733 153.871 29.7761C152.113 27.9789 151.125 25.5413 151.125 22.9997C151.125 20.458 152.113 18.0205 153.871 16.2232C155.629 14.426 158.014 13.4163 160.5 13.4163ZM160.5 17.2497C159.008 17.2497 157.577 17.8555 156.523 18.9338C155.468 20.0121 154.875 21.4747 154.875 22.9997C154.875 24.5247 155.468 25.9872 156.523 27.0655C157.577 28.1439 159.008 28.7497 160.5 28.7497C161.992 28.7497 163.423 28.1439 164.477 27.0655C165.532 25.9872 166.125 24.5247 166.125 22.9997C166.125 21.4747 165.532 20.0121 164.477 18.9338C163.423 17.8555 161.992 17.2497 160.5 17.2497Z" fill="white"/>
<path d="M106.25 22.9997C106.25 12.4197 97.85 3.83301 87.5 3.83301C77.15 3.83301 68.75 12.4197 68.75 22.9997C68.75 32.2763 75.2 40.0005 83.75 41.783V28.7497H80V22.9997H83.75V18.208C83.75 14.5088 86.6938 11.4997 90.3125 11.4997H95V17.2497H91.25C90.2188 17.2497 89.375 18.1122 89.375 19.1663V22.9997H95V28.7497H89.375V42.0705C98.8438 41.1122 106.25 32.9472 106.25 22.9997Z" fill="black"/>
<defs>
<clipPath id="clip0_2306_12778">
<rect width="40" height="41" fill="white" transform="translate(211 2)"/>
</clipPath>
</defs>
</svg>
