<svg width="24" height="23" viewBox="0 0 24 23" fill="none" xmlns="http://www.w3.org/2000/svg">
<path d="M9.60073 3.42573C9.28247 3.42573 8.97724 3.54602 8.75219 3.76014C8.52714 3.97427 8.40071 4.26468 8.40071 4.5675V5.13838C8.40071 5.28979 8.33749 5.43499 8.22497 5.54206C8.11245 5.64912 7.95983 5.70926 7.8007 5.70926C7.64157 5.70926 7.48895 5.64912 7.37643 5.54206C7.2639 5.43499 7.20069 5.28979 7.20069 5.13838V4.5675C7.20069 3.96186 7.45355 3.38104 7.90364 2.95279C8.35374 2.52454 8.9642 2.28396 9.60073 2.28396H10.2007C10.3599 2.28396 10.5125 2.3441 10.625 2.45117C10.7375 2.55823 10.8008 2.70343 10.8008 2.85484C10.8008 3.00625 10.7375 3.15146 10.625 3.25852C10.5125 3.36558 10.3599 3.42573 10.2007 3.42573H9.60073ZM8.40071 13.7016C8.40071 14.0045 8.52714 14.2949 8.75219 14.509C8.97724 14.7231 9.28247 14.8434 9.60073 14.8434H10.2007C10.3599 14.8434 10.5125 14.9036 10.625 15.0106C10.7375 15.1177 10.8008 15.2629 10.8008 15.4143C10.8008 15.5657 10.7375 15.7109 10.625 15.818C10.5125 15.925 10.3599 15.9852 10.2007 15.9852H9.60073C8.9642 15.9852 8.35374 15.7446 7.90364 15.3164C7.45355 14.8881 7.20069 14.3073 7.20069 13.7016V13.1308C7.20069 12.9794 7.2639 12.8341 7.37643 12.7271C7.48895 12.62 7.64157 12.5599 7.8007 12.5599C7.95983 12.5599 8.11245 12.62 8.22497 12.7271C8.33749 12.8341 8.40071 12.9794 8.40071 13.1308V13.7016ZM8.40071 7.42192C8.40071 7.27051 8.33749 7.1253 8.22497 7.01824C8.11245 6.91118 7.95983 6.85103 7.8007 6.85103C7.64157 6.85103 7.48895 6.91118 7.37643 7.01824C7.2639 7.1253 7.20069 7.27051 7.20069 7.42192V10.8472C7.20069 10.9986 7.2639 11.1438 7.37643 11.2509C7.48895 11.358 7.64157 11.4181 7.8007 11.4181C7.95983 11.4181 8.11245 11.358 8.22497 11.2509C8.33749 11.1438 8.40071 10.9986 8.40071 10.8472V7.42192ZM19.2009 3.42573C19.5192 3.42573 19.8244 3.54602 20.0495 3.76014C20.2745 3.97427 20.4009 4.26468 20.4009 4.5675V5.13838C20.4009 5.28979 20.4641 5.43499 20.5767 5.54206C20.6892 5.64912 20.8418 5.70926 21.0009 5.70926C21.1601 5.70926 21.3127 5.64912 21.4252 5.54206C21.5377 5.43499 21.601 5.28979 21.601 5.13838V4.5675C21.601 3.96186 21.3481 3.38104 20.898 2.95279C20.4479 2.52454 19.8374 2.28396 19.2009 2.28396H18.6009C18.4418 2.28396 18.2891 2.3441 18.1766 2.45117C18.0641 2.55823 18.0009 2.70343 18.0009 2.85484C18.0009 3.00625 18.0641 3.15146 18.1766 3.25852C18.2891 3.36558 18.4418 3.42573 18.6009 3.42573H19.2009ZM19.2009 14.8434C19.5192 14.8434 19.8244 14.7231 20.0495 14.509C20.2745 14.2949 20.4009 14.0045 20.4009 13.7016V13.1308C20.4009 12.9794 20.4641 12.8341 20.5767 12.7271C20.6892 12.62 20.8418 12.5599 21.0009 12.5599C21.1601 12.5599 21.3127 12.62 21.4252 12.7271C21.5377 12.8341 21.601 12.9794 21.601 13.1308V13.7016C21.601 14.3073 21.3481 14.8881 20.898 15.3164C20.4479 15.7446 19.8374 15.9852 19.2009 15.9852H18.6009C18.4418 15.9852 18.2891 15.925 18.1766 15.818C18.0641 15.7109 18.0009 15.5657 18.0009 15.4143C18.0009 15.2629 18.0641 15.1177 18.1766 15.0106C18.2891 14.9036 18.4418 14.8434 18.6009 14.8434H19.2009ZM21.0009 6.85103C20.8418 6.85103 20.6892 6.91118 20.5767 7.01824C20.4641 7.1253 20.4009 7.27051 20.4009 7.42192V10.8472C20.4009 10.9986 20.4641 11.1438 20.5767 11.2509C20.6892 11.358 20.8418 11.4181 21.0009 11.4181C21.1601 11.4181 21.3127 11.358 21.4252 11.2509C21.5377 11.1438 21.601 10.9986 21.601 10.8472V7.42192C21.601 7.27051 21.5377 7.1253 21.4252 7.01824C21.3127 6.91118 21.1601 6.85103 21.0009 6.85103ZM12.6008 2.28396C12.4417 2.28396 12.289 2.3441 12.1765 2.45117C12.064 2.55823 12.0008 2.70343 12.0008 2.85484C12.0008 3.00625 12.064 3.15146 12.1765 3.25852C12.289 3.36558 12.4417 3.42573 12.6008 3.42573H16.2009C16.36 3.42573 16.5126 3.36558 16.6251 3.25852C16.7377 3.15146 16.8009 3.00625 16.8009 2.85484C16.8009 2.70343 16.7377 2.55823 16.6251 2.45117C16.5126 2.3441 16.36 2.28396 16.2009 2.28396H12.6008ZM12.0008 15.4143C12.0008 15.2629 12.064 15.1177 12.1765 15.0106C12.289 14.9036 12.4417 14.8434 12.6008 14.8434H16.2009C16.36 14.8434 16.5126 14.9036 16.6251 15.0106C16.7377 15.1177 16.8009 15.2629 16.8009 15.4143C16.8009 15.5657 16.7377 15.7109 16.6251 15.818C16.5126 15.925 16.36 15.9852 16.2009 15.9852H12.6008C12.4417 15.9852 12.289 15.925 12.1765 15.818C12.064 15.7109 12.0008 15.5657 12.0008 15.4143ZM4.80064 6.85103H6.00066V14.2725C6.00066 15.0296 6.31674 15.7556 6.87936 16.2909C7.44198 16.8262 8.20506 17.127 9.00072 17.127H16.8009V18.2687C16.8009 18.8744 16.548 19.4552 16.0979 19.8834C15.6478 20.3117 15.0374 20.5523 14.4008 20.5523H6.60068C5.48675 20.5523 4.41844 20.1312 3.63077 19.3818C2.84311 18.6324 2.4006 17.6159 2.4006 16.5561V9.13457C2.4006 8.52894 2.65346 7.94811 3.10355 7.51987C3.55365 7.09162 4.16411 6.85103 4.80064 6.85103Z" fill="#222222"/>
</svg>
