<svg width="80" height="80" viewBox="0 0 80 80" fill="none" xmlns="http://www.w3.org/2000/svg">
<path d="M11.4677 54.0627L19.0302 11.219C19.083 10.8956 19.1997 10.586 19.3734 10.3082C19.5471 10.0304 19.7744 9.78997 20.042 9.60091C20.3096 9.41184 20.6122 9.27794 20.932 9.207C21.2519 9.13606 21.5827 9.1295 21.9052 9.18771L39.1552 12.219C39.8069 12.3408 40.3848 12.7135 40.7647 13.257C41.1445 13.8005 41.2959 14.4713 41.1864 15.1252L33.5926 58.219C33.0726 61.1207 31.4374 63.7036 29.037 65.4148C26.6365 67.1261 23.6616 67.8297 20.7489 67.3752C14.5302 66.3752 10.3739 60.2815 11.4677 54.0627Z" stroke="white" stroke-width="3" stroke-linecap="round" stroke-linejoin="round"/>
<path d="M36.9688 39.0005L59.75 30.7192C60.0597 30.6049 60.389 30.553 60.7189 30.5666C61.0488 30.5802 61.3727 30.659 61.672 30.7984C61.9712 30.9379 62.2399 31.1353 62.4625 31.3791C62.6851 31.623 62.8571 31.9085 62.9687 32.2192L68.9687 48.6567C69.19 49.2784 69.1565 49.9624 68.8756 50.5596C68.5946 51.1567 68.0889 51.6185 67.4687 51.8442L26.3438 66.813" stroke="white" stroke-width="3" stroke-linecap="round" stroke-linejoin="round"/>
<path d="M68.75 50.7812V65C68.75 65.663 68.4866 66.2989 68.0178 66.7678C67.5489 67.2366 66.913 67.5 66.25 67.5H22.5" stroke="white" stroke-width="3" stroke-linecap="round" stroke-linejoin="round"/>
<path d="M22.5 60C24.5711 60 26.25 58.3211 26.25 56.25C26.25 54.1789 24.5711 52.5 22.5 52.5C20.4289 52.5 18.75 54.1789 18.75 56.25C18.75 58.3211 20.4289 60 22.5 60Z" fill="white"/>
</svg>
