<svg width="21" height="24" viewBox="0 0 21 24" fill="none" xmlns="http://www.w3.org/2000/svg">
<path d="M18.2857 5.71429H16C16 2.51429 13.4857 0 10.2857 0C7.08571 0 4.57143 2.51429 4.57143 5.71429H2.28571C1.02857 5.71429 0 6.74286 0 8V21.7143C0 22.9714 1.02857 24 2.28571 24H18.2857C19.5429 24 20.5714 22.9714 20.5714 21.7143V8C20.5714 6.74286 19.5429 5.71429 18.2857 5.71429ZM10.2857 2.28571C12.2286 2.28571 13.7143 3.77143 13.7143 5.71429H6.85714C6.85714 3.77143 8.34286 2.28571 10.2857 2.28571ZM18.2857 21.7143H2.28571V8H18.2857V21.7143ZM10.2857 12.5714C8.34286 12.5714 6.85714 11.0857 6.85714 9.14286H4.57143C4.57143 12.3429 7.08571 14.8571 10.2857 14.8571C13.4857 14.8571 16 12.3429 16 9.14286H13.7143C13.7143 11.0857 12.2286 12.5714 10.2857 12.5714Z" fill="white"/>
</svg>
