<svg width="71" height="30" viewBox="0 0 71 30" fill="none" xmlns="http://www.w3.org/2000/svg">
<path d="M0.502947 26.561L1.77107 27.8451C2.22057 28.3002 2.97514 28.2257 3.32691 27.6914L4.47909 25.9414C4.86064 25.3619 5.70048 25.3336 6.12021 25.8861L7.91598 28.2499C8.3502 28.8215 9.22615 28.7674 9.58672 28.1467L11.4841 24.8807C11.8812 24.1971 12.8754 24.2177 13.2439 24.9172L14.9686 28.1917C15.1426 28.522 15.4852 28.7288 15.8586 28.7288H16.9755C17.4848 28.7288 17.9138 28.3482 17.9743 27.8425L18.2775 25.3096C18.3188 24.9644 18.5355 24.665 18.8504 24.5178L20.6973 23.6547C21.1281 23.4534 21.641 23.5812 21.9269 23.9612L22.4808 24.6973C22.8992 25.2533 23.7421 25.2268 24.1248 24.6457L27.056 20.1936C27.1153 20.1035 27.1597 20.0045 27.1876 19.9003L30.0385 9.24196C30.1561 8.80199 30.5548 8.49598 31.0102 8.49598H31.1202C31.5807 8.49598 31.9823 8.18336 32.0953 7.73701L33.395 2.60488C33.6451 1.61723 35.0363 1.58453 35.3325 2.55934L36.2889 5.7067C36.5669 6.62141 37.8441 6.66901 38.1894 5.77752L38.925 3.87822C39.1379 3.32836 39.913 3.32027 40.1374 3.86556V3.86556C40.3539 4.39182 41.0932 4.40833 41.3331 3.89227L42.6382 1.084C43.0003 0.304904 44.1094 0.308993 44.4657 1.09073L45.352 3.03511C45.5536 3.47749 46.0428 3.71234 46.5141 3.59304L48.0303 3.20924C48.3578 3.12634 48.705 3.21335 48.9547 3.44089L50.7001 5.03152C50.8521 5.17002 50.958 5.35177 51.0035 5.5523L52.5532 12.378C52.7755 13.3574 54.138 13.4421 54.4799 12.4978L55.304 10.2222C55.5745 9.47523 56.5635 9.32192 57.0475 9.95197L57.2922 10.2706C57.4826 10.5185 57.7774 10.6638 58.09 10.6638H60.951C61.2281 10.6638 61.4832 10.5128 61.6165 10.2698V10.2698C61.9538 9.65499 62.8731 9.78725 63.0234 10.4722L63.6057 13.1252C63.707 13.5867 64.1157 13.9155 64.5882 13.9155H64.8887C65.354 13.9155 65.7586 14.2346 65.8669 14.6872L67.2053 20.2773C67.3796 21.0055 68.26 21.2947 68.8322 20.8119L69.447 20.2932C69.6273 20.141 69.7484 19.9302 69.7891 19.6978L70.4964 15.6563" stroke="#30E0A1" stroke-linecap="round"/>
</svg>
