<svg width="24" height="24" viewBox="0 0 24 24" fill="none" xmlns="http://www.w3.org/2000/svg">
<path fill-rule="evenodd" clip-rule="evenodd" d="M4.5 9.33789C4.91421 9.33789 5.25 9.67368 5.25 10.0879V19.5004H18.75V10.0879C18.75 9.67368 19.0858 9.33789 19.5 9.33789C19.9142 9.33789 20.25 9.67368 20.25 10.0879V19.5004C20.25 19.8982 20.092 20.2797 19.8107 20.561C19.5294 20.8424 19.1478 21.0004 18.75 21.0004H5.25C4.85218 21.0004 4.47065 20.8424 4.18934 20.561C3.90804 20.2797 3.75 19.8982 3.75 19.5004V10.0879C3.75 9.67368 4.08579 9.33789 4.5 9.33789Z" fill="#A259FF"/>
<path fill-rule="evenodd" clip-rule="evenodd" d="M2.25 3.75C2.25 3.33579 2.58579 3 3 3H21C21.4142 3 21.75 3.33579 21.75 3.75C21.75 4.16421 21.4142 4.5 21 4.5H3C2.58579 4.5 2.25 4.16421 2.25 3.75Z" fill="#A259FF"/>
<path fill-rule="evenodd" clip-rule="evenodd" d="M3 5.25C3.41421 5.25 3.75 5.58579 3.75 6V7.5C3.75 8.09674 3.98705 8.66903 4.40901 9.09099C4.83097 9.51295 5.40326 9.75 6 9.75C6.59674 9.75 7.16903 9.51295 7.59099 9.09099C8.01295 8.66903 8.25 8.09674 8.25 7.5V6C8.25 5.58579 8.58579 5.25 9 5.25C9.41421 5.25 9.75 5.58579 9.75 6V7.5C9.75 8.49456 9.35491 9.44839 8.65165 10.1516C7.94839 10.8549 6.99456 11.25 6 11.25C5.00544 11.25 4.05161 10.8549 3.34835 10.1516C2.64509 9.44839 2.25 8.49456 2.25 7.5V6C2.25 5.58579 2.58579 5.25 3 5.25Z" fill="#A259FF"/>
<path fill-rule="evenodd" clip-rule="evenodd" d="M9 5.25C9.41421 5.25 9.75 5.58579 9.75 6V7.5C9.75 8.09674 9.98705 8.66903 10.409 9.09099C10.831 9.51295 11.4033 9.75 12 9.75C12.5967 9.75 13.169 9.51295 13.591 9.09099C14.0129 8.66903 14.25 8.09674 14.25 7.5V6C14.25 5.58579 14.5858 5.25 15 5.25C15.4142 5.25 15.75 5.58579 15.75 6V7.5C15.75 8.49456 15.3549 9.44839 14.6516 10.1516C13.9484 10.8549 12.9946 11.25 12 11.25C11.0054 11.25 10.0516 10.8549 9.34835 10.1516C8.64509 9.44839 8.25 8.49456 8.25 7.5V6C8.25 5.58579 8.58579 5.25 9 5.25Z" fill="#A259FF"/>
<path fill-rule="evenodd" clip-rule="evenodd" d="M15 5.25C15.4142 5.25 15.75 5.58579 15.75 6V7.5C15.75 8.09674 15.9871 8.66903 16.409 9.09099C16.831 9.51295 17.4033 9.75 18 9.75C18.5967 9.75 19.169 9.51295 19.591 9.09099C20.0129 8.66903 20.25 8.09674 20.25 7.5V6C20.25 5.58579 20.5858 5.25 21 5.25C21.4142 5.25 21.75 5.58579 21.75 6V7.5C21.75 8.49456 21.3549 9.44839 20.6516 10.1516C19.9484 10.8549 18.9946 11.25 18 11.25C17.0054 11.25 16.0516 10.8549 15.3484 10.1516C14.6451 9.44839 14.25 8.49456 14.25 7.5V6C14.25 5.58579 14.5858 5.25 15 5.25Z" fill="#A259FF"/>
</svg>
